<?xml version="1.0" encoding="UTF-8" standalone="no"?><!-- Generator: Gravit.io --><svg xmlns="http://www.w3.org/2000/svg" xmlns:xlink="http://www.w3.org/1999/xlink" style="isolation:isolate" viewBox="0 0 512 512" width="512pt" height="512pt"><defs><clipPath id="_clipPath_bde6KSgI1oGVZnhfq5ikjYZF3gRkyGg3"><rect width="512" height="512"/></clipPath></defs><g clip-path="url(#_clipPath_bde6KSgI1oGVZnhfq5ikjYZF3gRkyGg3)"><g><path d=" M 52.403 400.383 L 255.484 512 L 459.612 398.871 L 497.664 83.275 L 255.228 0 L 14.336 84.775 L 52.403 400.383 Z " fill="rgb(179,179,179)"/><path d=" M 254.665 485.332 L 438.173 383.771 L 473.636 101.515 L 254.665 26.843 L 254.665 485.332 Z " fill="rgb(166,18,13)"/><path d=" M 254.663 485.332 L 254.663 26.833 L 41.368 102.86 L 73.987 385.12 L 254.663 485.332 Z " fill="rgb(221,27,22)"/><path d=" M 314.94 270.919 L 254.665 299.104 L 191.137 299.104 L 161.273 373.799 L 105.727 374.828 L 254.665 43.492 L 314.94 270.919 Z  M 309.113 256.728 L 255.065 149.728 L 210.732 254.887 L 254.663 254.887 L 309.113 256.728 Z " fill="rgb(242,242,242)"/><path d=" M 305.368 254.969 L 254.776 254.969 L 254.663 299.037 L 324.619 299.104 L 357.313 374.84 L 410.463 375.824 L 254.663 43.492 L 255.061 149.728 L 305.368 254.969 Z " fill="rgb(179,179,179)"/></g></g></svg>