<?xml version="1.0" encoding="UTF-8" standalone="no"?><!-- Generator: Gravit.io --><svg xmlns="http://www.w3.org/2000/svg" xmlns:xlink="http://www.w3.org/1999/xlink" style="isolation:isolate" viewBox="0 0 512 512" width="512pt" height="512pt"><defs><clipPath id="_clipPath_IzSGlwYzmOigdclSfghj1mdhkYypk0T3"><rect width="512" height="512"/></clipPath></defs><g clip-path="url(#_clipPath_IzSGlwYzmOigdclSfghj1mdhkYypk0T3)"><g><path d=" M 120.81 182.474 L 217.378 182.474 L 217.378 190.113 L 129.662 190.113 L 129.662 247.602 L 212.148 247.602 L 212.148 255.241 L 129.662 255.241 L 129.662 318.359 L 218.384 318.359 L 218.384 325.997 L 120.81 325.997 L 120.81 182.474 Z  M 226.029 182.474 L 236.29 182.474 L 281.757 245.592 L 328.23 182.474 L 391.441 102.3 L 287.591 252.226 L 341.106 325.997 L 330.443 325.997 L 281.757 258.859 L 232.869 325.997 L 222.408 325.997 L 276.325 252.226 L 226.029 182.474 Z  M 344.928 190.113 L 344.928 182.474 L 454.976 182.474 L 454.976 190.113 L 404.277 190.113 L 404.277 325.997 L 395.425 325.997 L 395.425 190.113 L 344.928 190.113 Z " fill="rgb(0,0,0)"/><path d=" M 0 182.474 L 11.065 182.474 L 163.646 409.7 L 100.592 325.997 L 9.254 193.329 L 8.852 325.997 L 0 325.997 L 0 182.474 Z " fill="rgb(0,0,0)"/><path d=" M 454.084 316.054 C 455.914 316.054 457.249 314.659 457.249 312.857 C 457.249 311.055 455.914 309.66 454.084 309.66 C 452.275 309.66 450.919 311.055 450.919 312.857 C 450.919 314.659 452.275 316.054 454.084 316.054 Z  M 462.782 307.643 C 462.782 312.964 466.636 316.44 472.255 316.44 C 478.241 316.44 481.858 312.857 481.858 306.635 L 481.858 284.73 L 477.035 284.73 L 477.035 306.613 C 477.035 310.068 475.291 311.913 472.212 311.913 C 469.456 311.913 467.583 310.196 467.519 307.643 L 462.782 307.643 Z  M 488.166 307.364 C 488.511 312.9 493.14 316.44 500.029 316.44 C 507.393 316.44 512 312.728 512 306.807 C 512 302.151 509.373 299.576 503 298.096 L 499.577 297.259 C 495.529 296.315 493.893 295.049 493.893 292.84 C 493.893 290.05 496.434 288.227 500.244 288.227 C 503.862 288.227 506.359 290.008 506.811 292.861 L 511.505 292.861 C 511.225 287.648 506.617 283.979 500.309 283.979 C 493.527 283.979 489.006 287.648 489.006 293.161 C 489.006 297.71 491.568 300.413 497.187 301.722 L 501.192 302.687 C 505.304 303.653 507.113 305.069 507.113 307.429 C 507.113 310.175 504.271 312.17 500.395 312.17 C 496.24 312.17 493.355 310.304 492.946 307.364 L 488.166 307.364 Z " fill="rgb(0,0,0)"/></g></g></svg>