<?xml version="1.0" encoding="UTF-8" standalone="no"?><!-- Generator: Gravit.io --><svg xmlns="http://www.w3.org/2000/svg" xmlns:xlink="http://www.w3.org/1999/xlink" style="isolation:isolate" viewBox="0 0 512 512" width="512pt" height="512pt"><defs><clipPath id="_clipPath_ZStN37ZhVHMXm4EeiVPhhRz9zLC4MCSt"><rect width="512" height="512"/></clipPath></defs><g clip-path="url(#_clipPath_ZStN37ZhVHMXm4EeiVPhhRz9zLC4MCSt)"><path d=" M 239.234 0.138 C 238.133 0.238 234.629 0.588 231.476 0.838 C 158.755 7.394 90.639 46.626 47.496 106.926 C 23.473 140.454 8.108 178.486 2.302 218.769 C 0.25 232.831 0 236.984 0 256.05 C 0 275.116 0.25 279.269 2.302 293.331 C 16.216 389.461 84.633 470.228 177.423 500.153 C 194.039 505.507 211.557 509.16 231.476 511.362 C 239.234 512.213 272.766 512.213 280.524 511.362 C 314.908 507.559 344.036 499.052 372.764 484.39 C 377.168 482.138 378.019 481.537 377.419 481.037 C 377.018 480.737 358.25 455.566 335.728 425.14 L 294.788 369.845 L 243.488 293.932 C 215.26 252.197 192.038 218.069 191.837 218.069 C 191.637 218.019 191.437 251.747 191.337 292.931 C 191.187 365.041 191.137 367.943 190.236 369.644 C 188.935 372.096 187.934 373.097 185.831 374.198 C 184.23 374.999 182.829 375.149 175.271 375.149 L 166.613 375.149 L 164.31 373.698 C 162.809 372.747 161.708 371.496 160.957 370.045 L 159.906 367.793 L 160.006 267.46 L 160.156 167.076 L 161.708 165.125 C 162.509 164.074 164.21 162.723 165.412 162.072 C 167.464 161.071 168.264 160.971 176.923 160.971 C 187.133 160.971 188.834 161.372 191.487 164.274 C 192.238 165.075 220.015 206.909 253.247 257.301 C 286.48 307.693 331.924 376.5 354.246 410.278 L 394.786 471.679 L 396.838 470.328 C 415.005 458.518 434.224 441.704 449.439 424.19 C 481.821 387.009 502.691 341.671 509.698 293.331 C 511.75 279.269 512 275.116 512 256.05 C 512 236.984 511.75 232.831 509.698 218.769 C 495.784 122.639 427.367 41.872 334.577 11.948 C 318.211 6.643 300.794 2.99 281.275 0.788 C 276.47 0.288 243.388 -0.263 239.234 0.138 L 239.234 0.138 Z  M 344.036 154.966 C 346.438 156.167 348.39 158.469 349.091 160.871 C 349.491 162.172 349.591 189.995 349.491 252.697 L 349.341 342.672 L 333.476 318.352 L 317.56 294.032 L 317.56 228.627 C 317.56 186.342 317.76 162.573 318.061 161.422 C 318.861 158.619 320.613 156.417 323.015 155.116 C 325.067 154.066 325.818 153.965 333.676 153.965 C 341.083 153.965 342.384 154.066 344.036 154.966 Z " fill="rgb(0,0,0)"/></g></svg>