<?xml version="1.0" encoding="UTF-8" standalone="no"?><!-- Generator: Gravit.io --><svg xmlns="http://www.w3.org/2000/svg" xmlns:xlink="http://www.w3.org/1999/xlink" style="isolation:isolate" viewBox="0 0 512 512" width="512pt" height="512pt"><defs><clipPath id="_clipPath_rgp2ZehoMwKHUxedXweOA0ULNjbZGsq3"><rect width="512" height="512"/></clipPath></defs><g clip-path="url(#_clipPath_rgp2ZehoMwKHUxedXweOA0ULNjbZGsq3)"><clipPath id="_clipPath_7AroxvJSPttjzzYP8nE8TFqMFlMe2NU4"><rect x="0" y="0" width="512" height="512" transform="matrix(1,0,0,1,0,0)" fill="rgb(255,255,255)"/></clipPath><g clip-path="url(#_clipPath_7AroxvJSPttjzzYP8nE8TFqMFlMe2NU4)"><g><path d=" M 512 256.052 C 512 222.135 469.525 189.991 404.403 170.058 C 419.431 103.684 412.752 50.876 383.322 33.97 C 376.538 30.004 368.607 28.126 359.945 28.126 L 359.945 51.398 C 364.745 51.398 368.607 52.338 371.842 54.112 C 386.035 62.252 392.192 93.247 387.392 133.114 C 386.244 142.924 384.365 153.256 382.069 163.796 C 361.614 158.787 339.281 154.925 315.799 152.421 C 301.711 133.114 287.1 115.581 272.385 100.24 C 306.407 68.618 338.342 51.294 360.049 51.294 L 360.049 28.021 C 360.049 28.021 360.049 28.021 360.049 28.021 C 331.349 28.021 293.779 48.476 255.791 83.959 C 217.804 48.685 180.233 28.439 151.534 28.439 L 151.534 51.711 C 173.137 51.711 205.176 68.931 239.198 100.344 C 224.587 115.685 209.976 133.114 196.096 152.421 C 172.51 154.925 150.177 158.787 129.722 163.901 C 127.322 153.464 125.547 143.341 124.295 133.636 C 119.39 93.769 125.443 62.774 139.532 54.529 C 142.663 52.651 146.733 51.816 151.534 51.816 L 151.534 28.543 C 151.534 28.543 151.534 28.543 151.534 28.543 C 142.767 28.543 134.836 30.422 127.948 34.387 C 98.622 51.294 92.047 103.997 107.18 170.162 C 42.267 190.2 0 222.239 0 256.052 C 0 289.97 42.475 322.113 107.597 342.046 C 92.569 408.421 99.248 461.228 128.678 478.135 C 135.462 482.1 143.393 483.979 152.16 483.979 C 180.859 483.979 218.43 463.524 256.417 428.041 C 294.405 463.315 331.976 483.561 360.675 483.561 C 369.442 483.561 377.373 481.683 384.261 477.717 C 413.587 460.81 420.161 408.108 405.029 341.942 C 469.733 322.009 512 289.865 512 256.052 Z  M 376.121 186.443 C 372.259 199.905 367.459 213.786 362.032 227.666 C 357.753 219.317 353.265 210.968 348.36 202.619 C 343.56 194.27 338.446 186.13 333.332 178.198 C 348.152 180.39 362.449 183.103 376.121 186.443 Z  M 328.323 297.588 C 320.183 311.677 311.834 325.035 303.172 337.455 C 287.622 338.811 271.863 339.542 256 339.542 C 240.241 339.542 224.483 338.811 209.037 337.559 C 200.375 325.14 191.922 311.886 183.781 297.901 C 175.85 284.23 168.649 270.35 162.074 256.365 C 168.545 242.381 175.85 228.396 183.677 214.725 C 191.817 200.636 200.166 187.278 208.828 174.859 C 224.378 173.502 240.137 172.771 256 172.771 C 271.759 172.771 287.517 173.502 302.963 174.754 C 311.625 187.173 320.078 200.427 328.219 214.412 C 336.15 228.083 343.351 241.963 349.926 255.948 C 343.351 269.932 336.15 283.917 328.323 297.588 Z  M 362.032 284.021 C 367.667 298.006 372.468 311.99 376.434 325.557 C 362.762 328.897 348.36 331.715 333.437 333.906 C 338.55 325.87 343.664 317.626 348.465 309.172 C 353.265 300.823 357.753 292.37 362.032 284.021 Z  M 256.209 395.375 C 246.503 385.357 236.797 374.19 227.196 361.98 C 236.589 362.397 246.19 362.71 255.896 362.71 C 265.706 362.71 275.411 362.501 284.908 361.98 C 275.516 374.19 265.81 385.357 256.209 395.375 Z  M 178.563 333.906 C 163.744 331.715 149.446 329.001 135.775 325.662 C 139.636 312.199 144.437 298.319 149.864 284.439 C 154.143 292.788 158.63 301.137 163.535 309.486 C 168.44 317.834 173.45 325.975 178.563 333.906 Z  M 255.687 116.729 C 265.393 126.748 275.098 137.914 284.7 150.125 C 275.307 149.707 265.706 149.394 256 149.394 C 246.19 149.394 236.484 149.603 226.987 150.125 C 236.38 137.914 246.086 126.748 255.687 116.729 Z  M 178.459 178.198 C 173.345 186.234 168.232 194.479 163.431 202.932 C 158.63 211.281 154.143 219.63 149.864 227.979 C 144.228 213.994 139.428 200.01 135.462 186.443 C 149.133 183.208 163.535 180.39 178.459 178.198 Z  M 84.011 308.859 C 47.067 293.101 23.168 272.437 23.168 256.052 C 23.168 239.667 47.067 218.899 84.011 203.245 C 92.987 199.384 102.797 195.94 112.92 192.704 C 118.868 213.159 126.695 234.449 136.401 256.261 C 126.8 277.968 119.077 299.154 113.233 319.504 C 102.901 316.269 93.091 312.721 84.011 308.859 Z  M 140.158 457.993 C 125.965 449.852 119.808 418.857 124.608 378.991 C 125.756 369.181 127.635 358.849 129.931 348.308 C 150.386 353.318 172.719 357.179 196.201 359.684 C 210.289 378.991 224.9 396.523 239.615 411.865 C 205.593 443.486 173.658 460.81 151.951 460.81 C 147.255 460.706 143.289 459.767 140.158 457.993 Z  M 387.705 378.469 C 392.61 418.335 386.557 449.331 372.468 457.575 C 369.337 459.454 365.267 460.289 360.466 460.289 C 338.863 460.289 306.824 443.069 272.802 411.656 C 287.413 396.315 302.024 378.886 315.904 359.579 C 339.49 357.075 361.823 353.213 382.278 348.099 C 384.678 358.64 386.557 368.763 387.705 378.469 Z  M 427.884 308.859 C 418.909 312.721 409.099 316.165 398.976 319.4 C 393.027 298.945 385.2 277.655 375.494 255.843 C 385.096 234.136 392.819 212.951 398.663 192.6 C 408.995 195.835 418.805 199.384 427.989 203.245 C 464.933 219.004 488.832 239.667 488.832 256.052 C 488.727 272.437 464.828 293.205 427.884 308.859 Z " fill="rgb(97,218,251)"/><path d=" M 151.429 28.439 L 151.429 28.439 L 151.429 28.439 L 151.429 28.439 L 151.429 28.439 Z " fill="rgb(97,218,251)"/><circle vector-effect="non-scaling-stroke" cx="255.8956379942928" cy="256.0521810028536" r="47.693436608234805" fill="rgb(97,218,251)"/><path d=" M 359.84 28.126 L 359.84 28.126 L 359.84 28.126 L 359.84 28.126 L 359.84 28.126 Z " fill="rgb(97,218,251)"/></g></g></g></svg>