<?xml version="1.0" encoding="UTF-8" standalone="no"?><!-- Generator: Gravit.io --><svg xmlns="http://www.w3.org/2000/svg" xmlns:xlink="http://www.w3.org/1999/xlink" style="isolation:isolate" viewBox="0 0 512 512" width="512pt" height="512pt"><defs><clipPath id="_clipPath_iUEKKpCtuEg2mTavqe7qaJVQkUZO05ps"><rect width="512" height="512"/></clipPath></defs><g clip-path="url(#_clipPath_iUEKKpCtuEg2mTavqe7qaJVQkUZO05ps)"><path d=" M 441.553 67.731 C 394.269 -0.375 300.134 -20.33 232.462 22.616 L 113.167 98.965 C 80.632 119.354 58.075 152.756 51.568 190.496 C 45.928 222.164 50.7 254.699 65.883 282.896 C 55.472 298.512 48.531 315.864 45.495 334.084 C 38.554 372.692 47.664 412.601 70.221 444.269 C 117.939 512.375 211.639 532.33 279.312 489.384 L 398.607 413.469 C 431.141 393.08 453.699 359.678 460.206 321.937 C 465.845 290.27 461.074 257.735 445.891 229.538 C 456.302 213.922 463.243 196.57 466.279 178.35 C 473.654 139.308 464.544 99.399 441.553 67.731 Z " fill="rgb(255,62,0)"/><path d=" M 220.749 450.775 C 182.141 460.753 141.798 445.57 119.24 413.035 C 105.359 393.948 100.153 370.089 104.057 346.664 C 104.925 342.76 105.793 339.289 106.66 335.385 L 108.829 328.444 L 114.902 332.782 C 129.218 343.193 144.835 351.002 161.753 356.207 L 166.091 357.509 L 165.657 361.847 C 165.223 367.92 166.958 374.427 170.429 379.633 C 177.369 389.61 189.516 394.382 201.228 391.345 C 203.831 390.478 206.434 389.61 208.603 388.309 L 327.464 312.394 C 333.537 308.49 337.441 302.85 338.742 295.909 C 340.044 288.969 338.309 281.594 334.404 275.955 C 327.464 265.977 315.317 261.639 303.605 264.676 C 301.002 265.544 298.399 266.411 296.23 267.713 L 250.681 296.777 C 243.307 301.549 235.065 305.019 226.389 307.188 C 187.781 317.166 147.437 301.983 124.88 269.448 C 111.432 250.361 105.793 226.502 110.131 203.077 C 114.035 180.519 127.916 160.131 147.437 147.984 L 266.732 72.069 C 274.106 67.298 282.349 63.827 291.025 61.225 C 329.633 51.247 369.976 66.43 392.533 98.965 C 406.415 118.052 411.621 141.911 407.716 165.336 C 406.849 169.24 405.981 172.711 404.68 176.615 L 402.511 183.556 L 396.438 179.218 C 382.122 168.807 366.505 160.998 349.587 155.793 L 345.249 154.491 L 345.683 150.153 C 346.117 144.08 344.382 137.573 340.911 132.367 C 333.971 122.39 321.824 118.052 310.112 121.089 C 307.509 121.956 304.906 122.824 302.737 124.125 L 183.876 200.04 C 177.803 203.944 173.899 209.584 172.598 216.524 C 171.296 223.465 173.031 230.84 176.936 236.479 C 183.876 246.456 196.023 250.794 207.735 247.758 C 210.338 246.89 212.941 246.023 215.11 244.721 L 260.659 215.657 C 268.033 210.885 276.275 207.415 284.951 204.812 C 323.559 194.834 363.903 210.017 386.46 242.552 C 400.342 261.639 405.547 285.498 401.643 308.923 C 397.739 331.481 383.857 351.869 364.336 364.016 L 245.042 439.931 C 237.667 444.702 229.425 448.173 220.749 450.775 Z " fill="rgb(255,255,255)"/></g></svg>