<?xml version="1.0" encoding="UTF-8" standalone="no"?><!-- Generator: Gravit.io --><svg xmlns="http://www.w3.org/2000/svg" xmlns:xlink="http://www.w3.org/1999/xlink" style="isolation:isolate" viewBox="0 0 512 512" width="512pt" height="512pt"><defs><clipPath id="_clipPath_lr07scDsu2wftt6bbTvc7Cs2RFv0xOqT"><rect width="512" height="512"/></clipPath></defs><g clip-path="url(#_clipPath_lr07scDsu2wftt6bbTvc7Cs2RFv0xOqT)"><g><linearGradient id="_lgradient_23" x1="0.5000305616315621" y1="0.9700540218332685" x2="0.5000305616315622" y2="-0.0001944930317121507" gradientTransform="matrix(512,0,0,509.44,0,0)" gradientUnits="userSpaceOnUse"><stop offset="0%" stop-opacity="1" style="stop-color:rgb(0,98,224)"/><stop offset="100%" stop-opacity="1" style="stop-color:rgb(25,175,255)"/></linearGradient><path d=" M 213.76 509.44 C 92.16 487.68 0 382.72 0 256 C 0 115.2 115.2 0 256 0 C 396.8 0 512 115.2 512 256 C 512 382.72 419.84 487.68 298.24 509.44 L 284.16 497.92 L 227.84 497.92 L 213.76 509.44 Z " fill="url(#_lgradient_23)"/><path d=" M 355.84 327.68 L 367.36 256 L 299.52 256 L 299.52 206.08 C 299.52 185.6 307.2 170.24 337.92 170.24 L 371.2 170.24 L 371.2 104.96 C 353.28 102.4 332.8 99.84 314.88 99.84 C 256 99.84 215.04 135.68 215.04 199.68 L 215.04 256 L 151.04 256 L 151.04 327.68 L 215.04 327.68 L 215.04 508.16 C 229.12 510.72 243.2 512 257.28 512 C 271.36 512 285.44 510.72 299.52 508.16 L 299.52 327.68 L 355.84 327.68 Z " fill="rgb(255,255,255)"/></g></g></svg>