<?xml version="1.0" encoding="UTF-8" standalone="no"?>
<svg
   xmlns:dc="http://purl.org/dc/elements/1.1/"
   xmlns:cc="http://creativecommons.org/ns#"
   xmlns:rdf="http://www.w3.org/1999/02/22-rdf-syntax-ns#"
   xmlns:svg="http://www.w3.org/2000/svg"
   xmlns="http://www.w3.org/2000/svg"
   xmlns:sodipodi="http://sodipodi.sourceforge.net/DTD/sodipodi-0.dtd"
   xmlns:inkscape="http://www.inkscape.org/namespaces/inkscape"
   inkscape:version="1.0 (4035a4fb49, 2020-05-01)"
   sodipodi:docname="GIPHY Logo.svg"
   version="1.1"
   id="svg2"
   xml:space="preserve"
   width="400"
   height="122.57406"
   viewBox="0 0 400.00001 122.57406"><sodipodi:namedview
     fit-margin-bottom="0"
     fit-margin-right="0"
     fit-margin-left="0"
     fit-margin-top="0"
     inkscape:current-layer="svg2"
     inkscape:window-maximized="1"
     inkscape:window-y="-8"
     inkscape:window-x="-8"
     inkscape:cy="199.99999"
     inkscape:cx="652.66665"
     inkscape:zoom="0.84116447"
     showgrid="false"
     id="namedview20"
     inkscape:window-height="837"
     inkscape:window-width="1600"
     inkscape:pageshadow="2"
     inkscape:pageopacity="0"
     guidetolerance="10"
     gridtolerance="10"
     objecttolerance="10"
     borderopacity="1"
     bordercolor="#666666"
     pagecolor="#ffffff" /><metadata
     id="metadata8"><rdf:RDF><cc:Work
         rdf:about=""><dc:format>image/svg+xml</dc:format><dc:type
           rdf:resource="http://purl.org/dc/dcmitype/StillImage" /><dc:title></dc:title></cc:Work></rdf:RDF></metadata><defs
     id="defs6" /><path
     d="M 0,122.57406 H 400 V 0 H 0 Z"
     style="fill:#121119;fill-opacity:1;fill-rule:evenodd;stroke:none;stroke-width:0.0408579"
     id="path14" /><path
     d="M 37.997958,90.7048 H 29.826353 V 30.234934 h 8.171605 V 90.7048"
     style="fill:#00ff99;fill-opacity:1;fill-rule:evenodd;stroke:none;stroke-width:0.0408579"
     id="path16" /><path
     d="m 78.855976,90.7048 h 8.171602 V 46.578142 h -8.171602 z"
     style="fill:#9933ff;fill-opacity:1;fill-rule:evenodd;stroke:none;stroke-width:0.0408579"
     id="path18" /><path
     d="M 87.027578,97.242085 H 29.826353 V 89.07048 h 57.201225 v 8.171605"
     style="fill:#00ccff;fill-opacity:1;fill-rule:evenodd;stroke:none;stroke-width:0.0408579"
     id="path20" /><path
     d="M 29.826353,31.869255 H 62.512767 V 23.697651 H 29.826353 Z"
     style="fill:#fff35c;fill-opacity:1;fill-rule:evenodd;stroke:none;stroke-width:0.0408579"
     id="path22" /><path
     d="m 78.855976,40.040857 v -8.171602 h -8.171604 v -8.171604 h -8.171605 v 8.2239 0.01226 8.14709 0.01226 8.119306 h 8.180592 8.151993 8.182226 v -8.171605 h -8.171602"
     style="fill:#ff6666;fill-opacity:1;fill-rule:evenodd;stroke:none;stroke-width:0.0408579"
     id="path24" /><path
     d="m 62.512767,31.869255 h -8.182226 l 8.182226,-8.171604 v 8.171604"
     style="fill:#9f983d;fill-opacity:1;fill-rule:nonzero;stroke:none;stroke-width:0.0408579"
     id="path26" /><path
     d="m 78.855976,56.449846 v -8.237384 h 8.160981 l -8.160981,8.237384"
     style="fill:#62259f;fill-opacity:1;fill-rule:nonzero;stroke:none;stroke-width:0.0408579"
     id="path28" /><path
     d="m 152.56793,48.946681 c -4.16058,-3.915423 -9.21798,-4.9761 -13.05169,-4.9761 -9.29928,0 -15.33565,5.546887 -15.33565,16.722372 0,7.341367 3.74832,16.395913 15.24985,16.395913 3.01859,0 7.65843,-0.570787 10.92707,-2.936467 V 67.00715 H 136.0572 V 54.341165 h 27.78345 v 25.195098 c -3.26864,7.259571 -13.46721,11.175401 -24.47967,11.175401 -22.5953,0 -31.124,-15.090828 -31.124,-30.018711 0,-14.927887 9.80715,-30.263127 31.26088,-30.263127 7.91256,0 14.93687,1.63146 22.44126,9.217568 l -9.37119,9.299287"
     style="fill:#ffffff;fill-opacity:1;fill-rule:nonzero;stroke:none;stroke-width:0.0408579"
     id="path30" /><path
     d="M 172.01226,89.07048 V 31.869255 h 15.93463 V 89.07048 h -15.93463"
     style="fill:#ffffff;fill-opacity:1;fill-rule:nonzero;stroke:none;stroke-width:0.0408579"
     id="path32" /><path
     d="m 214.09602,60.061289 h 11.55097 c 4.48702,0 6.77058,-3.316447 6.77058,-7.068846 0,-3.751992 -2.36568,-7.231462 -6.77058,-7.231462 h -11.55097 z m 0,13.483143 V 89.07048 H 197.75281 V 31.869255 h 27.89418 c 15.33605,0 22.92216,9.621246 22.92216,20.79673 0,11.664966 -7.66782,20.878447 -22.92216,20.878447 h -11.55097"
     style="fill:#ffffff;fill-opacity:1;fill-rule:nonzero;stroke:none;stroke-width:0.0408579"
     id="path34" /><path
     d="M 291.31767,89.07048 V 67.824311 H 270.48008 V 89.07048 H 254.54546 V 32.277834 h 15.93462 v 21.654752 h 20.83759 V 32.277834 h 15.93462 V 89.07048 h -15.93462"
     style="fill:#ffffff;fill-opacity:1;fill-rule:nonzero;stroke:none;stroke-width:0.0408579"
     id="path36" /><path
     d="m 342.12666,51.446373 12.31707,-19.577118 h 18.18141 v 0.925842 l -22.47193,33.60817 V 89.07048 h -16.3432 V 66.403267 L 312.15525,32.71379 v -0.844535 h 18.14301 l 11.8284,19.577118"
     style="fill:#ffffff;fill-opacity:1;fill-rule:nonzero;stroke:none;stroke-width:0.0408579"
     id="path38" /></svg>
