<?xml version="1.0" encoding="UTF-8" standalone="no"?><!-- Generator: Gravit.io --><svg xmlns="http://www.w3.org/2000/svg" xmlns:xlink="http://www.w3.org/1999/xlink" style="isolation:isolate" viewBox="0 0 512 512" width="512pt" height="512pt"><defs><clipPath id="_clipPath_wOodQmQFirQ2fXWRR31m4iTXSRoPsyIu"><rect width="512" height="512"/></clipPath></defs><g clip-path="url(#_clipPath_wOodQmQFirQ2fXWRR31m4iTXSRoPsyIu)"><g><radialGradient id="_rgradient_0" fx="0.26562626583035587" fy="1.0770210600896997" cx="0.26562626583035587" cy="1.0770210600896997" r="1" gradientTransform="matrix(512,0,0,511.9,0,0.05)" gradientUnits="userSpaceOnUse"><stop offset="0%" stop-opacity="1" style="stop-color:rgb(255,221,85)"/><stop offset="10%" stop-opacity="1" style="stop-color:rgb(255,221,85)"/><stop offset="50%" stop-opacity="1" style="stop-color:rgb(255,84,62)"/><stop offset="100%" stop-opacity="1" style="stop-color:rgb(200,55,171)"/></radialGradient><path d=" M 256.084 0.05 C 149.206 0.05 117.948 0.16 111.872 0.664 C 89.939 2.488 76.291 5.941 61.422 13.345 C 49.964 19.035 40.926 25.631 32.008 34.878 C 15.764 51.741 5.92 72.486 2.357 97.146 C 0.624 109.118 0.12 111.559 0.018 172.709 C -0.022 193.092 0.018 219.918 0.018 255.9 C 0.018 362.699 0.136 393.927 0.648 399.992 C 2.42 421.336 5.767 434.765 12.854 449.454 C 26.4 477.571 52.271 498.679 82.749 506.555 C 93.302 509.272 104.958 510.769 119.921 511.477 C 126.261 511.753 190.879 511.95 255.536 511.95 C 320.194 511.95 384.851 511.871 391.033 511.556 C 408.359 510.741 418.42 509.39 429.544 506.516 C 460.219 498.6 485.617 477.807 499.439 449.296 C 506.389 434.962 509.913 421.021 511.508 400.791 C 511.854 396.381 512 326.059 512 255.833 C 512 185.594 511.842 115.403 511.496 110.992 C 509.882 90.436 506.357 76.613 499.183 62.003 C 493.296 50.043 486.759 41.112 477.269 31.98 C 460.333 15.802 439.621 5.957 414.939 2.397 C 402.98 0.668 400.598 0.156 339.406 0.05 L 256.084 0.05 Z " fill="url(#_rgradient_0)"/><radialGradient id="_rgradient_1" fx="-0.16750527401685208" fy="0.07203831539591782" cx="-0.16750527401685208" cy="0.07203831539591782" r="1" gradientTransform="matrix(512,0,0,511.9,0,0.05)" gradientUnits="userSpaceOnUse"><stop offset="0%" stop-opacity="1" style="stop-color:rgb(55,113,200)"/><stop offset="12.8%" stop-opacity="1" style="stop-color:rgb(55,113,200)"/><stop offset="100%" stop-opacity="0" style="stop-color:rgb(102,0,255)"/></radialGradient><path d=" M 256.084 0.05 C 149.206 0.05 117.948 0.16 111.872 0.664 C 89.939 2.488 76.291 5.941 61.422 13.345 C 49.964 19.035 40.926 25.631 32.008 34.878 C 15.764 51.741 5.92 72.486 2.357 97.146 C 0.624 109.118 0.12 111.559 0.018 172.709 C -0.022 193.092 0.018 219.918 0.018 255.9 C 0.018 362.699 0.136 393.927 0.648 399.992 C 2.42 421.336 5.767 434.765 12.854 449.454 C 26.4 477.571 52.271 498.679 82.749 506.555 C 93.302 509.272 104.958 510.769 119.921 511.477 C 126.261 511.753 190.879 511.95 255.536 511.95 C 320.194 511.95 384.851 511.871 391.033 511.556 C 408.359 510.741 418.42 509.39 429.544 506.516 C 460.219 498.6 485.617 477.807 499.439 449.296 C 506.389 434.962 509.913 421.021 511.508 400.791 C 511.854 396.381 512 326.059 512 255.833 C 512 185.594 511.842 115.403 511.496 110.992 C 509.882 90.436 506.357 76.613 499.183 62.003 C 493.296 50.043 486.759 41.112 477.269 31.98 C 460.333 15.802 439.621 5.957 414.939 2.397 C 402.98 0.668 400.598 0.156 339.406 0.05 L 256.084 0.05 Z " fill="url(#_rgradient_1)"/><path d=" M 255.965 66.996 C 204.633 66.996 198.191 67.221 178.03 68.138 C 157.908 69.06 144.174 72.246 132.156 76.92 C 119.724 81.748 109.179 88.207 98.673 98.717 C 88.159 109.224 81.702 119.77 76.858 132.198 C 72.172 144.221 68.983 157.961 68.077 178.076 C 67.175 198.239 66.939 204.686 66.939 256.022 C 66.939 307.358 67.167 313.781 68.081 333.943 C 69.006 354.067 72.192 367.803 76.862 379.821 C 81.694 392.254 88.152 402.8 98.661 413.306 C 109.163 423.821 119.708 430.295 132.132 435.123 C 144.158 439.797 157.896 442.983 178.014 443.905 C 198.175 444.822 204.614 445.047 255.942 445.047 C 307.278 445.047 313.7 444.822 333.861 443.905 C 353.983 442.983 367.734 439.797 379.76 435.123 C 392.187 430.295 402.716 423.821 413.218 413.306 C 423.732 402.8 430.19 392.254 435.033 379.825 C 439.68 367.803 442.869 354.063 443.814 333.947 C 444.72 313.785 444.956 307.358 444.956 256.022 C 444.956 204.686 444.72 198.243 443.814 178.08 C 442.869 157.957 439.68 144.221 435.033 132.202 C 430.19 119.77 423.732 109.224 413.218 98.717 C 402.705 88.203 392.191 81.744 379.748 76.92 C 367.698 72.246 353.956 69.06 333.834 68.138 C 313.673 67.221 307.254 66.996 255.906 66.996 L 255.965 66.996 Z  M 239.01 101.06 C 244.042 101.052 249.657 101.06 255.965 101.06 C 306.431 101.06 312.413 101.242 332.341 102.147 C 350.77 102.99 360.772 106.07 367.434 108.657 C 376.255 112.083 382.543 116.178 389.155 122.794 C 395.77 129.41 399.866 135.711 403.299 144.532 C 405.886 151.187 408.97 161.19 409.808 179.62 C 410.714 199.546 410.911 205.532 410.911 255.978 C 410.911 306.424 410.714 312.41 409.808 332.337 C 408.966 350.767 405.886 360.769 403.299 367.424 C 399.873 376.246 395.77 382.527 389.155 389.139 C 382.54 395.755 376.259 399.85 367.434 403.276 C 360.78 405.875 350.77 408.947 332.341 409.79 C 312.417 410.695 306.431 410.892 255.965 410.892 C 205.496 410.892 199.514 410.695 179.589 409.79 C 161.161 408.939 151.159 405.86 144.492 403.272 C 135.672 399.846 129.372 395.751 122.756 389.135 C 116.141 382.519 112.046 376.234 108.612 367.409 C 106.025 360.753 102.942 350.751 102.103 332.321 C 101.197 312.394 101.016 306.409 101.016 255.931 C 101.016 205.453 101.197 199.499 102.103 179.573 C 102.946 161.143 106.025 151.14 108.612 144.477 C 112.038 135.656 116.141 129.355 122.756 122.739 C 129.372 116.123 135.672 112.028 144.492 108.594 C 151.155 105.995 161.161 102.923 179.589 102.076 C 197.026 101.289 203.783 101.052 239.01 101.013 L 239.01 101.06 Z  M 356.858 132.446 C 344.336 132.446 334.176 142.595 334.176 155.122 C 334.176 167.644 344.336 177.805 356.858 177.805 C 369.38 177.805 379.539 167.644 379.539 155.122 C 379.539 142.599 369.38 132.439 356.858 132.439 L 356.858 132.446 Z  M 255.965 158.949 C 202.361 158.949 158.901 202.413 158.901 256.022 C 158.901 309.63 202.361 353.074 255.965 353.074 C 309.57 353.074 353.015 309.63 353.015 256.022 C 353.015 202.413 309.566 158.949 255.961 158.949 L 255.965 158.949 Z  M 255.965 193.013 C 290.759 193.013 318.969 221.221 318.969 256.022 C 318.969 290.818 290.759 319.03 255.965 319.03 C 221.168 319.03 192.962 290.818 192.962 256.022 C 192.962 221.221 221.168 193.013 255.965 193.013 Z " fill="rgb(255,255,255)"/></g></g></svg>