<?xml version="1.0" encoding="UTF-8" standalone="no"?><!-- Generator: Gravit.io --><svg xmlns="http://www.w3.org/2000/svg" xmlns:xlink="http://www.w3.org/1999/xlink" style="isolation:isolate" viewBox="0 0 512 512" width="512pt" height="512pt"><defs><clipPath id="_clipPath_Mmwjm6DnKUfBhrP8IigPoOa6E5s6aaN3"><rect width="512" height="512"/></clipPath></defs><g clip-path="url(#_clipPath_Mmwjm6DnKUfBhrP8IigPoOa6E5s6aaN3)"><g><radialGradient id="_rgradient_2" fx="0.1925" fy="0.9944661905237939" cx="0.1925" cy="0.9944661905237939" r="1" gradientTransform="matrix(511.955,0,0,512,0.023,0)" gradientUnits="userSpaceOnUse"><stop offset="0%" stop-opacity="1" style="stop-color:rgb(0,153,255)"/><stop offset="60.980000000000004%" stop-opacity="1" style="stop-color:rgb(160,51,255)"/><stop offset="93.47999999999999%" stop-opacity="1" style="stop-color:rgb(255,82,128)"/><stop offset="100%" stop-opacity="1" style="stop-color:rgb(255,112,97)"/></radialGradient><path d=" M 256 0 C 111.821 0 0.023 105.655 0.023 248.298 C 0.023 322.915 30.612 387.422 80.4 431.962 C 84.559 435.673 87.119 440.921 87.247 446.552 L 88.655 492.116 C 89.103 506.643 104.077 516.114 117.388 510.227 L 168.2 487.829 C 172.487 485.909 177.351 485.589 181.895 486.805 C 205.253 493.204 230.082 496.66 256 496.66 C 400.179 496.66 511.977 391.005 511.977 248.362 C 511.977 105.719 400.179 0 256 0 Z " fill="url(#_rgradient_2)"/><path d=" M 102.286 320.932 L 177.479 201.646 C 189.446 182.64 215.044 177.968 233.026 191.407 L 292.861 236.267 C 298.364 240.363 305.916 240.363 311.355 236.203 L 392.116 174.896 C 402.867 166.705 416.946 179.632 409.778 191.087 L 334.521 310.308 C 322.554 329.315 296.956 333.986 278.974 320.548 L 219.139 275.688 C 213.636 271.592 206.084 271.592 200.645 275.752 L 119.884 337.058 C 109.133 345.249 95.054 332.387 102.286 320.932 Z " fill="rgb(255,255,255)"/></g></g></svg>