<?xml version="1.0" encoding="UTF-8" standalone="no"?><!-- Generator: Gravit.io --><svg xmlns="http://www.w3.org/2000/svg" xmlns:xlink="http://www.w3.org/1999/xlink" style="isolation:isolate" viewBox="0 0 512 512" width="512pt" height="512pt"><defs><clipPath id="_clipPath_VgWvOCV8UEFUgZ8yrtfDZWKix7RdiJoR"><rect width="512" height="512"/></clipPath></defs><g clip-path="url(#_clipPath_VgWvOCV8UEFUgZ8yrtfDZWKix7RdiJoR)"><g><path d=" M 55.302 310.234 C 55.302 329.784 59.593 344.793 65.202 353.874 C 72.555 365.768 83.523 370.807 94.705 370.807 C 109.127 370.807 122.32 367.228 147.746 332.063 C 168.115 303.878 192.116 264.315 208.265 239.513 L 235.613 197.493 C 254.611 168.31 276.6 135.87 301.812 113.881 C 322.395 95.933 344.598 85.962 366.943 85.962 C 404.458 85.962 440.193 107.702 467.541 148.476 C 497.471 193.131 512 249.377 512 307.421 C 512 341.927 505.198 367.281 493.625 387.312 C 482.444 406.684 460.65 426.038 423.99 426.038 L 423.99 370.807 C 455.38 370.807 463.214 341.962 463.214 308.952 C 463.214 261.911 452.246 209.707 428.085 172.406 C 410.939 145.947 388.718 129.78 364.272 129.78 C 337.832 129.78 316.555 149.722 292.643 185.279 C 279.93 204.17 266.879 227.192 252.225 253.169 L 236.094 281.746 C 203.689 339.203 195.481 352.289 179.278 373.887 C 150.879 411.705 126.629 426.038 94.705 426.038 C 56.833 426.038 32.886 409.639 18.054 384.926 C 5.947 364.788 0 338.366 0 308.258 L 55.302 310.234 Z " fill="rgb(0,129,251)"/><linearGradient id="_lgradient_8" x1="0.13878435397422742" y1="0.6125654450261779" x2="0.8914357395370055" y2="0.6505781412667223" gradientTransform="matrix(468.396,0,0,340.075,43.604,85.962)" gradientUnits="userSpaceOnUse"><stop offset="0%" stop-opacity="1" style="stop-color:rgb(0,100,225)"/><stop offset="40%" stop-opacity="1" style="stop-color:rgb(0,100,225)"/><stop offset="83%" stop-opacity="1" style="stop-color:rgb(0,115,238)"/><stop offset="100%" stop-opacity="1" style="stop-color:rgb(0,130,251)"/></linearGradient><path d=" M 43.604 152.375 C 68.959 113.293 105.548 85.962 147.514 85.962 C 171.818 85.962 195.979 93.156 221.209 113.756 C 248.807 136.279 278.221 173.367 314.917 234.492 L 328.075 256.427 C 359.839 309.344 377.911 336.568 388.487 349.405 C 402.09 365.892 411.616 370.807 423.99 370.807 C 455.38 370.807 463.214 341.962 463.214 308.952 L 512 307.421 C 512 341.927 505.198 367.281 493.625 387.312 C 482.444 406.684 460.65 426.038 423.99 426.038 C 401.2 426.038 381.009 421.088 358.681 400.024 C 341.517 383.858 321.451 355.138 306.014 329.321 L 260.095 252.617 C 237.056 214.123 215.921 185.421 203.689 172.423 C 190.531 158.447 173.616 141.567 146.624 141.567 C 124.777 141.567 106.225 156.897 90.699 180.347 L 43.604 152.375 Z " fill="url(#_lgradient_8)"/><linearGradient id="_lgradient_9" x1="0.5431502715751357" y1="0.8278244297540348" x2="0.5431502715751357" y2="0.39306771484723957" gradientTransform="matrix(147.514,0,0,298.963,0,85.962)" gradientUnits="userSpaceOnUse"><stop offset="0%" stop-opacity="1" style="stop-color:rgb(0,130,251)"/><stop offset="100%" stop-opacity="1" style="stop-color:rgb(0,100,224)"/></linearGradient><path d=" M 146.624 141.567 C 124.777 141.567 106.225 156.897 90.699 180.347 C 68.745 213.482 55.302 262.837 55.302 310.234 C 55.302 329.784 59.593 344.793 65.202 353.874 L 18.054 384.926 C 5.947 364.788 0 338.366 0 308.258 C 0 253.507 15.027 196.442 43.604 152.375 C 68.959 113.293 105.548 85.962 147.514 85.962 L 146.624 141.567 Z " fill="url(#_lgradient_9)"/></g></g></svg>