<?xml version="1.0" encoding="UTF-8" standalone="no"?><!-- Generator: Gravit.io --><svg xmlns="http://www.w3.org/2000/svg" xmlns:xlink="http://www.w3.org/1999/xlink" style="isolation:isolate" viewBox="0 0 512 512" width="512pt" height="512pt"><defs><clipPath id="_clipPath_S3Ku8zyEz6YGMuLc67YFCT5weko4zCt5"><rect width="512" height="512"/></clipPath></defs><g clip-path="url(#_clipPath_S3Ku8zyEz6YGMuLc67YFCT5weko4zCt5)"><path d=" M 454.699 136.451 C 436.767 122.023 415.948 111.923 393.481 106.564 C 380.702 103.472 367.717 102.029 354.525 101.617 C 344.837 101.205 334.944 101.411 325.256 101.411 L 186.538 101.411 C 176.85 101.411 166.957 101.411 157.269 101.617 C 144.077 102.029 131.298 103.472 118.312 106.564 C 95.845 111.923 75.233 122.023 57.301 136.451 C 21.024 165.514 0 209.417 0 256 C 0 302.583 21.024 346.486 57.301 375.549 C 75.233 389.977 96.052 400.077 118.519 405.436 C 131.298 408.528 144.283 409.971 157.475 410.383 C 167.163 410.795 177.056 410.589 186.744 410.589 L 325.462 410.589 C 335.15 410.589 345.043 410.589 354.731 410.383 C 367.923 409.971 380.702 408.528 393.688 405.436 C 416.155 400.077 436.767 389.977 454.699 375.549 C 490.976 346.486 512 302.583 512 256 C 512 209.417 490.976 165.514 454.699 136.451 Z  M 386.886 297.636 C 380.084 302.377 372.457 305.262 364.419 306.499 C 356.38 307.736 348.135 307.53 340.097 307.53 L 172.11 307.53 C 163.865 307.53 155.826 307.736 147.787 306.499 C 139.543 305.262 132.122 302.377 125.32 297.636 C 111.717 288.155 103.472 272.696 103.472 256 C 103.472 239.304 111.717 223.845 125.32 214.364 C 132.122 209.623 139.749 206.738 147.787 205.501 C 155.826 204.264 164.071 204.47 172.11 204.47 L 340.097 204.47 C 348.341 204.47 356.38 204.264 364.419 205.501 C 372.663 206.738 380.084 209.623 386.886 214.364 C 400.49 223.845 408.734 239.304 408.734 256 C 408.94 272.696 400.696 288.155 386.886 297.636 Z " fill="rgb(28,30,32)"/></g></svg>