<svg width="543" height="150" viewBox="0 0 543 150" fill="none" xmlns="http://www.w3.org/2000/svg">
<path d="M318.732 144.979V132.446H316V130.445H318.732V128.619C318.732 126.895 319.17 125.583 320.046 124.682C320.923 123.782 322.135 123.331 323.684 123.331C324.599 123.331 325.402 123.433 326.094 123.638V125.698C325.732 125.598 325.364 125.525 324.991 125.478C324.664 125.44 324.335 125.42 324.005 125.42C322.028 125.42 321.04 126.433 321.04 128.458V130.445H325.992V132.446H321.04V144.979L318.732 144.979Z" fill="#67788A"/>
<path d="M329.236 144.98V130.445H331.544V132.972C332.002 132.057 332.586 131.354 333.297 130.862C334.008 130.37 334.831 130.124 335.766 130.124C336.198 130.122 336.629 130.166 337.051 130.255V132.564C336.827 132.534 336.586 132.51 336.328 132.49C336.07 132.471 335.819 132.461 335.576 132.461C334.514 132.461 333.655 132.785 332.998 133.433C332.34 134.08 331.856 134.945 331.544 136.025V144.98H329.236Z" fill="#67788A"/>
<path d="M346.046 145.301C344.595 145.301 343.339 144.975 342.277 144.322C341.221 143.675 340.368 142.744 339.816 141.635C339.236 140.495 338.947 139.19 338.947 137.72C338.947 136.24 339.236 134.93 339.816 133.79C340.368 132.681 341.221 131.75 342.277 131.103C343.338 130.45 344.595 130.124 346.046 130.124H346.338C347.789 130.124 349.045 130.45 350.107 131.103C351.163 131.75 352.016 132.681 352.568 133.79C353.147 134.93 353.437 136.24 353.437 137.72C353.437 139.19 353.148 140.495 352.568 141.635C352.016 142.744 351.164 143.675 350.107 144.322C349.045 144.975 347.789 145.301 346.338 145.301H346.046ZM346.061 143.168H346.323C347.774 143.168 348.924 142.672 349.771 141.679C350.618 140.685 351.042 139.366 351.042 137.72C351.042 136.065 350.618 134.743 349.771 133.754C348.924 132.766 347.775 132.271 346.323 132.271H346.061C344.609 132.271 343.46 132.765 342.613 133.754C341.766 134.742 341.342 136.064 341.342 137.72C341.342 139.366 341.766 140.685 342.613 141.679C343.46 142.672 344.61 143.169 346.061 143.169V143.168Z" fill="#67788A"/>
<path d="M356.78 144.98V130.445H359.088V133.148C359.614 132.213 360.286 131.475 361.104 130.934C361.922 130.394 362.872 130.124 363.952 130.124H364.245C366.66 130.124 368.213 131.283 368.904 133.6C369.46 132.529 370.183 131.682 371.074 131.059C371.965 130.436 372.99 130.124 374.149 130.124H374.456C376.092 130.124 377.34 130.672 378.202 131.767C379.064 132.863 379.495 134.428 379.495 136.463V144.98H377.187V136.799C377.187 133.781 376.082 132.271 373.871 132.271H373.608C372.566 132.271 371.67 132.617 370.921 133.308C370.171 134 369.625 134.876 369.284 135.938V144.98H366.976V136.799C366.976 133.781 365.876 132.271 363.675 132.271H363.398C362.355 132.271 361.462 132.617 360.717 133.308C359.972 134 359.429 134.876 359.088 135.938V144.98H356.78Z" fill="#67788A"/>
<path d="M448.897 120.963H454.532L464.113 138.295L473.694 120.963H479.207V149.442H474.61V127.615L466.208 142.729H461.896L453.495 127.615V149.442H448.897V120.963Z" fill="#4326C4"/>
<path d="M494.036 149.951C491.907 149.951 490.035 149.479 488.422 148.537C486.823 147.61 485.515 146.253 484.648 144.621C483.746 142.953 483.295 141.041 483.295 138.885C483.295 136.701 483.736 134.769 484.618 133.087C485.499 131.406 486.723 130.09 488.289 129.141C489.856 128.192 491.656 127.717 493.69 127.717C495.711 127.717 497.45 128.195 498.908 129.151C500.365 130.107 501.488 131.446 502.274 133.168C503.061 134.891 503.454 136.912 503.454 139.23V140.491H487.852C488.137 142.228 488.839 143.594 489.957 144.59C491.076 145.587 492.49 146.086 494.199 146.085C495.568 146.085 496.748 145.882 497.738 145.475C498.728 145.068 499.657 144.451 500.525 143.624L502.966 146.614C500.538 148.839 497.562 149.951 494.036 149.951ZM497.392 133.057C496.429 132.073 495.168 131.582 493.609 131.582C492.09 131.582 490.818 132.084 489.795 133.087C488.771 134.091 488.123 135.44 487.852 137.135H499.04C498.904 135.399 498.355 134.04 497.392 133.057Z" fill="#4326C4"/>
<path d="M509.029 131.989H504.797V128.226H509.029V122.001H513.463V128.226H519.891V131.989H513.463V141.529C513.463 143.116 513.734 144.248 514.277 144.926C514.819 145.604 515.748 145.943 517.064 145.943C517.559 145.948 518.055 145.924 518.549 145.872C518.955 145.825 519.403 145.76 519.891 145.679V149.401C519.334 149.562 518.766 149.685 518.192 149.768C517.536 149.864 516.873 149.912 516.209 149.91C511.422 149.91 509.028 147.293 509.029 142.058V131.989Z" fill="#4326C4"/>
<path d="M543 149.442H538.646V146.472C537.896 147.565 536.881 148.45 535.697 149.045C534.503 149.648 533.147 149.95 531.629 149.951C529.757 149.951 528.099 149.472 526.655 148.516C525.211 147.56 524.075 146.245 523.248 144.57C522.42 142.895 522.007 140.98 522.007 138.824C522.007 136.654 522.427 134.735 523.268 133.067C524.109 131.399 525.272 130.09 526.757 129.141C528.242 128.192 529.947 127.717 531.873 127.717C533.324 127.717 534.626 127.998 535.778 128.561C536.915 129.111 537.9 129.932 538.647 130.951V128.225H543L543 149.442ZM538.565 135.65C538.09 134.443 537.341 133.49 536.317 132.792C535.293 132.094 534.11 131.745 532.768 131.745C530.869 131.745 529.357 132.382 528.232 133.657C527.106 134.931 526.543 136.654 526.543 138.824C526.543 141.007 527.086 142.736 528.17 144.011C529.255 145.286 530.727 145.923 532.585 145.923C533.954 145.923 535.175 145.57 536.246 144.865C537.299 144.183 538.11 143.186 538.565 142.017V135.65Z" fill="#4326C4"/>
<path d="M426.685 120C422.988 120 420.099 122.784 417.483 126.321C413.888 121.744 410.881 120 407.284 120C399.949 120 394.329 129.546 394.329 139.649C394.329 145.972 397.387 149.96 402.511 149.96C406.198 149.96 408.85 148.221 413.565 139.98C413.565 139.98 415.53 136.509 416.882 134.119C417.356 134.884 417.855 135.708 418.379 136.591L420.59 140.311C424.896 147.517 427.296 149.96 431.644 149.96C436.635 149.96 439.413 145.917 439.413 139.463C439.413 128.885 433.666 120 426.685 120ZM409.97 137.749C406.147 143.74 404.825 145.083 402.697 145.083C400.507 145.083 399.205 143.161 399.205 139.732C399.205 132.397 402.862 124.897 407.222 124.897C409.582 124.897 411.555 126.26 414.577 130.587C411.708 134.988 409.97 137.749 409.97 137.749ZM424.396 136.994L421.753 132.586C421.037 131.422 420.35 130.351 419.69 129.373C422.073 125.696 424.038 123.864 426.375 123.864C431.231 123.864 435.115 131.013 435.115 139.794C435.115 143.141 434.019 145.083 431.747 145.083C429.57 145.083 428.53 143.646 424.396 136.994Z" fill="#4326C4"/>
<path d="M390.542 16.1323H380.032V74.2276H390.542V60.1554V16.1323ZM483.981 58.9669C482.968 63.1981 479.111 65.9555 474.145 65.9555C466.816 65.9555 462.815 60.3931 462.815 52.9767C462.815 45.5603 466.72 39.998 474 39.998C478.966 39.998 483.113 43.0406 483.884 47.2242L493.864 44.7046C491.791 36.3849 483.595 31.0602 473.711 31.0602C460.308 31.0602 451.87 40.8062 451.87 52.9292C451.87 65.0522 460.308 74.7981 473.711 74.7981C483.788 74.7981 491.598 69.3309 493.961 61.4391L483.981 58.9669ZM532.435 60.0604C531.326 64.1014 527.807 66.2883 522.455 66.2883C515.802 66.2883 511.366 61.9145 510.594 55.1161H542.319C542.415 54.2603 542.512 53.0243 542.512 51.598C542.512 41.5193 536.003 31.1553 521.587 31.1553C507.509 31.1553 500.518 41.6619 500.518 52.8816C500.518 64.0063 508.377 74.9407 522.455 74.9407C532.05 74.9407 539.523 70.1866 542.078 62.58L532.435 60.0604ZM521.587 38.857C527.807 38.857 531.567 42.898 532.001 48.2702H510.836C511.944 41.8996 515.705 38.857 521.587 38.857ZM328.54 89.8687H338.954V69.5686C341.365 72.8489 345.945 74.8932 351.152 74.8932C363.784 74.8932 371.884 65.9555 371.884 53.0243C371.884 40.0455 364.266 31.1553 351.923 31.1553C346.186 31.1553 341.509 33.5324 338.954 37.1455L336.977 31.8209H328.54V89.8687ZM349.947 65.9555C342.859 65.9555 338.231 60.821 338.231 52.9767C338.231 45.1324 342.859 39.998 349.947 39.998C356.841 39.998 361.47 45.1324 361.47 52.9767C361.47 60.821 356.841 65.9555 349.947 65.9555ZM420.338 74.8932C425.738 74.8932 430.656 72.6112 432.729 69.2358L434.706 74.1801H443.192V31.7734H434.706L432.729 36.575C430.27 33.2947 425.546 31.1078 420.194 31.1078C407.369 31.1078 399.896 40.0455 399.896 52.9767C399.896 65.9555 407.369 74.8932 420.338 74.8932ZM421.833 65.9555C414.939 65.9555 410.31 60.821 410.31 52.9767C410.31 45.1324 414.939 39.998 421.833 39.998C428.921 39.998 433.549 45.1324 433.549 52.9767C433.549 60.821 428.872 65.9555 421.833 65.9555ZM146.967 70.8522L155.983 45.6554L164.854 70.7571C166.783 76.2719 174.69 76.3194 176.715 70.8522L191.131 31.7734H180.717L170.688 61.344L161.961 35.434C160.033 29.6816 151.788 29.6816 149.86 35.434L141.133 61.344L131.201 31.7734H120.739L135.348 70.9473C137.324 76.2719 145.038 76.2244 146.967 70.8522ZM215.768 74.8457C228.834 74.8457 238.235 65.5751 238.235 52.9767C238.235 40.3308 228.834 31.1078 215.768 31.1078C202.606 31.1078 193.252 40.3783 193.252 52.9767C193.252 65.5751 202.606 74.8457 215.768 74.8457ZM215.768 65.9079C208.584 65.9079 203.811 60.5833 203.811 52.9292C203.811 45.275 208.584 39.9505 215.768 39.9505C222.855 39.9505 227.628 45.275 227.628 52.9292C227.628 60.6308 222.855 65.9079 215.768 65.9079ZM272.805 41.1865V31.3455C271.792 31.2029 270.731 31.1553 269.671 31.1553C263.933 31.1553 259.257 33.5324 256.701 37.1455L254.725 31.8209H246.287V74.2276H256.701V53.0243C256.701 48.4603 257.955 44.657 261.089 42.4226C263.741 40.4734 267.598 39.8078 272.805 41.1865ZM291.029 16.1323H280.519V74.2276H291.029V60.1554V16.1323ZM320.343 31.7734H308.193L296.815 46.8439C294.019 50.5046 294.115 55.5915 296.96 59.2046L308.917 74.2276H321.79L303.806 52.6915L320.343 31.7734Z" fill="#4326C4"/>
<path d="M99.538 46.5575C99.538 20.8263 78.6728 0 52.9805 0C45.8567 0 38.8887 1.40139 32.3878 4.20418C26.0426 6.89019 20.3981 10.7051 15.5321 15.5711C10.6662 20.3981 6.85131 26.0815 4.1653 32.3878C1.40143 38.9276 0 45.8568 0 53.0195C0 60.1821 1.40143 67.1113 4.1653 73.6511C6.85131 79.9574 10.6662 85.6019 15.5321 90.4679C20.3981 95.3338 26.0815 99.1487 32.3878 101.835C38.8887 104.599 45.8568 106 53.0195 106C59.9097 106 66.4885 104.676 72.5223 102.302L68.5127 92.1807C63.7246 94.0881 58.5083 95.1392 53.0195 95.1392C41.7694 95.1392 31.1811 90.7403 23.2399 82.7991C15.2986 74.8579 10.8997 64.2695 10.8997 53.0195C10.8997 41.7694 15.2986 31.181 23.2399 23.2398C31.22 15.2986 41.7694 10.8997 53.0195 10.8997C72.7169 10.8997 88.6772 26.8601 88.6772 46.5575C88.6772 53.798 86.4973 60.5714 82.7602 66.2159L73.4954 43.4043C72.1329 40.0566 70.498 35.0349 64.3474 35.0349C58.1969 35.0349 56.5619 40.0955 55.2384 43.4043L46.7132 64.4642L35.2685 35.5799H23.2399L37.4873 70.6926C38.9277 74.235 40.5237 79.0621 46.7132 79.0621C52.9027 79.0621 54.4598 74.235 55.9001 70.6926L64.3474 49.8274L72.8337 70.6926C74.5465 75.0136 76.3761 79.0621 82.0206 79.0621C86.0301 79.0621 88.5604 76.4928 89.9618 74.8189C95.9567 66.9945 99.538 57.1847 99.538 46.5575Z" fill="#4326C4"/>
</svg>
