<?xml version="1.0" encoding="UTF-8" standalone="no"?><!-- Generator: Gravit.io --><svg xmlns="http://www.w3.org/2000/svg" xmlns:xlink="http://www.w3.org/1999/xlink" style="isolation:isolate" viewBox="0 0 512 512" width="512pt" height="512pt"><defs><clipPath id="_clipPath_xWkjg2wGGTofnehdWeKMzo7Z4URQBQol"><rect width="512" height="512"/></clipPath></defs><g clip-path="url(#_clipPath_xWkjg2wGGTofnehdWeKMzo7Z4URQBQol)"><path d=" M 496.394 224.882 C 496.394 100.595 395.611 0 271.512 0 C 237.103 0 203.446 6.769 172.046 20.307 C 141.397 33.281 114.133 51.708 90.629 75.211 C 67.126 98.527 48.699 125.979 35.726 156.439 C 22.376 188.028 15.606 221.497 15.606 256.094 C 15.606 290.691 22.376 324.16 35.726 355.749 C 48.699 386.209 67.126 413.473 90.629 436.977 C 114.133 460.48 141.585 478.907 172.046 491.882 C 203.446 505.233 237.103 512 271.701 512 C 304.981 512 336.758 505.605 365.903 494.138 L 346.536 445.25 C 323.408 454.463 298.212 459.54 271.701 459.54 C 217.36 459.54 166.217 438.293 127.859 399.935 C 89.501 361.578 68.254 310.434 68.254 256.094 C 68.254 201.754 89.501 150.61 127.859 112.253 C 166.405 73.895 217.36 52.648 271.701 52.648 C 366.843 52.648 443.934 129.739 443.934 224.882 C 443.934 259.854 433.405 292.571 415.354 319.835 L 370.603 209.651 C 364.022 193.481 356.125 169.225 326.416 169.225 C 296.708 169.225 288.811 193.669 282.418 209.651 L 241.24 311.374 L 185.96 171.858 L 127.859 171.858 L 196.677 341.459 C 203.634 358.569 211.343 381.885 241.24 381.885 C 271.136 381.885 278.657 358.569 285.614 341.459 L 326.416 240.676 L 367.407 341.459 C 375.68 362.33 384.517 381.885 411.781 381.885 C 431.148 381.885 443.37 369.475 450.139 361.389 C 479.095 323.596 496.394 276.213 496.394 224.882 Z " fill="rgb(67,38,196)"/></g></svg>