<?xml version="1.0" encoding="UTF-8" standalone="no"?><!-- Generator: Gravit.io --><svg xmlns="http://www.w3.org/2000/svg" xmlns:xlink="http://www.w3.org/1999/xlink" style="isolation:isolate" viewBox="0 0 512 512" width="512pt" height="512pt"><defs><clipPath id="_clipPath_ESO6aebqRNhUL9i88OzhbUu2OlZxILQn"><rect width="512" height="512"/></clipPath></defs><g clip-path="url(#_clipPath_ESO6aebqRNhUL9i88OzhbUu2OlZxILQn)"><g><path d=" M 255.999 0 C 114.686 0 0.128 114.617 0.128 256.002 C 0.128 385.812 96.702 493.04 221.885 509.731 L 221.885 458.146 C 221.885 443.6 212.716 430.529 198.934 425.902 C 126.707 401.625 75.036 332.555 76.939 251.681 C 79.256 153.226 159.417 75.815 257.846 76.808 C 355.916 77.8 435.111 157.648 435.111 256.002 C 435.111 258.243 435.056 260.474 434.974 262.692 C 434.954 263.189 434.938 263.691 434.918 264.189 C 434.824 266.251 434.698 268.308 434.536 270.352 C 434.489 271.003 434.422 271.652 434.363 272.302 C 434.237 273.729 434.091 275.148 433.93 276.563 C 433.749 278.171 433.54 279.769 433.315 281.36 C 433.217 282.088 433.119 282.817 433.008 283.539 C 411.079 428.063 222.937 509.291 221.905 509.735 C 233.062 511.22 244.44 512 255.999 512 C 397.314 512 511.872 397.386 511.872 256.002 C 511.872 114.617 397.314 0 255.999 0 Z " fill-rule="evenodd" fill="rgb(95,202,244)"/><clipPath id="_clipPath_PgFETGzhFL5l880IQ6E7JR9avevpCxDS"><path d=" M 255.999 0 C 114.686 0 0.128 114.617 0.128 256.002 C 0.128 385.812 96.702 493.04 221.885 509.731 L 221.885 458.146 C 221.885 443.6 212.716 430.529 198.934 425.902 C 126.707 401.625 75.036 332.555 76.939 251.681 C 79.256 153.226 159.417 75.815 257.846 76.808 C 355.916 77.8 435.111 157.648 435.111 256.002 C 435.111 258.243 435.056 260.474 434.974 262.692 C 434.954 263.189 434.938 263.691 434.918 264.189 C 434.824 266.251 434.698 268.308 434.536 270.352 C 434.489 271.003 434.422 271.652 434.363 272.302 C 434.237 273.729 434.091 275.148 433.93 276.563 C 433.749 278.171 433.54 279.769 433.315 281.36 C 433.217 282.088 433.119 282.817 433.008 283.539 C 411.079 428.063 222.937 509.291 221.905 509.735 C 233.062 511.22 244.44 512 255.999 512 C 397.314 512 511.872 397.386 511.872 256.002 C 511.872 114.617 397.314 0 255.999 0 Z " fill="rgb(255,255,255)"/></clipPath><g clip-path="url(#_clipPath_PgFETGzhFL5l880IQ6E7JR9avevpCxDS)"><g><path d=" M -38.721 550.849 L 550.721 550.849 L 550.721 -38.849 L -38.721 -38.849 L -38.721 550.849 Z " fill="rgb(95,202,244)"/></g></g></g></g></svg>