<?xml version="1.0" encoding="UTF-8" standalone="no"?><!-- Generator: Gravit.io --><svg xmlns="http://www.w3.org/2000/svg" xmlns:xlink="http://www.w3.org/1999/xlink" style="isolation:isolate" viewBox="0 0 512 512" width="512pt" height="512pt"><defs><clipPath id="_clipPath_iCFJGNyeMX7SwKCPpfKUwtC3gTBw6cfH"><rect width="512" height="512"/></clipPath></defs><g clip-path="url(#_clipPath_iCFJGNyeMX7SwKCPpfKUwtC3gTBw6cfH)"><g><path d=" M 468.074 166.044 L 461.26 165.929 L 256.144 105.203 L 256.022 102.392 L 256.022 0 L 468.089 106.054 L 468.074 166.044 Z " fill="rgb(217,167,65)"/><path d=" M 256 108.53 L 256.022 0 L 43.94 106.013 L 43.911 405.944 L 44.017 405.997 L 44.017 406 L 255.978 512 L 256.683 511.021 L 256.409 410.161 L 255.993 409.599 L 242.744 400.151 L 78.707 351.272 L 79.536 161.552 L 256 108.53 Z " fill="rgb(135,105,41)"/><path d=" M 287.716 323.597 L 71.004 354.084 L 71.019 157.873 L 287.73 188.401 L 287.716 323.597 Z " fill="rgb(217,167,65)"/><path d=" M 177.898 311.195 L 255.993 321.137 L 256.007 190.805 L 177.913 200.739 L 177.898 311.195 Z " fill="rgb(135,105,41)"/><path d=" M 99.228 301.184 L 149.909 307.626 L 149.924 204.294 L 99.228 210.751 L 99.228 301.184 Z " fill="rgb(135,105,41)"/><path d=" M 71.019 157.873 L 256.022 102.392 L 468.074 166.044 L 287.865 188.416 L 71.019 157.873 Z " fill="rgb(98,74,30)"/><path d=" M 467.968 293.902 L 255.993 320.653 L 256.007 190.805 L 467.968 217.807 L 467.968 293.902 Z " fill="rgb(217,167,65)"/><path d=" M 467.953 346.026 L 463.391 346.223 L 256.645 408.806 L 255.993 409.599 L 255.978 512 L 467.953 406.037 L 467.953 346.026 Z " fill="rgb(217,167,65)"/><path d=" M 71.004 354.084 L 255.993 409.599 L 467.953 346.026 L 287.716 323.597 L 71.004 354.084 Z " fill="rgb(250,215,145)"/></g></g></svg>