<?xml version="1.0" encoding="UTF-8" standalone="no"?><!-- Generator: Gravit.io --><svg xmlns="http://www.w3.org/2000/svg" xmlns:xlink="http://www.w3.org/1999/xlink" style="isolation:isolate" viewBox="0 0 512 512" width="512pt" height="512pt"><defs><clipPath id="_clipPath_FPLOnKLOXwbgVBAHOpenbY8HyASkRxLt"><rect width="512" height="512"/></clipPath></defs><g clip-path="url(#_clipPath_FPLOnKLOXwbgVBAHOpenbY8HyASkRxLt)"><g><path d=" M 197.862 463.176 L 145.097 448.388 L 95.191 391.482 L 157.615 389.759 L 197.862 463.176 Z " fill="rgb(153,91,128)"/><path d=" M 75.846 425.648 L 46.153 417.332 L 18.091 385.325 L 52.19 379.718 L 75.846 425.648 Z " fill="rgb(153,91,128)"/><path d=" M 0.491 381.301 L 30.841 387.471 L 35.246 379.722 L 35.246 116.782 L 30.841 111.669 L 0.491 128.952 L 0.491 381.301 Z " fill="rgb(123,63,101)"/><path d=" M 148.073 139.149 L 30.849 111.669 L 30.849 387.471 L 48.411 385.838 L 75.846 425.648 L 97.006 381.323 L 148.073 376.576 L 148.073 139.149 Z " fill="rgb(193,123,157)"/><path d=" M 68.277 395.506 L 120.303 405.986 L 123.728 397.911 L 123.728 74.736 L 120.303 67.42 L 68.277 93.786 L 68.277 395.506 Z " fill="rgb(123,63,101)"/><path d=" M 417.158 162.719 L 120.303 67.42 L 120.303 405.994 L 154.679 401.57 L 197.862 463.176 L 232.048 391.613 L 417.158 367.793 L 417.158 162.719 Z " fill="rgb(193,123,157)"/><path d=" M 363.459 512 L 288.472 490.99 L 217.59 410.146 L 309.479 409.212 L 363.459 512 Z " fill="rgb(153,91,128)"/><path d=" M 179.329 417.098 L 255.842 431.904 L 261.785 426.782 L 261.785 8.218 L 255.842 0 L 179.329 38.243 L 179.329 417.098 Z " fill="rgb(123,63,101)"/><path d=" M 511.509 127.82 L 255.85 0 L 255.85 431.904 L 300.958 422.865 L 363.459 512 L 417.158 399.598 L 417.124 399.594 L 511.509 380.684 L 511.509 127.82 Z " fill="rgb(193,123,157)"/></g></g></svg>