<?xml version="1.0" encoding="UTF-8" standalone="no"?><!-- Generator: Gravit.io --><svg xmlns="http://www.w3.org/2000/svg" xmlns:xlink="http://www.w3.org/1999/xlink" style="isolation:isolate" viewBox="0 0 512 512" width="512pt" height="512pt"><defs><clipPath id="_clipPath_t5lLqzNNXoWqLxWjtH5XqqRI20Awlm0w"><rect width="512" height="512"/></clipPath></defs><g clip-path="url(#_clipPath_t5lLqzNNXoWqLxWjtH5XqqRI20Awlm0w)"><g><path d=" M 482.27 352.319 L 256.076 319.09 L 29.73 352.361 L 256.018 436.221 L 482.27 352.319 Z " fill="rgb(183,202,157)"/><path d=" M 75.021 348.444 L 113.257 360.395 L 116.741 356.439 L 116.741 88.889 L 113.257 84.319 L 75.021 98.945 L 75.021 348.444 Z " fill="rgb(75,97,44)"/><path d=" M 248.632 336.618 L 113.257 360.395 L 113.257 84.326 L 248.632 114.77 L 248.632 336.618 Z " fill="rgb(117,156,62)"/><path d=" M 188.271 383.403 L 135.508 367.138 L 135.508 26.389 L 188.271 0.007 L 192.888 5.036 L 192.888 377.778 L 188.271 383.403 Z " fill="rgb(75,97,44)"/><path d=" M 369.077 340.986 L 188.271 383.403 L 188.271 0 L 369.077 70.473 L 369.077 340.986 Z " fill="rgb(117,156,62)"/><path d=" M 255.938 432.59 L 29.73 352.361 L 29.73 398.895 L 255.938 512 L 255.938 432.59 Z " fill="rgb(75,97,44)"/><path d=" M 482.27 398.84 L 255.938 512 L 255.938 432.59 L 482.27 352.319 L 482.27 398.84 Z " fill="rgb(117,156,62)"/><path d=" M 418.701 275.222 L 363.855 275.222 L 207.507 285.875 L 256 294.814 L 418.701 275.222 Z " fill="rgb(183,202,157)"/><path d=" M 207.507 388.736 L 255.979 403.277 L 257.374 401.776 L 257.333 292.444 L 255.938 291.104 L 207.507 285.875 L 207.507 388.736 Z " fill="rgb(75,97,44)"/><path d=" M 418.701 275.222 L 255.938 291.097 L 255.979 403.277 L 418.701 354.291 L 418.701 275.222 Z " fill="rgb(117,156,62)"/></g></g></svg>