<?xml version="1.0" encoding="UTF-8" standalone="no"?><!-- Generator: Gravit.io --><svg xmlns="http://www.w3.org/2000/svg" xmlns:xlink="http://www.w3.org/1999/xlink" style="isolation:isolate" viewBox="0 0 512 512" width="512pt" height="512pt"><defs><clipPath id="_clipPath_IzlZeYE6SX8V8Jcgrahq6ucz47CNJfFl"><rect width="512" height="512"/></clipPath></defs><g clip-path="url(#_clipPath_IzlZeYE6SX8V8Jcgrahq6ucz47CNJfFl)"><g><path d=" M 144.203 173.181 L 122.261 180.345 L 144.986 182.977 L 144.203 173.181 Z " fill="rgb(60,73,41)"/><path d=" M 143.111 216.078 L 256 223.296 L 368.889 216.078 L 256 194.078 L 143.111 216.078 Z " fill="rgb(60,73,41)"/><path d=" M 367.275 182.977 L 389.739 180.345 L 367.275 174.357 L 367.275 182.977 Z " fill="rgb(60,73,41)"/><path d=" M 286.705 368.752 L 345.848 382.749 L 286.548 400.632 L 286.705 368.752 Z " fill="rgb(183,202,157)"/><path d=" M 143.111 96.356 L 143.111 56.441 L 256 0 L 256.504 0.423 L 256.244 51.093 L 256 51.2 L 255.577 52.367 L 193.829 77.293 L 193.263 165.097 L 226.125 159.57 L 256 153.593 L 256 512 L 222.18 495.098 L 222.18 447.275 L 192.555 435.428 L 192.555 211.129 L 143.111 216.078 L 143.111 176.171 L 122.261 180.345 L 122.261 104.69 L 143.111 96.356 Z " fill="rgb(75,97,44)"/><path d=" M 226.126 159.574 L 192.555 166.286 L 192.555 76.565 L 226.126 87.033 L 226.126 159.574 Z " fill="rgb(117,156,62)"/><path d=" M 314.432 29.213 L 368.874 56.441 L 368.874 96.356 L 389.739 104.69 L 389.739 180.338 L 368.874 176.171 L 368.874 216.078 L 342.293 213.426 L 319.431 211.129 L 319.431 255.993 L 368.889 255.993 L 368.889 297.038 L 345.906 299.1 L 345.906 340.487 L 289.807 351.638 L 289.807 399.46 L 345.778 382.848 L 345.906 425.038 L 289.807 447.275 L 289.807 495.098 L 256 512 L 256 153.593 L 285.853 159.559 L 317.807 163.778 L 317.807 77.282 L 256.854 53.776 L 256 51.2 L 256 0 L 314.432 29.213 Z " fill="rgb(117,156,62)"/><path d=" M 289.807 64.718 L 256 51.207 L 192.555 76.565 L 226.126 87.033 L 289.807 64.718 Z " fill="rgb(60,73,41)"/><path d=" M 192.555 76.565 L 256 51.207 L 269.348 56.54 L 289.807 64.718 L 319.431 76.58 L 317.848 78.19 L 287.677 87.584 L 285.859 87.033 L 256 76.565 L 226.126 87.033 L 192.555 76.565 Z " fill="rgb(60,73,41)"/><path d=" M 285.859 87.033 L 319.431 76.58 L 319.431 166.294 L 285.859 159.559 L 285.859 87.033 Z " fill="rgb(75,97,44)"/></g></g></svg>