<?xml version="1.0" encoding="UTF-8" standalone="no"?><!-- Generator: Gravit.io --><svg xmlns="http://www.w3.org/2000/svg" xmlns:xlink="http://www.w3.org/1999/xlink" style="isolation:isolate" viewBox="0 0 512 512" width="512pt" height="512pt"><defs><clipPath id="_clipPath_maOc3bPIrTs4xOXzTn9XrcYrsgCdO9JT"><rect width="512" height="512"/></clipPath></defs><g clip-path="url(#_clipPath_maOc3bPIrTs4xOXzTn9XrcYrsgCdO9JT)"><g><path d=" M 322.121 512 L 328.347 512 L 429.968 461.184 L 431.659 458.793 L 431.659 53.177 L 429.968 50.774 L 328.347 0 L 322.045 0 L 322.121 512 Z " fill="rgb(82,148,207)"/><path d=" M 189.877 512 L 183.564 512 L 82.031 461.184 L 79.97 457.639 L 78.925 55.243 L 82.031 50.774 L 183.564 0 L 189.955 0 L 189.877 512 Z " fill="rgb(31,91,152)"/><path d=" M 183.743 0 L 328.249 0 L 328.249 512 L 183.743 512 L 183.743 0 Z " fill="rgb(45,114,184)"/><path d=" M 483.16 244.497 L 479.726 243.736 L 430.695 239.164 L 429.968 239.526 L 328.257 235.459 L 183.743 235.459 L 82.031 239.526 L 82.031 161.965 L 81.924 162.022 L 82.031 161.795 L 183.743 138.227 L 328.257 138.227 L 429.968 161.795 L 467.359 181.67 L 467.359 168.892 L 483.16 167.163 L 481.524 163.973 L 431.492 128.197 L 429.968 128.692 L 328.257 97.175 L 183.743 97.175 L 82.031 128.692 L 82.031 50.774 L 28.84 113.089 L 28.84 167.511 L 29.251 167.213 L 44.641 168.892 L 44.641 181.932 L 28.84 190.389 L 28.84 244.54 L 29.251 244.497 L 44.641 244.725 L 44.641 267.453 L 31.363 267.652 L 28.84 267.41 L 28.84 321.583 L 44.641 330.08 L 44.641 343.271 L 29.502 344.943 L 28.84 344.446 L 28.84 398.86 L 82.031 461.184 L 82.031 383.273 L 183.743 414.79 L 328.257 414.79 L 430.268 383.181 L 431.623 383.775 L 480.997 348.526 L 483.16 345.014 L 467.359 343.271 L 467.359 330.344 L 465.287 329.517 L 431.492 347.735 L 430.268 350.29 L 328.257 373.721 L 328.257 373.75 L 183.743 373.75 L 183.743 373.721 L 82.031 350.191 L 82.031 272.346 L 183.743 276.399 L 183.743 276.499 L 328.257 276.499 L 429.968 272.346 L 432.284 273.411 L 479.808 269.318 L 483.16 267.68 L 467.359 267.453 L 467.359 244.725 L 483.16 244.497 Z " fill="rgb(26,71,111)"/><path d=" M 429.968 383.273 L 429.968 461.184 L 483.16 398.86 L 483.16 344.801 L 430.275 383.181 L 429.968 383.273 Z " fill="rgb(45,114,184)"/><path d=" M 429.968 350.361 L 430.275 350.29 L 483.16 321.845 L 483.16 267.453 L 429.968 272.346 L 429.968 350.361 Z " fill="rgb(45,114,184)"/><path d=" M 430.275 161.866 L 429.968 161.795 L 429.968 239.526 L 483.16 244.497 L 483.16 190.131 L 430.275 161.866 Z " fill="rgb(45,114,184)"/><path d=" M 430.275 128.997 L 483.16 167.163 L 483.16 113.103 L 429.968 50.774 L 429.968 128.692 L 430.275 128.798 L 430.275 128.997 Z " fill="rgb(45,114,184)"/></g></g></svg>