<?xml version="1.0" encoding="UTF-8" standalone="no"?><!-- Generator: Gravit.io --><svg xmlns="http://www.w3.org/2000/svg" xmlns:xlink="http://www.w3.org/1999/xlink" style="isolation:isolate" viewBox="0 0 512 512" width="512pt" height="512pt"><defs><clipPath id="_clipPath_NSsfCOO46bRkqFEnQvD9XYxesFAiqzIh"><rect width="512" height="512"/></clipPath></defs><g clip-path="url(#_clipPath_NSsfCOO46bRkqFEnQvD9XYxesFAiqzIh)"><g><path d=" M 72.8 354.098 L 76.375 358.156 L 256.956 409.344 L 257.774 377.614 L 131.303 345.877 L 125.114 343.644 L 72.8 354.098 Z " fill="rgb(183,202,157)"/><path d=" M 439.193 354.098 L 254.768 415.658 L 254.219 377.614 L 380.689 345.877 L 386.201 339.673 L 439.193 354.098 Z " fill="rgb(183,202,157)"/><path d=" M 254.219 136.633 L 380.689 166.109 L 436.31 163.47 L 439.193 157.896 L 262.982 94.468 L 254.219 136.633 Z " fill="rgb(60,73,41)"/><path d=" M 131.303 345.877 L 72.8 354.098 L 71.172 348.024 L 71.172 164.292 L 72.8 157.896 L 125.663 161.827 L 131.303 166.115 L 131.303 345.877 Z " fill="rgb(117,156,62)"/><path d=" M 257.774 136.633 L 131.303 166.109 L 72.8 157.896 L 75.005 154.434 L 256.956 102.649 L 257.774 136.633 Z " fill="rgb(60,73,41)"/><path d=" M 255.747 0 L 45.707 106.019 L 45.807 406.037 L 255.747 512 L 258.875 507.25 L 258.875 6.161 L 255.747 0 L 255.747 0 Z  M 194.328 390.57 L 72.8 354.098 L 72.8 157.896 L 194.328 121.436 L 194.328 390.57 L 194.328 390.57 Z " fill="rgb(75,97,44)"/><path d=" M 380.689 345.877 L 439.193 354.098 L 442.471 348.298 L 442.471 163.47 L 439.193 157.896 L 380.689 166.115 L 380.689 345.877 Z " fill="rgb(75,97,44)"/><path d=" M 255.747 512 L 466.193 406.043 L 466.293 106.027 L 255.747 0 L 255.747 512 L 255.747 512 Z  M 317.664 121.436 L 439.193 157.896 L 439.193 354.098 L 317.664 390.57 L 317.664 121.436 L 317.664 121.436 Z " fill="rgb(117,156,62)"/></g></g></svg>