<?xml version="1.0" encoding="UTF-8" standalone="no"?><!-- Generator: Gravit.io --><svg xmlns="http://www.w3.org/2000/svg" xmlns:xlink="http://www.w3.org/1999/xlink" style="isolation:isolate" viewBox="0 0 512 512" width="512pt" height="512pt"><defs><clipPath id="_clipPath_fHvlPqyRzWimickTlt7eGbIEkSFg4ZIV"><rect width="512" height="512"/></clipPath></defs><g clip-path="url(#_clipPath_fHvlPqyRzWimickTlt7eGbIEkSFg4ZIV)"><g><path d=" M 466.964 263.407 L 468.295 256.264 L 434.079 256.264 L 375.383 426.821 L 408.824 435.847 L 411.851 432.001 L 466.964 263.407 Z " fill="rgb(75,97,44)"/><path d=" M 468.295 256.264 L 468.295 406.371 L 408.683 436.196 L 468.295 256.264 Z " fill="rgb(117,156,62)"/><path d=" M 99.555 430.518 L 45.036 263.407 L 43.705 256.264 L 76.741 256.264 L 135.934 427.009 L 103.189 435.847 L 99.555 430.518 Z " fill="rgb(117,156,62)"/><path d=" M 256.007 360.378 L 167.111 242.667 L 104.177 76.068 L 256.007 117.242 L 258.37 122.964 L 259.556 349.926 L 256.007 360.378 Z " fill="rgb(117,156,62)"/><path d=" M 256.007 360.378 L 348 239.555 L 407.829 76.068 L 256.007 117.242 L 256.007 360.378 Z " fill="rgb(75,97,44)"/><path d=" M 468.295 167.083 L 468.295 105.834 L 407.829 76.068 L 256.007 360.378 L 256.007 512 L 368.313 455.851 L 468.295 167.083 Z " fill="rgb(117,156,62)"/><path d=" M 256.007 256.264 L 256.6 254.879 L 256.813 0.755 L 256.007 0 L 144.064 56.086 L 256.007 256.264 Z " fill="rgb(75,97,44)"/><path d=" M 43.705 256.264 L 43.705 406.371 L 103.325 436.196 L 43.705 256.264 Z " fill="rgb(75,97,44)"/><path d=" M 256.007 256.264 L 256.007 0 L 367.943 56.086 L 256.007 256.264 Z " fill="rgb(117,156,62)"/><path d=" M 43.705 167.083 L 43.705 105.834 L 104.177 76.068 L 256.007 360.378 L 256.007 512 L 143.701 455.851 L 43.705 167.083 Z " fill="rgb(75,97,44)"/></g></g></svg>