<?xml version="1.0" encoding="UTF-8" standalone="no"?><!-- Generator: Gravit.io --><svg xmlns="http://www.w3.org/2000/svg" xmlns:xlink="http://www.w3.org/1999/xlink" style="isolation:isolate" viewBox="0 0 512 512" width="512pt" height="512pt"><defs><clipPath id="_clipPath_EIicwUjqJKERfr7LrMKkeTwxoJshXmg0"><rect width="512" height="512"/></clipPath></defs><g clip-path="url(#_clipPath_EIicwUjqJKERfr7LrMKkeTwxoJshXmg0)"><g><path d=" M 28.842 398.843 L 82.032 461.179 L 86.815 455.498 L 86.815 56.79 L 82.032 50.764 L 28.842 113.077 L 28.842 398.843 Z " fill="rgb(26,71,111)"/><path d=" M 82.04 461.179 L 183.675 511.993 L 187.902 505.191 L 187.971 5.324 L 183.746 0 L 82.04 50.651 L 82.04 461.179 Z " fill="rgb(31,91,152)"/><path d=" M 483.158 113.077 L 429.953 50.764 L 424.003 52.649 L 425.185 456.091 L 429.953 461.179 L 483.158 398.85 L 483.158 113.077 Z " fill="rgb(45,114,184)"/><path d=" M 328.318 511.993 L 429.953 461.179 L 429.953 50.651 L 328.247 0 L 323.438 6.508 L 323.507 504.598 L 328.318 511.993 Z " fill="rgb(82,148,207)"/><path d=" M 183.746 0 L 328.247 0 L 328.247 512 L 183.746 512 L 183.746 0 Z " fill="rgb(45,114,184)"/></g></g></svg>