<?xml version="1.0" encoding="UTF-8" standalone="no"?><!-- Generator: Gravit.io --><svg xmlns="http://www.w3.org/2000/svg" xmlns:xlink="http://www.w3.org/1999/xlink" style="isolation:isolate" viewBox="0 0 512 512" width="512pt" height="512pt"><defs><clipPath id="_clipPath_azsLvHpYXJ99YMx5OHGgO9r1QvHBhZPD"><rect width="512" height="512"/></clipPath></defs><g clip-path="url(#_clipPath_azsLvHpYXJ99YMx5OHGgO9r1QvHBhZPD)"><g><path d=" M 78.329 88.832 L 44.203 105.899 L 44.203 405.426 L 78.329 422.393 L 78.534 422.147 L 78.534 89.067 L 78.329 88.832 Z " fill="rgb(140,49,35)"/><path d=" M 260.964 378.919 L 78.329 422.393 L 78.329 88.832 L 260.964 131.359 L 260.964 378.919 Z " fill="rgb(224,82,67)"/><path d=" M 178.525 310.855 L 255.993 320.717 L 256.48 319.595 L 256.915 192.567 L 255.993 191.574 L 178.525 201.293 L 178.525 310.855 Z " fill="rgb(140,49,35)"/><path d=" M 255.993 379.407 L 433.657 422.486 L 433.936 422.041 L 433.931 89.13 L 433.65 88.832 L 255.993 131.847 L 255.993 379.407 Z " fill="rgb(140,49,35)"/><path d=" M 333.483 310.855 L 255.993 320.717 L 255.993 191.574 L 333.483 201.293 L 333.483 310.855 Z " fill="rgb(224,82,67)"/><path d=" M 333.483 148.309 L 255.993 162.432 L 178.525 148.309 L 255.896 128.03 L 333.483 148.309 Z " fill="rgb(94,31,24)"/><path d=" M 333.483 363.697 L 255.993 349.482 L 178.525 363.697 L 255.899 385.296 L 333.483 363.697 Z " fill="rgb(242,176,169)"/><path d=" M 178.525 148.309 L 255.993 129.138 L 256.62 128.945 L 256.62 0.518 L 255.993 0 L 178.525 38.741 L 178.525 148.309 Z " fill="rgb(140,49,35)"/><path d=" M 333.483 148.309 L 255.993 129.138 L 255.993 0 L 333.483 38.741 L 333.483 148.309 Z " fill="rgb(224,82,67)"/><path d=" M 255.993 512 L 178.517 473.273 L 178.517 363.706 L 255.993 382.87 L 257.133 384.165 L 256.824 509.765 L 255.993 512 Z " fill="rgb(140,49,35)"/><path d=" M 255.993 512 L 333.476 473.273 L 333.476 363.706 L 255.993 382.87 L 255.993 512 Z " fill="rgb(224,82,67)"/><path d=" M 433.657 88.832 L 467.797 105.899 L 467.797 405.426 L 433.657 422.486 L 433.657 88.832 Z " fill="rgb(224,82,67)"/></g></g></svg>