<?xml version="1.0" encoding="UTF-8" standalone="no"?><!-- Generator: Gravit.io --><svg xmlns="http://www.w3.org/2000/svg" xmlns:xlink="http://www.w3.org/1999/xlink" style="isolation:isolate" viewBox="0 0 512 512" width="512pt" height="512pt"><defs><clipPath id="_clipPath_wHeCaq6nBgjneJNncPslSXxdpOj19EjT"><rect width="512" height="512"/></clipPath></defs><g clip-path="url(#_clipPath_wHeCaq6nBgjneJNncPslSXxdpOj19EjT)"><g><path d=" M 44.117 285.825 L 45.747 286.687 L 71.389 289.602 L 103.593 287.813 L 105.01 287.068 L 76.427 284.582 L 44.117 285.825 Z " fill="rgb(182,201,156)"/><path d=" M 256 0 L 166.525 44.737 L 166.525 331.95 L 256 348.366 L 259.062 344.227 L 259.062 7.368 L 256 0 Z " fill="rgb(76,97,44)"/><path d=" M 256 0 L 256 360.367 L 345.476 333.648 L 345.476 44.737 L 256 0 Z " fill="rgb(118,155,63)"/><path d=" M 406.99 287.067 L 408.516 288.098 L 440.529 289.876 L 466.445 286.931 L 467.883 285.824 L 435.573 284.583 L 406.99 287.067 Z " fill="rgb(182,201,156)"/><path d=" M 406.99 346.718 L 440.544 351.068 L 441.443 349.416 L 441.443 290.822 L 440.544 288.932 L 406.99 287.068 L 406.99 346.718 Z " fill="rgb(76,97,44)"/><path d=" M 105.01 346.718 L 71.456 351.068 L 70.89 349.535 L 70.89 289.942 L 71.456 288.932 L 105.01 287.068 L 105.01 346.718 Z " fill="rgb(118,155,63)"/><path d=" M 252.272 344.232 L 103.767 318.136 L 71.456 321.241 L 72.926 322.716 L 213.999 351.296 L 215.611 350.447 L 252.272 344.232 Z " fill="rgb(182,201,156)"/><path d=" M 44.117 315.651 L 44.117 405.747 L 192.622 480.218 L 192.622 480.31 L 256 512 L 258.649 507.029 L 258.649 310.294 L 256 304.091 L 192.622 297.879 L 192.622 345.7 L 71.457 321.183 L 71.457 288.932 L 44.117 285.825 L 44.117 315.651 Z " fill="rgb(76,97,44)"/><path d=" M 256 344.854 L 292.038 351.068 L 296.68 351.263 L 437.855 322.909 L 440.544 321.242 L 408.854 318.135 L 256 344.854 Z " fill="rgb(182,201,156)"/><path d=" M 440.543 288.931 L 440.543 321.182 L 319.379 345.699 L 319.379 295.766 L 256 301.98 L 256 507.028 L 256 511.999 L 467.883 405.746 L 467.883 285.824 L 440.543 288.931 Z " fill="rgb(118,155,63)"/><path d=" M 319.379 300.737 L 256.001 295.766 L 192.621 300.737 L 256.001 306.952 L 319.379 300.737 Z " fill="rgb(182,201,156)"/></g></g></svg>