<?xml version="1.0" encoding="UTF-8" standalone="no"?><!-- Generator: Gravit.io --><svg xmlns="http://www.w3.org/2000/svg" xmlns:xlink="http://www.w3.org/1999/xlink" style="isolation:isolate" viewBox="0 0 512 512" width="512pt" height="512pt"><defs><clipPath id="_clipPath_MaRCRT6Iaz73tsWNoNz8yOCmk1GMsOYl"><rect width="512" height="512"/></clipPath></defs><g clip-path="url(#_clipPath_MaRCRT6Iaz73tsWNoNz8yOCmk1GMsOYl)"><g><path d=" M 140.337 81.635 L 36.487 246.969 L 140.337 412.331 L 142.148 411.04 L 140.819 81.974 L 140.337 81.635 Z " fill="rgb(135,105,41)"/><path d=" M 256.321 382.613 L 140.337 412.331 L 140.337 81.635 L 256.321 111.346 L 256.321 382.613 Z " fill="rgb(217,167,65)"/><path d=" M 475.477 123.25 L 419.57 132.495 L 291.222 0 L 227.414 27.94 L 235.831 43.637 L 190.671 61.688 L 190.671 479.154 L 256.319 512 L 257.411 511.144 L 256.401 82.005 L 395.555 292.888 L 475.477 123.25 Z " fill="rgb(135,105,41)"/><path d=" M 291.222 0 L 462.165 85.468 L 394.567 208.12 L 291.222 0 Z " fill="rgb(217,167,65)"/><path d=" M 475.47 123.25 L 475.513 402.319 L 256.321 512 L 256.292 35.47 L 394.567 286.351 L 475.47 123.25 Z " fill="rgb(217,167,65)"/></g></g></svg>