<?xml version="1.0" encoding="UTF-8" standalone="no"?><!-- Generator: Gravit.io --><svg xmlns="http://www.w3.org/2000/svg" xmlns:xlink="http://www.w3.org/1999/xlink" style="isolation:isolate" viewBox="0 0 512 512" width="512pt" height="512pt"><defs><clipPath id="_clipPath_YwcCcCgfaopS415ShKWgN1OBsiuo2wch"><rect width="512" height="512"/></clipPath></defs><g clip-path="url(#_clipPath_YwcCcCgfaopS415ShKWgN1OBsiuo2wch)"><g><path d=" M 394.464 99.556 L 438.653 88.177 L 438.982 88.663 L 440.098 355.479 L 438.653 356.929 L 429.548 357.319 L 394.982 351.938 L 394.464 350.577 L 394.464 99.556 Z " fill="rgb(122,62,101)"/><path d=" M 138.896 375.465 L 139.059 375.477 L 255.703 409.371 L 256 409.599 L 256.508 410.004 L 256.343 511.568 L 256 512 L 138.896 455.11 L 138.896 375.465 Z " fill="rgb(122,62,101)"/><path d=" M 394.464 350.577 L 256.192 383.691 L 186.768 366.933 L 138.896 375.465 L 256 409.599 L 436.736 360.667 L 438.653 356.929 L 394.464 350.577 Z " fill="rgb(207,178,193)"/><path d=" M 373.104 136.533 L 371.978 135.249 L 257.259 101.915 L 256 102.401 L 254.848 101.813 L 74.333 153.865 L 73.347 155.071 L 74.796 155.864 L 116.077 161.917 L 117.536 161.422 L 255.808 128.309 L 325.232 145.067 L 373.104 136.533 Z " fill="rgb(81,40,67)"/><path d=" M 117.536 412.444 L 73.347 423.111 L 73.27 422.856 L 71.53 157.036 L 73.347 155.071 L 117.536 161.422 L 117.536 412.444 Z " fill="rgb(193,123,158)"/><path d=" M 177.193 309.333 L 256 318.577 L 256.592 317.694 L 256.912 194.431 L 256 193.421 L 177.193 202.667 L 177.193 309.333 Z " fill="rgb(122,62,101)"/><path d=" M 334.807 309.333 L 256 318.577 L 256 193.421 L 334.807 202.667 L 334.807 309.333 Z " fill="rgb(193,123,158)"/><path d=" M 373.104 136.533 L 256 102.401 L 256 0 L 373.104 56.888 L 373.104 136.533 Z " fill="rgb(193,123,158)"/><path d=" M 256 0 L 36.521 105.955 L 36.521 406.043 L 73.347 423.111 L 73.347 155.071 L 256 102.401 L 256 0 Z " fill="rgb(122,62,101)"/><path d=" M 438.653 88.177 L 438.653 356.929 L 256 409.599 L 256 512 L 475.479 406.043 L 475.479 105.955 L 438.653 88.177 Z " fill="rgb(193,123,158)"/></g></g></svg>