<?xml version="1.0" encoding="UTF-8" standalone="no"?><!-- Generator: Gravit.io --><svg xmlns="http://www.w3.org/2000/svg" xmlns:xlink="http://www.w3.org/1999/xlink" style="isolation:isolate" viewBox="0 0 512 512" width="512pt" height="512pt"><defs><clipPath id="_clipPath_AUJl0XqjnEnYPSWYrsKG3tnSn9ybTyZN"><rect width="512" height="512"/></clipPath></defs><g clip-path="url(#_clipPath_AUJl0XqjnEnYPSWYrsKG3tnSn9ybTyZN)"><g><path d=" M 256.007 379.905 L 433.894 423.051 L 434.041 422.762 L 434.07 89.238 L 433.909 88.951 L 256.007 132.023 L 256.007 379.905 Z " fill="rgb(140,49,35)"/><path d=" M 433.894 88.951 L 468.08 106.04 L 468.08 405.975 L 433.894 423.051 L 433.894 88.951 Z " fill="rgb(224,82,67)"/><path d=" M 256.007 379.905 L 78.106 422.958 L 78.066 422.867 L 78.056 89.026 L 78.106 88.951 L 256.007 132.023 L 256.007 379.905 Z " fill="rgb(224,82,67)"/><path d=" M 78.106 88.951 L 43.92 106.04 L 43.92 405.975 L 78.106 422.958 L 78.106 88.951 Z " fill="rgb(140,49,35)"/><path d=" M 256.007 512 L 256.744 511.072 L 256.142 0.123 L 256.007 0 L 178.413 38.792 L 178.413 473.214 L 256.007 512 Z " fill="rgb(140,49,35)"/><path d=" M 256.007 512 L 256.007 0 L 333.587 38.792 L 333.587 473.214 L 256.007 512 Z " fill="rgb(224,82,67)"/></g></g></svg>