<?xml version="1.0" encoding="UTF-8" standalone="no"?><!-- Generator: Gravit.io --><svg xmlns="http://www.w3.org/2000/svg" xmlns:xlink="http://www.w3.org/1999/xlink" style="isolation:isolate" viewBox="0 0 512 512" width="512pt" height="512pt"><defs><clipPath id="_clipPath_4ZBce3eylqPJGiy0iJcpvMuwBMIEm8i8"><rect width="512" height="512"/></clipPath></defs><g clip-path="url(#_clipPath_4ZBce3eylqPJGiy0iJcpvMuwBMIEm8i8)"><g><path d=" M 103.821 433.777 L 44.089 405.333 L 44.089 105.955 L 103.821 76.089 L 104.038 76.399 L 104.436 433.172 L 103.821 433.777 Z " fill="rgb(75,97,44)"/><path d=" M 322.845 374.755 L 103.821 433.777 L 103.821 76.089 L 322.845 135.822 L 322.845 374.755 Z " fill="rgb(117,156,62)"/><path d=" M 142.934 205.511 L 256 191.289 L 258.76 193.7 L 258.76 315.107 L 256 319.289 L 142.934 305.778 L 142.934 205.511 Z " fill="rgb(75,97,44)"/><path d=" M 467.911 181.333 L 364.8 192 L 142.934 156.445 L 254.621 120.028 L 467.911 181.333 Z " fill="rgb(60,73,41)"/><path d=" M 467.911 330.665 L 364.8 320 L 142.934 355.555 L 262.899 386.021 L 467.911 330.665 Z " fill="rgb(183,202,157)"/><path d=" M 142.934 455.11 L 256 512 L 260.78 385.238 L 142.934 355.555 L 142.934 455.11 Z " fill="rgb(75,97,44)"/><path d=" M 467.911 406.045 L 256 512 L 256 383.999 L 467.911 330.665 L 467.911 406.045 Z " fill="rgb(117,156,62)"/><path d=" M 142.934 56.178 L 256 0 L 256.819 1.156 L 256.472 127.219 L 256 127.999 L 142.934 156.445 L 142.934 56.178 Z " fill="rgb(75,97,44)"/><path d=" M 467.911 292.977 L 256 319.289 L 256 191.289 L 467.911 218.311 L 467.911 292.977 Z " fill="rgb(117,156,62)"/><path d=" M 467.911 181.333 L 256 127.999 L 256 0 L 467.911 105.955 L 467.911 181.333 Z " fill="rgb(117,156,62)"/></g></g></svg>