<?xml version="1.0" encoding="UTF-8" standalone="no"?><!-- Generator: Gravit.io --><svg xmlns="http://www.w3.org/2000/svg" xmlns:xlink="http://www.w3.org/1999/xlink" style="isolation:isolate" viewBox="0 0 512 512" width="512pt" height="512pt"><defs><clipPath id="_clipPath_MStHdvkhlklwCRL75jI4a22uNhFCCyri"><rect width="512" height="512"/></clipPath></defs><g clip-path="url(#_clipPath_MStHdvkhlklwCRL75jI4a22uNhFCCyri)"><g><path d=" M 468.075 226.005 L 365.099 230.272 L 298.347 226.014 L 408.758 215.432 L 468.075 226.005 Z " fill="rgb(99,75,30)"/><path d=" M 408.52 220.054 L 468.075 226.005 L 468.075 106.041 L 408.52 76.259 L 403.947 81.196 L 403.947 214.949 L 408.52 220.054 Z " fill="rgb(217,167,64)"/><path d=" M 298.347 105.971 L 408.52 76.153 L 408.52 220.054 L 298.347 226.014 L 298.347 105.971 Z " fill="rgb(136,106,42)"/><path d=" M 43.925 226.005 L 146.901 230.272 L 213.653 226.014 L 103.556 214.222 L 43.925 226.005 Z " fill="rgb(99,75,30)"/><path d=" M 103.48 220.054 L 43.925 225.828 L 43.925 105.501 L 103.48 75.769 L 106.222 80.89 L 106.222 215.559 L 103.48 220.054 Z " fill="rgb(136,106,42)"/><path d=" M 213.653 105.971 L 103.48 76.153 L 103.48 220.054 L 213.653 226.014 L 213.653 105.971 Z " fill="rgb(217,167,64)"/><path d=" M 468.075 288.044 L 365.099 283.776 L 298.347 288.036 L 408.278 299.148 L 468.075 288.044 Z " fill="rgb(250,215,145)"/><path d=" M 408.52 293.995 L 468.075 288.044 L 468.075 408.007 L 408.52 437.789 L 405.392 430.977 L 405.392 300.116 L 408.52 293.995 Z " fill="rgb(217,167,64)"/><path d=" M 298.347 408.078 L 408.52 437.896 L 408.52 293.995 L 298.347 288.036 L 298.347 408.078 Z " fill="rgb(136,106,42)"/><path d=" M 43.925 288.044 L 146.901 283.776 L 213.653 288.036 L 102.759 300.111 L 43.925 288.044 Z " fill="rgb(250,215,145)"/><path d=" M 103.48 293.995 L 43.925 288.044 L 43.925 408.007 L 103.48 437.789 L 107.09 432.421 L 107.09 300.111 L 103.48 293.995 Z " fill="rgb(136,106,42)"/><path d=" M 213.653 408.078 L 103.48 437.896 L 103.48 293.995 L 213.653 288.036 L 213.653 408.078 Z " fill="rgb(217,167,64)"/><path d=" M 202.241 175.616 L 256.86 166.038 L 365.903 181.478 L 375.295 186.881 L 322.333 192.677 L 202.241 175.616 Z " fill="rgb(99,75,30)"/><path d=" M 309.759 175.616 L 255.14 166.038 L 141.402 183.687 L 136.705 186.881 L 189.667 192.677 L 309.759 175.616 Z " fill="rgb(99,75,30)"/><path d=" M 202.241 338.433 L 256.86 348.011 L 365.628 332.802 L 375.295 327.169 L 322.333 321.373 L 202.241 338.433 Z " fill="rgb(250,215,145)"/><path d=" M 309.759 338.433 L 255.14 348.011 L 140.573 331.697 L 136.705 327.169 L 189.667 321.373 L 309.759 338.433 Z " fill="rgb(250,215,145)"/><path d=" M 375.295 186.881 L 375.295 127.588 L 319.439 109.321 L 319.439 31.715 L 256 0 L 256 0.002 L 253.354 4.215 L 252.872 505.553 L 256 512 L 319.439 480.285 L 319.439 404.728 L 375.295 386.462 L 375.295 327.169 L 319.439 337.002 L 319.439 177.048 L 375.295 186.881 Z " fill="rgb(217,167,64)"/><path d=" M 192.561 31.715 L 192.561 109.321 L 136.705 127.588 L 136.705 186.881 L 192.561 177.048 L 192.561 337.002 L 136.705 327.169 L 136.705 386.462 L 192.561 404.728 L 192.561 480.285 L 256 512 L 256 0 L 192.561 31.715 Z " fill="rgb(136,106,42)"/></g></g></svg>