<?xml version="1.0" encoding="UTF-8" standalone="no"?><!-- Generator: Gravit.io --><svg xmlns="http://www.w3.org/2000/svg" xmlns:xlink="http://www.w3.org/1999/xlink" style="isolation:isolate" viewBox="0 0 512 512" width="512pt" height="512pt"><defs><clipPath id="_clipPath_s7DrTQVb4esfH7kkl70lxypds3eIbcIQ"><rect width="512" height="512"/></clipPath></defs><g clip-path="url(#_clipPath_s7DrTQVb4esfH7kkl70lxypds3eIbcIQ)"><g><path d=" M 43.382 285.848 L 255.591 383.536 L 467.797 285.848 L 255.591 277.056 L 43.382 285.848 Z " fill="rgb(252,191,146)"/><path d=" M 256.243 0 L 43.48 106.111 L 43.48 255.834 L 298.602 255.834 L 298.602 21.18 L 256.243 0 Z " fill="rgb(157,80,37)"/><path d=" M 43.48 361.382 L 256.368 512 L 468.617 361.382 L 255.908 330.431 L 43.48 361.382 Z " fill="rgb(252,191,146)"/><path d=" M 256.243 255.833 L 368.494 255.833 L 368.494 96.07 L 335.716 82.959 L 256.243 106.139 L 256.243 255.833 Z " fill="rgb(157,80,37)"/><path d=" M 335.715 255.833 L 422.478 255.833 L 422.478 152.207 L 397.66 144.764 L 335.715 155.279 L 335.715 255.833 Z " fill="rgb(157,80,37)"/><path d=" M 397.66 136.64 L 397.66 255.834 L 467.797 255.834 L 468.618 136.11 L 447.313 127.599 L 397.66 136.64 Z " fill="rgb(157,80,37)"/><path d=" M 256.243 0 L 256.243 255.834 L 298.602 255.834 L 298.602 21.18 L 256.243 0 Z " fill="rgb(246,133,52)"/><path d=" M 368.494 96.07 L 335.716 82.958 L 335.716 255.834 L 368.494 255.834 L 368.494 96.07 Z " fill="rgb(246,133,52)"/><path d=" M 422.479 152.208 L 397.661 144.764 L 397.661 255.834 L 422.479 255.834 L 422.479 152.208 Z " fill="rgb(246,133,52)"/><path d=" M 447.312 255.834 L 468.617 255.834 L 468.617 136.11 L 447.312 127.599 L 447.312 255.834 Z " fill="rgb(246,133,52)"/><path d=" M 255.592 307.071 L 255.592 383.535 L 467.797 330.64 L 467.797 285.849 L 255.592 307.071 Z " fill="rgb(246,133,52)"/><path d=" M 255.592 436.499 L 255.592 512 L 468.616 405.492 L 468.616 361.382 L 255.592 436.499 Z " fill="rgb(246,133,52)"/><path d=" M 43.48 405.951 L 255.592 511.999 L 255.592 435.945 L 43.48 361.381 L 43.48 405.951 Z " fill="rgb(157,80,37)"/><path d=" M 43.382 330.639 L 255.591 383.536 L 255.591 307.07 L 43.382 285.848 L 43.382 330.639 Z " fill="rgb(157,80,37)"/></g></g></svg>