<?xml version="1.0" encoding="UTF-8" standalone="no"?><!-- Generator: Gravit.io --><svg xmlns="http://www.w3.org/2000/svg" xmlns:xlink="http://www.w3.org/1999/xlink" style="isolation:isolate" viewBox="0 0 512 512" width="512pt" height="512pt"><defs><clipPath id="_clipPath_n5oZHXPXjfGKdD3pglDDSFZ5OmgGDiRW"><rect width="512" height="512"/></clipPath></defs><g clip-path="url(#_clipPath_n5oZHXPXjfGKdD3pglDDSFZ5OmgGDiRW)"><g><path d=" M 254.76 95.455 L 85.43 152.084 L 84.099 313.843 L 118.607 306.177 L 118.607 157.674 L 256 121.719 L 393.393 157.674 L 393.393 306.177 L 428.934 313.843 L 428.997 150.473 L 254.76 95.455 Z " fill="rgb(135,105,41)"/><path d=" M 425.117 308.658 L 393.393 306.177 L 256 324.864 L 118.607 306.177 L 86.883 308.658 L 256.593 342.519 L 425.117 308.658 Z " fill="rgb(250,215,145)"/><path d=" M 258.37 340 L 256 335.02 L 86.891 308.656 L 86.891 152.894 L 256 102.159 L 257.668 99.815 L 257.668 3.183 L 256 0 L 44.43 105.785 L 44.43 361.886 L 192.717 414.663 L 192.717 480.15 L 256.142 512 L 258.074 506.519 L 258.37 340 Z " fill="rgb(135,105,41)"/><path d=" M 256 0 L 256 102.159 L 425.109 152.894 L 425.109 308.656 L 256 335.02 L 256 357.54 L 255.858 357.569 L 255.858 512 L 319.283 480.15 L 319.283 414.663 L 467.57 361.886 L 467.57 105.785 L 256 0 Z " fill="rgb(217,167,65)"/></g></g></svg>