<?xml version="1.0" encoding="UTF-8" standalone="no"?><!-- Generator: Gravit.io --><svg xmlns="http://www.w3.org/2000/svg" xmlns:xlink="http://www.w3.org/1999/xlink" style="isolation:isolate" viewBox="0 0 512 512" width="512pt" height="512pt"><defs><clipPath id="_clipPath_82uI4tHi1hv8jJ6qSgkNtGUE9ZhW8Cnl"><rect width="512" height="512"/></clipPath></defs><g clip-path="url(#_clipPath_82uI4tHi1hv8jJ6qSgkNtGUE9ZhW8Cnl)"><g><path d=" M 44.089 406.045 L 71.111 419.556 L 75.545 411.683 L 75.545 98.229 L 71.111 92.444 L 44.089 105.955 L 44.089 406.045 Z " fill="rgb(157,80,37)"/><path d=" M 123.023 105.244 L 71.111 92.444 L 71.111 419.556 L 123.023 407.467 L 123.023 105.244 Z " fill="rgb(246,133,54)"/><path d=" M 282.312 130.133 L 319.289 110.934 L 442.311 158.577 L 409.601 162.844 L 282.312 130.133 Z " fill="rgb(107,58,25)"/><path d=" M 283.734 381.867 L 320 401.066 L 443.021 353.423 L 410.311 349.155 L 283.734 381.867 Z " fill="rgb(251,191,147)"/><path d=" M 292.978 329.243 L 357.689 337.778 L 361.404 331.111 L 361.404 182.111 L 357.689 174.222 L 292.978 182.755 L 292.978 329.243 Z " fill="rgb(157,80,37)"/><path d=" M 103.111 76.089 L 142.934 56.178 L 147.285 64.567 L 147.285 447 L 142.934 455.822 L 103.111 435.911 L 103.111 76.089 Z " fill="rgb(157,80,37)"/><path d=" M 224 428.8 L 142.934 455.11 L 142.934 56.178 L 224 82.49 L 224 428.8 Z " fill="rgb(246,133,54)"/><path d=" M 192.711 480 L 256 512 L 262.622 504.393 L 262.622 9.382 L 256 0 L 192.711 32 L 192.711 480 Z " fill="rgb(157,80,37)"/><path d=" M 408.177 162.844 L 440.889 158.577 L 443.698 162.658 L 443.698 349.322 L 440.889 354.133 L 408.177 349.867 L 408.177 162.844 Z " fill="rgb(157,80,37)"/><path d=" M 357.689 174.222 L 357.689 338.488 L 425.244 256 L 357.689 174.222 Z " fill="rgb(246,133,54)"/><path d=" M 440.889 92.444 L 256 0 L 256 512 L 467.911 406.045 L 467.911 105.955 L 440.889 92.444 L 440.889 92.444 Z  M 440.889 354.381 L 319.289 390.698 L 319.289 121.302 L 440.889 157.619 L 440.889 354.381 L 440.889 354.381 Z " fill="rgb(246,133,54)"/></g></g></svg>