<?xml version="1.0" encoding="UTF-8" standalone="no"?><!-- Generator: Gravit.io --><svg xmlns="http://www.w3.org/2000/svg" xmlns:xlink="http://www.w3.org/1999/xlink" style="isolation:isolate" viewBox="0 0 512 512" width="512pt" height="512pt"><defs><clipPath id="_clipPath_zUSELGEbrKumkFBfAHqRULR30JZO5wXY"><rect width="512" height="512"/></clipPath></defs><g clip-path="url(#_clipPath_zUSELGEbrKumkFBfAHqRULR30JZO5wXY)"><g><path d=" M 166.34 467.192 L 255.947 512 L 264.699 505.47 L 261.016 5.96 L 255.947 0 L 166.34 44.808 L 166.34 467.192 Z " fill="rgb(157,80,37)"/><path d=" M 345.554 467.192 L 255.947 512 L 255.947 0 L 345.554 44.808 L 345.554 467.192 Z " fill="rgb(246,133,54)"/><path d=" M 222.161 186.368 L 190.716 190.947 L 43.979 174.414 L 44.6 172.786 L 68.411 165.642 L 70.943 167.076 L 71.517 165.642 L 221.215 183.138 L 222.161 186.368 Z " fill="rgb(107,58,25)"/><path d=" M 43.979 105.991 L 70.943 92.501 L 70.943 167.076 L 43.979 174.414 L 43.979 105.991 Z " fill="rgb(157,80,37)"/><path d=" M 468.021 217.095 L 317.849 225.16 L 289.731 223.232 L 295.028 221.029 L 441.414 212.642 L 468.021 217.095 Z " fill="rgb(107,58,25)"/><path d=" M 222.161 186.368 L 70.943 167.076 L 70.943 92.501 L 222.161 127.971 L 222.161 186.368 Z " fill="rgb(246,133,54)"/><path d=" M 440.949 136.199 L 289.731 162.19 L 289.731 223.232 L 440.949 214.158 L 441.828 212.435 L 441.519 137.587 L 440.949 136.199 Z " fill="rgb(157,80,37)"/><path d=" M 468.021 217.095 L 440.949 213.575 L 440.949 136.199 L 468.021 146.113 L 468.021 217.095 Z " fill="rgb(246,133,54)"/></g></g></svg>