<?xml version="1.0" encoding="UTF-8" standalone="no"?><!-- Generator: Gravit.io --><svg xmlns="http://www.w3.org/2000/svg" xmlns:xlink="http://www.w3.org/1999/xlink" style="isolation:isolate" viewBox="0 0 512 512" width="512pt" height="512pt"><defs><clipPath id="_clipPath_Qx2zuhpCQXf9cpBV6luyhIDpyD2KvQhN"><rect width="512" height="512"/></clipPath></defs><g clip-path="url(#_clipPath_Qx2zuhpCQXf9cpBV6luyhIDpyD2KvQhN)"><g><path d=" M 404.992 397.205 L 416.299 446.763 L 95.353 446.763 L 106.682 397.205 L 404.992 397.205 Z " fill="rgb(246,133,54)"/><path d=" M 423.935 335.373 L 441.507 397.205 L 70.584 397.205 L 88.134 335.373 L 423.935 335.373 Z " fill="rgb(246,133,54)"/><path d=" M 443.398 256.056 L 472.426 335.373 L 39.665 335.373 L 68.679 256.056 L 443.398 256.056 Z " fill="rgb(246,133,54)"/><path d=" M 405.959 43.975 L 512 256.056 L 0 256.056 L 106.041 43.975 L 405.959 43.975 Z " fill="rgb(246,133,54)"/><path d=" M 21.141 298.332 L 0 256.056 L 512 256.056 L 490.865 298.332 L 21.141 298.332 Z " fill="rgb(157,80,37)"/><path d=" M 56.021 368.1 L 39.659 335.373 L 472.341 335.373 L 455.979 368.1 L 56.021 368.1 Z " fill="rgb(157,80,37)"/><path d=" M 83.612 423.274 L 70.578 397.205 L 441.422 397.205 L 428.379 423.274 L 83.612 423.274 Z " fill="rgb(157,80,37)"/><path d=" M 95.353 446.763 L 105.984 468.025 L 406.022 468.025 L 416.647 446.763 L 95.353 446.763 Z " fill="rgb(157,80,37)"/></g></g></svg>