<?xml version="1.0" encoding="UTF-8" standalone="no"?><!-- Generator: Gravit.io --><svg xmlns="http://www.w3.org/2000/svg" xmlns:xlink="http://www.w3.org/1999/xlink" style="isolation:isolate" viewBox="0 0 1000 1000" width="1000pt" height="1000pt"><defs><clipPath id="_clipPath_pU02FmdBT9eF6N77K3p2FQDFwYVygFsU"><rect width="1000" height="1000"/></clipPath></defs><g clip-path="url(#_clipPath_pU02FmdBT9eF6N77K3p2FQDFwYVygFsU)"><clipPath id="_clipPath_kjmh36wKRVyVDr1Cm2pxsjMd7Ktkqy3K"><path d=" M -0.04 299.45 L -0.04 382.45 L 55.86 382.45 L 55.86 618.45 L 1.46 618.45 L 1.46 700.45 L 196.46 700.45 L 196.46 618.45 L 140.56 618.45 L 140.56 382.45 L 194.96 382.45 L 194.96 299.45 L -0.04 299.45 Z  M 553.96 300.45 L 553.96 382.45 L 609.86 382.45 L 609.86 618.45 L 555.46 618.45 L 555.46 700.45 L 694.46 700.45 L 694.46 472.45 L 777.16 700.45 L 778.84 700.49 L 860.04 472.49 L 860.04 700.49 L 1000.04 700.49 L 1000.04 618.49 L 944.14 618.49 L 944.14 382.49 L 998.54 382.49 L 998.54 300.49 L 842.54 300.49 L 777.84 483.49 L 712.34 300.49 L 553.96 300.45 Z  M 221.96 300.45 L 221.96 382.45 L 277.86 382.45 L 277.86 512.45 L 492.86 512.45 L 492.86 487.55 C 492.86 487.55 510.86 473.55 516.66 460.15 L 528.16 434.25 C 528.16 434.25 533.51 419.75 533.51 406.85 L 531.21 380.95 C 531.21 380.95 527.59 359.85 521.29 353.65 L 498.99 327.75 C 498.99 327.75 470.69 300.35 433.09 300.35 L 221.96 300.45 Z  M 361.96 382.45 L 443.96 382.45 L 443.96 458.45 L 361.96 458.45 L 361.96 382.45 Z  M 221.96 700.45 L 221.96 618.45 L 277.86 618.45 L 277.86 488.45 L 492.86 488.45 L 492.86 513.35 C 492.86 513.35 510.86 527.35 516.66 540.75 L 528.16 566.65 C 528.16 566.65 533.51 581.15 533.51 594.05 L 531.21 619.95 C 531.21 619.95 527.59 641.05 521.29 647.25 L 498.99 673.15 C 498.99 673.15 470.69 700.55 433.09 700.55 L 221.96 700.45 Z  M 361.96 618.45 L 443.96 618.45 L 443.96 542.45 L 361.96 542.45 L 361.96 618.45 Z " fill-rule="evenodd" fill="rgb(255,255,255)"/></clipPath><g clip-path="url(#_clipPath_kjmh36wKRVyVDr1Cm2pxsjMd7Ktkqy3K)"><path d=" M -0.04 314.15 L 1029.96 314.15 L 1029.96 367.35 L -0.04 367.35 M -0.04 420.55 L 974.96 420.55 L 974.96 473.75 L -0.04 473.75 L -0.04 526.95 L 974.96 526.95 L 974.96 580.15 L -0.04 580.15 M -0.04 633.35 L 1029.96 633.35 L 1029.96 686.55 L -0.04 686.55" fill="none" vector-effect="non-scaling-stroke" stroke-width="27.4" stroke="rgb(31,112,193)" stroke-linejoin="miter" stroke-linecap="butt" stroke-miterlimit="4"/></g></g></svg>