<?xml version="1.0" encoding="UTF-8" standalone="no"?><!-- Generator: Gravit.io --><svg xmlns="http://www.w3.org/2000/svg" xmlns:xlink="http://www.w3.org/1999/xlink" style="isolation:isolate" viewBox="0 0 512 512" width="512pt" height="512pt"><defs><clipPath id="_clipPath_8ArYKnbHahr6C9QA0nTgKLdO9CHvgfya"><rect width="512" height="512"/></clipPath></defs><g clip-path="url(#_clipPath_8ArYKnbHahr6C9QA0nTgKLdO9CHvgfya)"><linearGradient id="_lgradient_0" x1="0" y1="0.5" x2="0.14928347924953114" y2="-0.4887944391141946" gradientTransform="matrix(322.192,0,0,482.434,0,14.78)" gradientUnits="userSpaceOnUse"><stop offset="0%" stop-opacity="1" style="stop-color:rgb(6,104,186)"/><stop offset="92.52386432679224%" stop-opacity="1" style="stop-color:rgb(17,74,139)"/></linearGradient><path d=" M 170.687 14.786 L 322.192 14.786 L 164.914 480.782 C 161.6 490.601 152.393 497.214 142.03 497.214 L 24.121 497.214 C 16.353 497.214 9.059 493.474 4.528 487.164 C -0.003 480.854 -1.218 472.747 1.266 465.386 L 147.796 31.218 C 151.109 21.395 160.32 14.78 170.687 14.78 L 170.687 14.786 Z " fill="url(#_lgradient_0)"/><path d=" M 390.846 327.345 L 150.595 327.345 C 146.024 327.34 141.915 330.133 140.238 334.385 C 138.561 338.637 139.658 343.482 143.001 346.599 L 297.381 490.691 C 301.876 494.884 307.794 497.214 313.941 497.214 L 449.98 497.214 L 390.846 327.345 Z " fill="rgb(0,120,212)"/><linearGradient id="_lgradient_1" x1="0" y1="0.5" x2="0.9317514202973546" y2="0.1369031936606127" gradientTransform="matrix(449.379,0,0,482.429,0.031,14.786)" gradientUnits="userSpaceOnUse"><stop offset="50.57013138803333%" stop-opacity="0" style="stop-color:rgb(0,0,0)"/><stop offset="51.069077604533334%" stop-opacity="0.05" style="stop-color:rgb(0,0,0)"/><stop offset="52.82593047953333%" stop-opacity="0.1" style="stop-color:rgb(0,0,0)"/><stop offset="54.94820875253333%" stop-opacity="0.2" style="stop-color:rgb(0,0,0)"/><stop offset="57.597542888033324%" stop-opacity="0.3" style="stop-color:rgb(0,0,0)"/></linearGradient><path d=" M 170.687 14.786 C 160.196 14.746 150.9 21.534 147.744 31.538 L 1.446 464.99 C -1.205 472.381 -0.089 480.599 4.438 487.014 C 8.965 493.429 16.334 497.235 24.185 497.214 L 145.137 497.214 C 154.308 495.575 161.888 489.129 164.978 480.34 L 194.153 394.358 L 298.365 491.558 C 302.732 495.17 308.21 497.168 313.877 497.214 L 449.41 497.214 L 389.967 327.345 L 216.683 327.386 L 322.739 14.786 L 170.687 14.786 Z " fill="url(#_lgradient_1)"/><linearGradient id="_lgradient_2" x1="0" y1="0.5" x2="0.18276268127767456" y2="1.4831570588325118" gradientTransform="matrix(339.51,0,0,482.434,172.49,14.786)" gradientUnits="userSpaceOnUse"><stop offset="4.50791516691045%" stop-opacity="1" style="stop-color:rgb(60,203,244)"/><stop offset="99.88735357691046%" stop-opacity="1" style="stop-color:rgb(40,146,223)"/></linearGradient><path d=" M 364.197 31.195 C 360.888 21.387 351.691 14.786 341.341 14.786 L 172.49 14.786 C 182.84 14.786 192.036 21.389 195.346 31.195 L 341.882 465.38 C 344.367 472.743 343.154 480.851 338.623 487.164 C 334.091 493.476 326.797 497.22 319.027 497.22 L 487.883 497.22 C 495.652 497.22 502.945 493.473 507.475 487.161 C 512.005 480.849 513.218 472.742 510.733 465.38 L 364.197 31.195 Z " fill="url(#_lgradient_2)"/></g></svg>