<?xml version="1.0" encoding="UTF-8" standalone="no"?><!-- Generator: Gravit.io --><svg xmlns="http://www.w3.org/2000/svg" xmlns:xlink="http://www.w3.org/1999/xlink" style="isolation:isolate" viewBox="0 0 512 512" width="512pt" height="512pt"><defs><clipPath id="_clipPath_fdBvLopYhdw4ZIHW5hRE6fUrlzZV9BhY"><rect width="512" height="512"/></clipPath></defs><g clip-path="url(#_clipPath_fdBvLopYhdw4ZIHW5hRE6fUrlzZV9BhY)"><g><linearGradient id="_lgradient_21" x1="0" y1="0.5001299545159188" x2="1.0002643510521265" y2="0.5001299545159188" gradientTransform="matrix(356.515,0,0,307.739,117.397,200.12)" gradientUnits="userSpaceOnUse"><stop offset="0%" stop-opacity="1" style="stop-color:rgb(12,89,164)"/><stop offset="100%" stop-opacity="1" style="stop-color:rgb(17,74,139)"/></linearGradient><path d=" M 462.028 381.004 C 455.203 384.574 448.165 387.719 440.952 390.422 C 417.996 399.012 393.678 403.388 369.167 403.34 C 274.545 403.34 192.122 338.253 192.122 254.729 C 192.369 231.918 204.938 211.025 224.975 200.12 C 139.392 203.72 117.397 292.902 117.397 345.151 C 117.397 492.882 253.55 507.859 282.884 507.859 C 298.701 507.859 322.556 503.26 336.873 498.741 L 339.493 497.861 C 394.587 478.815 441.554 441.579 472.666 392.282 C 474.626 389.194 474.242 385.169 471.732 382.508 C 469.221 379.847 465.226 379.228 462.028 381.004 Z " fill="url(#_lgradient_21)"/><g opacity="0.35"><radialGradient id="_rgradient_3" fx="0.552461806541631" fy="0.5092625081221569" cx="0.552461806541631" cy="0.5092625081221569" r="1" gradientTransform="matrix(356.515,0,0,307.739,117.397,200.12)" gradientUnits="userSpaceOnUse"><stop offset="100%" stop-opacity="1" style="stop-color:rgb(0,0,0)"/><stop offset="100%" stop-opacity="1" style="stop-color:rgb(0,0,0)"/><stop offset="100%" stop-opacity="1" style="stop-color:rgb(0,0,0)"/></radialGradient><path d=" M 462.028 381.004 C 455.203 384.574 448.165 387.719 440.952 390.422 C 417.996 399.012 393.678 403.388 369.167 403.34 C 274.545 403.34 192.122 338.253 192.122 254.729 C 192.369 231.918 204.938 211.025 224.975 200.12 C 139.392 203.72 117.397 292.902 117.397 345.151 C 117.397 492.882 253.55 507.859 282.884 507.859 C 298.701 507.859 322.556 503.26 336.873 498.741 L 339.493 497.861 C 394.587 478.815 441.554 441.579 472.666 392.282 C 474.626 389.194 474.242 385.169 471.732 382.508 C 469.221 379.847 465.226 379.228 462.028 381.004 Z " fill="url(#_rgradient_3)"/></g><linearGradient id="_lgradient_22" x1="0.9058727007862297" y1="0.24794284227316588" x2="0.30951584366498575" y2="0.8975162103898775" gradientTransform="matrix(336.924,0,0,415.739,0.19,96.261)" gradientUnits="userSpaceOnUse"><stop offset="0%" stop-opacity="1" style="stop-color:rgb(27,157,226)"/><stop offset="16%" stop-opacity="1" style="stop-color:rgb(21,149,223)"/><stop offset="67%" stop-opacity="1" style="stop-color:rgb(6,128,215)"/><stop offset="100%" stop-opacity="1" style="stop-color:rgb(0,120,212)"/></linearGradient><path d=" M 211.398 482.744 C 193.563 471.674 178.106 457.169 165.927 440.073 C 137.828 401.575 128.18 352.626 139.569 306.345 C 150.958 260.063 182.219 221.182 224.975 200.12 C 231.214 197.181 241.872 191.862 256.049 192.122 C 276.297 192.269 295.308 201.889 307.419 218.117 C 315.494 228.898 319.946 241.961 320.136 255.429 C 320.136 255.009 369.047 96.261 160.168 96.261 C 72.386 96.261 0.2 179.564 0.2 252.65 C -0.146 291.311 8.126 329.564 24.415 364.628 C 79.52 482.201 213.931 539.883 337.113 498.821 C 294.943 512.117 249.066 506.271 211.578 482.824 L 211.398 482.744 Z " fill="url(#_lgradient_22)"/><g opacity="0.41"><radialGradient id="_rgradient_4" fx="0.41834848530295293" fy="0.7256394783883737" cx="0.41834848530295293" cy="0.7256394783883737" r="1" gradientTransform="matrix(336.924,0,0,415.739,0.19,96.261)" gradientUnits="userSpaceOnUse"><stop offset="100%" stop-opacity="1" style="stop-color:rgb(0,0,0)"/><stop offset="100%" stop-opacity="1" style="stop-color:rgb(0,0,0)"/><stop offset="100%" stop-opacity="1" style="stop-color:rgb(0,0,0)"/></radialGradient><path d=" M 211.398 482.744 C 193.563 471.674 178.106 457.169 165.927 440.073 C 137.828 401.575 128.18 352.626 139.569 306.345 C 150.958 260.063 182.219 221.182 224.975 200.12 C 231.214 197.181 241.872 191.862 256.049 192.122 C 276.297 192.269 295.308 201.889 307.419 218.117 C 315.494 228.898 319.946 241.961 320.136 255.429 C 320.136 255.009 369.047 96.261 160.168 96.261 C 72.386 96.261 0.2 179.564 0.2 252.65 C -0.146 291.311 8.126 329.564 24.415 364.628 C 79.52 482.201 213.931 539.883 337.113 498.821 C 294.943 512.117 249.066 506.271 211.578 482.824 L 211.398 482.744 Z " fill="url(#_rgradient_4)"/></g><radialGradient id="_rgradient_5" fx="0.10101907719685627" fy="0.27789003675690044" cx="0.10101907719685627" cy="0.27789003675690044" r="1" gradientTransform="matrix(511.93,0,0,340.907,-0.02,0)" gradientUnits="userSpaceOnUse"><stop offset="0%" stop-opacity="1" style="stop-color:rgb(53,193,241)"/><stop offset="11%" stop-opacity="1" style="stop-color:rgb(52,193,237)"/><stop offset="23%" stop-opacity="1" style="stop-color:rgb(47,194,223)"/><stop offset="31%" stop-opacity="1" style="stop-color:rgb(43,195,210)"/><stop offset="67%" stop-opacity="1" style="stop-color:rgb(54,199,82)"/></radialGradient><path d=" M 304.58 297.661 C 302.96 299.76 297.981 302.66 297.981 308.979 C 297.981 314.198 301.38 319.217 307.419 323.436 C 336.173 343.432 390.382 340.792 390.522 340.792 C 411.829 340.741 432.731 334.975 451.05 324.096 C 488.654 302.139 511.809 261.901 511.898 218.357 C 512.418 173.546 495.902 143.751 489.223 130.554 C 446.851 47.671 355.389 0 255.929 0 C 115.966 -0.014 1.948 112.401 -0.02 252.35 C 0.94 179.284 73.565 120.276 159.948 120.276 C 166.947 120.276 206.859 120.956 243.932 140.412 C 276.605 157.569 293.722 178.285 305.619 198.821 C 317.977 220.156 320.176 247.111 320.176 257.849 C 320.176 268.587 314.698 284.504 304.58 297.661 Z " fill="url(#_rgradient_5)"/><radialGradient id="_rgradient_6" fx="0.9377234259881699" fy="0.4540277912745154" cx="0.9377234259881699" cy="0.4540277912745154" r="1" gradientTransform="matrix(511.93,0,0,340.907,-0.02,0)" gradientUnits="userSpaceOnUse"><stop offset="0%" stop-opacity="1" style="stop-color:rgb(102,235,110)"/><stop offset="100%" stop-opacity="0" style="stop-color:rgb(102,235,110)"/></radialGradient><path d=" M 304.58 297.661 C 302.96 299.76 297.981 302.66 297.981 308.979 C 297.981 314.198 301.38 319.217 307.419 323.436 C 336.173 343.432 390.382 340.792 390.522 340.792 C 411.829 340.741 432.731 334.975 451.05 324.096 C 488.654 302.139 511.809 261.901 511.898 218.357 C 512.418 173.546 495.902 143.751 489.223 130.554 C 446.851 47.671 355.389 0 255.929 0 C 115.966 -0.014 1.948 112.401 -0.02 252.35 C 0.94 179.284 73.565 120.276 159.948 120.276 C 166.947 120.276 206.859 120.956 243.932 140.412 C 276.605 157.569 293.722 178.285 305.619 198.821 C 317.977 220.156 320.176 247.111 320.176 257.849 C 320.176 268.587 314.698 284.504 304.58 297.661 Z " fill="url(#_rgradient_6)"/></g></g></svg>