<?xml version="1.0" encoding="UTF-8" standalone="no"?><!-- Generator: Gravit.io --><svg xmlns="http://www.w3.org/2000/svg" xmlns:xlink="http://www.w3.org/1999/xlink" style="isolation:isolate" viewBox="0 0 512 512" width="512pt" height="512pt"><defs><clipPath id="_clipPath_plKk1uFKt1wKm0kgpG0xg7P9RsCwRBr3"><rect width="512" height="512"/></clipPath></defs><g clip-path="url(#_clipPath_plKk1uFKt1wKm0kgpG0xg7P9RsCwRBr3)"><path d=" M 255.984 6.305 C 114.621 6.305 0 120.925 0 262.321 C 0 375.421 73.33 471.381 175.084 505.245 C 187.887 507.582 191.92 499.996 191.92 493.21 C 191.92 487.129 192.048 470.133 191.92 448.767 C 120.718 464.243 105.962 415.047 105.962 415.047 C 94.328 385.472 77.555 377.598 77.555 377.598 C 54.318 361.722 79.3 362.026 79.3 362.026 C 104.986 363.834 118.526 388.416 118.526 388.416 C 141.363 427.514 178.429 416.215 193.008 409.686 C 195.345 393.137 201.97 381.855 209.284 375.453 C 152.438 368.987 92.679 347.03 92.679 248.925 C 92.679 220.966 102.65 198.129 119.022 180.236 C 116.381 173.771 107.579 147.732 121.534 112.475 C 121.534 112.475 143.028 105.594 191.92 138.738 C 212.341 133.056 234.251 130.224 256.016 130.128 C 277.765 130.224 299.659 133.056 320.112 138.738 C 369.004 105.61 390.466 112.475 390.466 112.475 C 404.421 147.732 395.635 173.771 393.01 180.236 C 409.382 198.129 419.321 220.966 419.321 248.925 C 419.321 347.286 359.466 368.923 302.428 375.245 C 311.614 383.167 319.952 398.531 319.952 422.409 C 319.952 454.417 319.952 484.856 319.952 493.275 C 319.952 500.124 324.081 507.694 337.076 505.213 C 438.734 471.301 512 375.389 512 262.321 C 512 120.925 397.379 6.305 255.984 6.305 Z " fill-rule="evenodd" fill="rgb(24,22,22)"/></g></svg>