<?xml version="1.0" encoding="UTF-8" standalone="no"?><!-- Generator: Gravit.io --><svg xmlns="http://www.w3.org/2000/svg" xmlns:xlink="http://www.w3.org/1999/xlink" style="isolation:isolate" viewBox="0 0 512 512" width="512pt" height="512pt"><defs><clipPath id="_clipPath_ymjQLtcGAwfV1Vdf2KJvCBA9znvFE1RI"><rect width="512" height="512"/></clipPath></defs><g clip-path="url(#_clipPath_ymjQLtcGAwfV1Vdf2KJvCBA9znvFE1RI)"><g><path d=" M 363.159 508.35 C 371.218 511.49 380.408 511.289 388.542 507.374 L 493.89 456.683 C 504.96 451.356 512 440.153 512 427.862 L 512 84.14 C 512 71.85 504.961 60.646 493.891 55.319 L 388.542 4.626 C 377.867 -0.511 365.373 0.748 356.004 7.559 C 354.666 8.532 353.391 9.619 352.194 10.816 L 150.518 194.809 L 62.672 128.127 C 54.494 121.919 43.056 122.428 35.461 129.337 L 7.285 154.966 C -2.005 163.417 -2.015 178.032 7.262 186.497 L 83.446 256 L 7.262 325.503 C -2.015 333.968 -2.005 348.584 7.285 357.034 L 35.461 382.664 C 43.056 389.573 54.494 390.081 62.672 383.873 L 150.518 317.191 L 352.194 501.184 C 355.385 504.377 359.131 506.781 363.159 508.35 Z  M 384.156 139.841 L 231.129 256 L 384.156 372.159 L 384.156 139.841 Z " fill-rule="evenodd" fill="none"/><path d=" M 493.893 55.398 L 388.462 4.635 C 376.259 -1.24 361.674 1.238 352.097 10.815 L 6.956 325.503 C -2.328 333.967 -2.317 348.583 6.979 357.034 L 35.171 382.663 C 42.771 389.572 54.216 390.081 62.398 383.873 L 478.028 68.568 C 491.972 57.989 512 67.935 512 85.437 L 512 84.213 C 512 71.927 504.962 60.728 493.893 55.398 Z " fill="rgb(0,101,169)"/><path d=" M 493.893 456.601 L 388.462 507.364 C 376.259 513.241 361.674 510.762 352.097 501.184 L 6.956 186.497 C -2.328 178.032 -2.317 163.416 6.979 154.966 L 35.171 129.336 C 42.771 122.427 54.216 121.919 62.398 128.126 L 478.028 443.432 C 491.972 454.01 512 444.065 512 426.563 L 512 427.787 C 512 440.072 504.962 451.272 493.893 456.601 Z " fill="rgb(0,122,204)"/><path d=" M 388.467 507.374 C 376.26 513.246 361.675 510.762 352.097 501.184 C 363.899 512.985 384.078 504.627 384.078 487.937 L 384.078 24.062 C 384.078 7.372 363.899 -0.986 352.097 10.815 C 361.675 1.237 376.26 -1.245 388.467 4.626 L 493.88 55.319 C 504.956 60.646 512 71.849 512 84.14 L 512 427.861 C 512 440.152 504.956 451.355 493.879 456.682 L 388.467 507.374 Z " fill="rgb(31,156,240)"/><g opacity="0.25"><linearGradient id="_lgradient_24" x1="0.4999999099695713" y1="-5.699666713425422e-9" x2="0.4999999099695711" y2="1.0000004701880159" gradientTransform="matrix(511.689,0,0,509.051,0,1.474)" gradientUnits="userSpaceOnUse"><stop offset="0%" stop-opacity="1" style="stop-color:rgb(255,255,255)"/><stop offset="100%" stop-opacity="0" style="stop-color:rgb(255,255,255)"/></linearGradient><path d=" M 362.848 508.35 C 370.907 511.489 380.097 511.288 388.231 507.374 L 493.579 456.683 C 504.649 451.356 511.689 440.153 511.689 427.861 L 511.689 84.14 C 511.689 71.849 504.65 60.646 493.58 55.319 L 388.231 4.626 C 377.556 -0.511 365.062 0.747 355.693 7.559 C 354.355 8.532 353.08 9.618 351.883 10.816 L 150.207 194.809 L 62.36 128.127 C 54.183 121.919 42.745 122.428 35.15 129.336 L 6.974 154.966 C -2.316 163.417 -2.326 178.032 6.951 186.497 L 83.135 256 L 6.951 325.503 C -2.326 333.968 -2.316 348.583 6.974 357.034 L 35.15 382.663 C 42.745 389.572 54.183 390.081 62.36 383.873 L 150.207 317.191 L 351.883 501.184 C 355.074 504.376 358.82 506.781 362.848 508.35 Z  M 383.844 139.841 L 230.818 256 L 383.844 372.159 L 383.844 139.841 Z " fill-rule="evenodd" fill="url(#_lgradient_24)"/></g></g></g></svg>