<?xml version="1.0" encoding="UTF-8" standalone="no"?><!-- Generator: Gravit.io --><svg xmlns="http://www.w3.org/2000/svg" xmlns:xlink="http://www.w3.org/1999/xlink" style="isolation:isolate" viewBox="0 0 512 512" width="512pt" height="512pt"><defs><clipPath id="_clipPath_6AfuyUGAYZX0FHMAuDbqV5Q3YBHlA8QV"><rect width="512" height="512"/></clipPath></defs><g clip-path="url(#_clipPath_6AfuyUGAYZX0FHMAuDbqV5Q3YBHlA8QV)"><g><path d=" M 244.326 0.819 C 251.699 0.204 258.867 -0.001 266.24 -0.001 C 399.565 4.915 506.675 111.82 512 245.145 L 512 446.463 C 511.795 482.918 482.099 512.204 445.85 511.999 C 412.672 506.879 387.277 479.846 384.205 446.463 L 384.205 245.145 C 378.675 174.899 317.235 122.265 246.989 127.795 C 246.17 127.795 245.35 127.999 244.531 127.999" fill="rgb(251,188,4)"/><path d=" M 512 447.897 C 512 483.123 483.328 511.795 448.102 511.795 C 412.877 511.795 384.205 483.123 384.205 447.897 C 384.205 412.671 412.877 383.999 448.102 383.999 C 483.328 383.999 512 412.671 512 447.897 Z " fill="rgb(66,133,244)"/><path d=" M 248.013 509.747 C 284.262 510.156 313.958 481.279 314.368 445.03 C 314.368 444.825 314.368 444.825 314.368 444.62 C 313.344 409.395 283.853 381.542 248.627 382.566 C 248.218 382.566 247.603 382.566 247.194 382.566 C 177.357 377.241 124.723 316.62 129.638 246.579 L 129.638 245.555 C 134.758 182.476 184.934 132.71 248.013 127.999 C 283.238 129.433 312.934 101.99 314.368 66.764 C 314.368 66.355 314.368 66.15 314.368 65.74 C 313.958 29.491 284.262 0.204 248.013 0.614 C 248.013 0.614 248.013 0.614 248.013 0.614 L 243.507 0.614 C 107.725 6.963 0.819 118.374 0 254.361 L 0 255.385 C 0 414.924 139.878 509.951 244.122 509.951 L 248.013 509.951 L 248.013 509.747 Z " fill="rgb(234,67,53)"/></g></g></svg>