<?xml version="1.0" encoding="UTF-8" standalone="no"?><!-- Generator: Gravit.io --><svg xmlns="http://www.w3.org/2000/svg" xmlns:xlink="http://www.w3.org/1999/xlink" style="isolation:isolate" viewBox="0 0 512 512" width="512pt" height="512pt"><defs><clipPath id="_clipPath_BfOl0ai6J3a1KXRtQjB6yuoRms5kCPcO"><rect width="512" height="512"/></clipPath></defs><g clip-path="url(#_clipPath_BfOl0ai6J3a1KXRtQjB6yuoRms5kCPcO)"><path d=" M 323.604 153.678 C 346.766 114.034 333.014 63.369 292.893 40.47 C 252.755 17.605 201.448 31.16 178.286 70.804 C 177.265 72.58 176.305 74.391 175.407 76.232 L 97.106 210.184 C 95.374 212.847 93.771 215.591 92.303 218.409 L 10.991 358.726 L 156.292 440.169 L 237.193 301.036 C 238.956 298.392 240.56 295.646 241.996 292.811 L 320.297 158.843 C 321.433 157.166 322.568 155.455 323.604 153.678 Z " fill-rule="evenodd" fill="rgb(251,188,4)"/><path d=" M 156.967 439.742 C 133.937 480.028 81.988 494.849 42.098 471.606 C 2.19 448.345 -11.973 397.91 11.073 357.64 C 34.119 317.371 85.607 302.484 125.515 325.728 C 165.422 348.988 179.997 399.472 156.967 439.725" fill-rule="evenodd" fill="rgb(52,168,83)"/><path d=" M 470.518 180.196 C 430.856 157.338 380.178 170.874 357.195 210.464 L 274.238 353.808 C 251.382 393.316 264.882 443.872 304.391 466.728 C 304.462 466.769 304.533 466.81 304.605 466.851 C 344.274 489.717 394.967 476.172 417.944 436.567 L 500.884 293.239 C 523.737 253.718 510.224 203.155 470.704 180.303 C 470.642 180.267 470.58 180.231 470.518 180.196 Z " fill-rule="evenodd" fill="rgb(66,133,244)"/></g></svg>