<?xml version="1.0" encoding="UTF-8" standalone="no"?><!-- Generator: Gravit.io --><svg xmlns="http://www.w3.org/2000/svg" xmlns:xlink="http://www.w3.org/1999/xlink" style="isolation:isolate" viewBox="0 0 512 512" width="512pt" height="512pt"><defs><clipPath id="_clipPath_U2s86DOXsm8tPTbCo6d5Z0M1qjz89XMc"><rect width="512" height="512"/></clipPath></defs><g clip-path="url(#_clipPath_U2s86DOXsm8tPTbCo6d5Z0M1qjz89XMc)"><g><path d=" M 174.232 80.999 C 179.181 68.008 185.986 56.049 196.089 46.358 C 236.504 6.974 303.312 16.871 330.736 66.359 C 351.356 103.887 373.213 140.59 394.452 177.705 C 429.918 239.359 465.796 301.012 500.849 362.871 C 530.336 414.627 498.375 479.991 439.815 488.858 C 403.937 494.219 370.326 477.723 351.769 445.556 C 320.633 391.326 289.291 337.096 258.155 283.072 C 257.536 281.835 256.711 280.804 255.887 279.773 C 252.588 277.093 251.144 273.175 249.082 269.67 C 235.267 245.338 221.039 221.213 207.224 197.088 C 198.358 181.417 189.079 165.952 180.212 150.281 C 172.17 136.26 168.459 121.001 168.871 104.918 C 169.49 96.67 170.521 88.422 174.232 80.999 Z " fill="rgb(60,139,217)"/><path d=" M 174.232 80.999 C 172.377 88.422 170.727 95.845 170.315 103.681 C 169.696 121.001 174.026 137.085 182.687 152.137 C 205.368 191.108 228.05 230.286 250.526 269.463 C 252.588 272.969 254.237 276.474 256.299 279.773 C 243.927 301.218 231.555 322.456 218.977 343.901 C 201.657 373.799 184.336 403.904 166.809 433.803 C 165.985 433.803 165.778 433.391 165.572 432.772 C 165.366 431.122 165.985 429.679 166.397 428.029 C 174.851 397.1 167.84 369.675 146.602 346.169 C 133.612 331.941 117.116 323.9 98.146 321.219 C 73.402 317.714 51.545 324.106 31.956 339.571 C 28.451 342.251 26.183 346.169 22.059 348.231 C 21.234 348.231 20.821 347.819 20.615 347.2 C 30.513 330.086 40.204 312.971 50.101 295.857 C 90.929 224.925 131.756 153.993 172.789 83.267 C 173.201 82.442 173.82 81.824 174.232 80.999 Z " fill="rgb(250,188,4)"/><path d=" M 21.44 347.819 C 25.358 344.313 29.069 340.602 33.193 337.302 C 83.299 297.712 158.561 326.374 169.49 389.058 C 172.17 404.11 170.727 418.544 166.191 432.978 C 165.985 434.215 165.778 435.246 165.366 436.484 C 163.51 439.783 161.861 443.288 159.799 446.587 C 141.447 476.898 114.435 491.951 78.969 489.682 C 38.348 486.796 6.388 456.278 0.82 415.864 C -1.86 396.275 2.057 377.923 12.161 361.015 C 14.223 357.304 16.697 354.004 18.966 350.293 C 19.997 349.468 19.584 347.819 21.44 347.819 Z " fill="rgb(52,168,82)"/><path d=" M 21.44 347.819 C 20.615 348.643 20.615 350.087 19.172 350.293 C 18.966 348.85 19.79 348.025 20.615 346.994 L 21.44 347.819 Z " fill="rgb(250,188,4)"/><path d=" M 165.366 436.484 C 164.541 435.04 165.366 434.009 166.191 432.978 C 166.397 433.184 166.809 433.597 167.016 433.803 L 165.366 436.484 Z " fill="rgb(225,192,37)"/></g></g></svg>