<?xml version="1.0" encoding="UTF-8" standalone="no"?><!-- Generator: Gravit.io --><svg xmlns="http://www.w3.org/2000/svg" xmlns:xlink="http://www.w3.org/1999/xlink" style="isolation:isolate" viewBox="0 0 512 512" width="512pt" height="512pt"><defs><clipPath id="_clipPath_f27WpVJyECfgVdcxYpummKpNObjjXJcW"><rect width="512" height="512"/></clipPath></defs><g clip-path="url(#_clipPath_f27WpVJyECfgVdcxYpummKpNObjjXJcW)"><g><path d=" M 390.737 121.263 L 121.263 121.263 L 121.263 390.737 L 390.737 390.737 L 390.737 121.263 Z " fill="rgb(255,255,255)"/><path d=" M 390.737 512 L 512 390.737 L 390.737 390.737 L 390.737 512 Z " fill="rgb(234,67,53)"/><path d=" M 512 121.263 L 390.737 121.263 L 390.737 390.737 L 512 390.737 L 512 121.263 Z " fill="rgb(251,188,4)"/><path d=" M 390.737 390.737 L 121.263 390.737 L 121.263 512 L 390.737 512 L 390.737 390.737 Z " fill="rgb(52,168,83)"/><path d=" M 0 390.737 L 0 471.579 C 0 493.912 18.088 512 40.421 512 L 121.263 512 L 121.263 390.737 L 0 390.737 Z " fill="rgb(24,128,56)"/><path d=" M 512 121.263 L 512 40.421 C 512 18.088 493.912 0 471.579 0 L 390.737 0 L 390.737 121.263 L 512 121.263 Z " fill="rgb(25,103,210)"/><path d=" M 390.737 0 L 40.421 0 C 18.088 0 0 18.088 0 40.421 L 0 390.737 L 121.263 390.737 L 121.263 121.263 L 390.737 121.263 L 390.737 0 Z " fill="rgb(66,133,244)"/><path d=" M 176.539 330.307 C 166.467 323.503 159.495 313.566 155.688 300.429 L 179.065 290.796 C 181.187 298.88 184.893 305.145 190.181 309.592 C 195.436 314.038 201.836 316.227 209.314 316.227 C 216.96 316.227 223.528 313.903 229.019 309.255 C 234.509 304.606 237.272 298.678 237.272 291.503 C 237.272 284.16 234.375 278.164 228.581 273.516 C 222.787 268.867 215.512 266.543 206.821 266.543 L 193.314 266.543 L 193.314 243.402 L 205.44 243.402 C 212.918 243.402 219.217 241.381 224.337 237.339 C 229.457 233.297 232.017 227.773 232.017 220.733 C 232.017 214.467 229.726 209.482 225.145 205.743 C 220.564 202.004 214.771 200.118 207.731 200.118 C 200.859 200.118 195.402 201.937 191.36 205.608 C 187.321 209.29 184.284 213.938 182.535 219.116 L 159.394 209.482 C 162.459 200.792 168.084 193.112 176.337 186.476 C 184.589 179.84 195.133 176.505 207.933 176.505 C 217.398 176.505 225.92 178.324 233.465 181.996 C 241.011 185.667 246.939 190.754 251.217 197.221 C 255.495 203.722 257.617 210.998 257.617 219.082 C 257.617 227.335 255.629 234.307 251.655 240.034 C 247.68 245.76 242.796 250.139 237.002 253.204 L 237.002 254.585 C 244.483 257.67 250.981 262.736 255.798 269.238 C 260.682 275.806 263.141 283.655 263.141 292.817 C 263.141 301.979 260.817 310.164 256.168 317.339 C 251.52 324.514 245.086 330.173 236.935 334.282 C 228.749 338.392 219.554 340.48 209.347 340.48 C 197.524 340.514 186.611 337.112 176.539 330.307 L 176.539 330.307 Z  M 320.135 214.299 L 294.467 232.859 L 281.634 213.389 L 327.68 180.177 L 345.331 180.177 L 345.331 336.842 L 320.135 336.842 L 320.135 214.299 Z " fill="rgb(66,133,244)"/></g></g></svg>