<?xml version="1.0" encoding="UTF-8" standalone="no"?><!-- Generator: Gravit.io --><svg xmlns="http://www.w3.org/2000/svg" xmlns:xlink="http://www.w3.org/1999/xlink" style="isolation:isolate" viewBox="0 0 512 512" width="512pt" height="512pt"><defs><clipPath id="_clipPath_3n4EvjTEMRX5TAB2HYIeOgjuuIjZc8GO"><rect width="512" height="512"/></clipPath></defs><g clip-path="url(#_clipPath_3n4EvjTEMRX5TAB2HYIeOgjuuIjZc8GO)"><path d=" M 340.503 163.84 L 385.009 119.334 L 387.975 100.594 C 306.873 26.848 177.951 35.21 104.841 118.042 C 84.533 141.048 69.467 169.73 61.433 199.348 L 77.373 197.102 L 166.383 182.424 L 173.255 175.396 C 212.849 131.912 279.795 126.062 325.511 163.06 L 340.503 163.84 Z " fill="rgb(234,67,53)"/><path d=" M 448.41 198.039 C 438.18 160.367 417.178 126.501 387.976 100.595 L 325.512 163.059 C 351.888 184.611 366.914 217.079 366.27 251.133 L 366.27 262.221 C 396.972 262.221 421.864 287.111 421.864 317.813 C 421.864 348.517 396.972 372.783 366.27 372.783 L 254.928 372.783 L 243.996 384.651 L 243.996 451.331 L 254.928 461.793 L 366.27 461.793 C 446.13 462.415 511.374 398.805 511.996 318.945 C 512.372 270.539 488.506 225.159 448.41 198.039 Z " fill="rgb(66,133,244)"/><path d=" M 143.741 461.794 L 254.927 461.794 L 254.927 372.782 L 143.741 372.782 C 135.819 372.78 128.147 371.078 120.943 367.786 L 105.169 372.626 L 60.351 417.132 L 56.447 432.28 C 81.581 451.258 112.247 461.93 143.741 461.794 Z " fill="rgb(52,168,83)"/><path d=" M 143.741 173.053 C 63.879 173.529 -0.473 238.657 0.003 318.517 C 0.269 363.114 21.097 405.094 56.447 432.28 L 120.943 367.786 C 92.961 355.144 80.527 322.214 93.169 294.233 C 105.809 266.253 138.741 253.819 166.719 266.459 C 179.049 272.029 188.923 281.905 194.493 294.233 L 258.989 229.739 C 231.547 193.865 188.907 172.891 143.741 173.053 Z " fill="rgb(251,188,5)"/></g></svg>