<?xml version="1.0" encoding="UTF-8" standalone="no"?><!-- Generator: Gravit.io --><svg xmlns="http://www.w3.org/2000/svg" xmlns:xlink="http://www.w3.org/1999/xlink" style="isolation:isolate" viewBox="0 0 512 512" width="512pt" height="512pt"><defs><clipPath id="_clipPath_yrteozyPPZJdgLmCwruBP5JK37Cet52X"><rect width="512" height="512"/></clipPath></defs><g clip-path="url(#_clipPath_yrteozyPPZJdgLmCwruBP5JK37Cet52X)"><g><path d=" M 38.708 419.336 L 61.288 458.337 C 65.979 466.548 72.724 472.999 80.641 477.691 L 161.283 338.108 L 0 338.108 C 0 347.198 2.346 356.289 7.038 364.499 L 38.708 419.336 Z " fill="rgb(0,102,218)"/><path d=" M 256 173.892 L 175.359 34.309 C 167.441 39.001 160.696 45.452 156.005 53.663 L 7.038 311.716 C 2.432 319.75 0.006 328.847 0 338.108 L 161.283 338.108 L 256 173.892 Z " fill="rgb(0,172,71)"/><path d=" M 431.359 477.691 C 439.276 472.999 446.021 466.548 450.712 458.337 L 460.096 442.208 L 504.962 364.499 C 509.654 356.289 512 347.198 512 338.108 L 350.705 338.108 L 385.026 405.553 L 431.359 477.691 Z " fill="rgb(234,67,53)"/><path d=" M 256 173.892 L 336.641 34.309 C 328.724 29.617 319.633 27.271 310.25 27.271 L 201.75 27.271 C 192.367 27.271 183.276 29.911 175.359 34.309 L 256 173.892 Z " fill="rgb(0,131,45)"/><path d=" M 350.717 338.108 L 161.283 338.108 L 80.641 477.691 C 88.559 482.383 97.649 484.729 107.033 484.729 L 404.967 484.729 C 414.351 484.729 423.441 482.089 431.359 477.691 L 350.717 338.108 Z " fill="rgb(38,132,252)"/><path d=" M 430.479 182.69 L 355.995 53.663 C 351.304 45.452 344.559 39.001 336.641 34.309 L 256 173.892 L 350.717 338.108 L 511.707 338.108 C 511.707 329.017 509.361 319.927 504.669 311.716 L 430.479 182.69 Z " fill="rgb(255,186,0)"/></g></g></svg>