<?xml version="1.0" encoding="UTF-8" standalone="no"?><!-- Generator: Gravit.io --><svg xmlns="http://www.w3.org/2000/svg" xmlns:xlink="http://www.w3.org/1999/xlink" style="isolation:isolate" viewBox="0 0 512 512" width="512pt" height="512pt"><defs><clipPath id="_clipPath_w8rXqtxVAY5sjoRxY8tJOF0nflyeb035"><rect width="512" height="512"/></clipPath></defs><g clip-path="url(#_clipPath_w8rXqtxVAY5sjoRxY8tJOF0nflyeb035)"><path d=" M 512 270.545 C 504.989 405.673 392.844 512 256 512 C 114.647 512 0 397.382 0 256 C 0 114.618 114.647 0 256 0 L 471.273 0 C 493.585 0 512 18.414 512 40.727 L 512 270.545 Z " fill="rgb(26,115,232)"/><g opacity="0.2"><path d=" M 471.273 0 L 256 0 C 114.618 0 0 114.56 0 255.854 L 0 255.796 C 0.785 115.171 115.113 2.909 256 2.909 L 471.273 2.909 C 493.615 2.909 512 21.323 512 43.636 L 512 40.727 C 512 18.414 493.615 0 471.273 0 Z " fill="rgb(255,255,255)"/></g><path d=" M 512 270.545 L 512 264.727 C 504.989 399.883 392.873 509.091 256 509.091 C 115.113 509.091 0.815 393.833 0.029 253.091 C 0.029 253.585 0 255.505 0 256 C 0 397.411 114.618 512.262 256 512 C 395.025 511.738 505.804 405.469 512 267.636" fill="rgb(26,35,126)" fill-opacity="0.2"/><path d=" M 360.727 305.454 C 360.727 330.123 341.527 346.153 317.091 346.182 L 171.636 346.182 C 147.229 346.211 128.029 330.298 128 305.658 L 128 320 C 128.029 344.669 147.229 363.665 171.636 363.636 L 317.091 363.636 C 341.498 363.607 360.756 344.669 360.727 320 L 360.727 305.454 Z  M 430.545 317.091 C 430.458 324.276 420.916 328.203 416 322.909 L 360.727 267.636 L 360.727 282.182 L 416 337.454 C 421.818 343.011 430.545 339.52 430.545 331.636 L 430.545 317.091 Z " fill="rgb(24,90,188)"/><path d=" M 416 177.454 L 360.727 232.727 L 360.727 267.665 L 416 322.909 C 421.149 328.378 430.545 324.596 430.545 317.091 L 430.545 183.273 C 430.545 175.942 421.265 172.276 416 177.454 Z " fill="rgb(241,243,244)"/><path d=" M 317.091 151.273 L 171.636 151.273 C 147.229 151.302 127.971 170.88 128 194.909 L 128 305.454 C 128.029 329.483 147.229 349.12 171.636 349.091 L 317.091 349.091 C 341.498 349.062 360.756 329.483 360.727 305.454 L 360.727 194.909 C 360.698 170.88 341.498 151.243 317.091 151.273 Z " fill="rgb(255,255,255)"/><path d=" M 360.727 271.127 L 360.756 267.636 L 372.364 279.273 L 372.364 221.091 L 360.727 232.727 L 360.727 271.127 Z " fill="rgb(189,193,198)"/></g></svg>