<?xml version="1.0" encoding="UTF-8" standalone="no"?><!-- Generator: Gravit.io --><svg xmlns="http://www.w3.org/2000/svg" xmlns:xlink="http://www.w3.org/1999/xlink" style="isolation:isolate" viewBox="0 0 512 512" width="512pt" height="512pt"><defs><clipPath id="_clipPath_AqvG3TjOqcsurd5EuEhB2Sz9LaU73Lny"><rect width="512" height="512"/></clipPath></defs><g clip-path="url(#_clipPath_AqvG3TjOqcsurd5EuEhB2Sz9LaU73Lny)"><path d=" M 69.894 413.103 L 132.914 9.847 C 133.684 4.902 137.53 1.003 142.465 0.165 C 147.4 -0.673 152.317 1.738 154.677 6.152 L 219.85 127.711 L 245.828 78.249 C 247.84 74.425 251.806 72.03 256.128 72.03 C 260.449 72.03 264.415 74.425 266.427 78.249 L 442.306 413.102 L 69.894 413.102 L 69.894 413.103 Z " fill="rgb(255,160,0)"/><path d=" M 287.611 256.02 L 219.82 127.653 L 69.894 413.103 L 287.611 256.02 Z " fill="rgb(245,124,0)"/><path d=" M 442.309 413.103 L 394.041 114.415 C 393.312 110.125 390.25 106.602 386.105 105.274 C 381.959 103.945 377.422 105.051 374.344 108.126 L 69.894 413.099 L 238.354 507.57 C 248.933 513.477 261.816 513.477 272.395 507.57 L 442.309 413.099 L 442.309 413.103 Z " fill="rgb(255,202,40)"/><path d=" M 394.041 114.415 C 393.311 110.125 390.25 106.602 386.105 105.274 C 381.959 103.945 377.422 105.051 374.343 108.126 L 313.917 168.706 L 266.401 78.247 C 264.389 74.423 260.423 72.028 256.101 72.028 C 251.78 72.028 247.814 74.423 245.802 78.247 L 219.824 127.709 L 154.647 6.152 C 152.284 1.737 147.361 -0.671 142.42 0.174 C 137.48 1.019 133.646 4.927 132.884 9.876 L 69.894 413.103 L 69.691 413.103 L 69.894 413.336 L 71.552 414.15 L 374.256 111.098 C 377.333 108.006 381.881 106.894 386.037 108.219 C 390.194 109.543 393.26 113.08 393.982 117.382 L 441.843 413.393 L 442.309 413.102 L 394.041 114.414 L 394.041 114.415 Z  M 70.447 412.55 L 132.914 12.728 C 133.675 7.779 137.517 3.87 142.453 3.026 C 147.39 2.181 152.313 4.588 154.681 9.004 L 219.85 130.562 L 245.828 81.101 C 247.84 77.276 251.806 74.882 256.128 74.882 C 260.449 74.882 264.415 77.276 266.427 81.101 L 312.979 169.637 L 70.444 412.55 L 70.447 412.55 Z " fill="rgb(255,255,255)" fill-opacity="0.2"/><g opacity="0.2"><path d=" M 272.395 504.723 C 261.816 510.63 248.933 510.63 238.354 504.723 L 70.302 410.514 L 69.894 413.104 L 238.354 507.547 C 248.932 513.453 261.816 513.453 272.394 507.547 L 442.309 413.104 L 441.872 410.428 L 272.395 504.724 L 272.395 504.723 Z " fill="rgb(165,39,20)"/></g><linearGradient id="_lgradient_2" x1="0" y1="0.5" x2="0.7060420327229979" y2="1.2081699287800753" gradientTransform="matrix(371.113,0,0,511.745,70.545,0.118)" gradientUnits="userSpaceOnUse"><stop offset="0.5967711583710112%" stop-opacity="0.1" style="stop-color:rgb(255,255,255)"/><stop offset="15.201571158371015%" stop-opacity="0.08" style="stop-color:rgb(255,255,255)"/><stop offset="64.23197115837101%" stop-opacity="0.02" style="stop-color:rgb(255,255,255)"/><stop offset="100%" stop-opacity="0.0008282208588957074" style="stop-color:rgb(255,255,255)"/></linearGradient><path d=" M 393.558 114.476 C 392.831 110.188 389.781 106.663 385.65 105.343 C 381.519 104.023 376.998 105.12 373.93 108.195 L 313.711 168.744 L 266.365 78.327 C 264.36 74.504 260.408 72.11 256.102 72.11 C 251.796 72.11 247.844 74.504 245.838 78.327 L 219.948 127.767 L 155.003 6.261 C 152.647 1.848 147.741 -0.559 142.822 0.286 C 137.903 1.131 134.074 5.036 133.316 9.984 L 70.545 413.034 L 238.416 507.435 C 248.958 513.339 261.796 513.339 272.338 507.435 L 441.658 413.034 L 393.558 114.476 L 393.558 114.476 Z " fill="url(#_lgradient_2)"/></g></svg>