<?xml version="1.0" encoding="UTF-8" standalone="no"?><!-- Generator: Gravit.io --><svg xmlns="http://www.w3.org/2000/svg" xmlns:xlink="http://www.w3.org/1999/xlink" style="isolation:isolate" viewBox="0 0 512 512" width="512pt" height="512pt"><defs><clipPath id="_clipPath_pIWYJlJfAyrc9vb4W1RZg7qUzMi0oXLY"><rect width="512" height="512"/></clipPath></defs><g clip-path="url(#_clipPath_pIWYJlJfAyrc9vb4W1RZg7qUzMi0oXLY)"><g><path d=" M 111.156 41.705 C 139.93 37.973 169.827 44.378 194.454 59.731 C 208.355 67.925 219.474 79.786 230.876 91.014 C 239.147 99.11 247.331 107.305 255.624 115.379 L 255.929 116.219 C 237.62 134.245 219.409 152.369 201.077 170.373 C 187.645 157.443 174.65 144.055 161.272 131.059 C 148.55 119.144 129.324 114.343 112.662 119.809 C 93.687 125.145 79.207 143.291 78.203 162.986 C 77.549 173.232 80.222 183.641 85.765 192.283 C 89.213 197.848 94.254 202.093 98.772 206.741 C 109.628 217.652 120.747 228.313 131.44 239.377 C 113.12 257.381 94.712 275.287 76.567 293.454 C 62.131 279.88 48.328 265.575 34.023 251.849 C 16.99 234.129 5.599 211.138 1.671 186.882 C -2.65 160.858 1.452 133.46 13.499 109.967 C 23.613 90.272 38.922 73.163 57.548 61.149 C 73.741 50.969 92.083 43.833 111.156 41.705 L 111.156 41.705 Z " fill="rgb(234,67,53)"/><path d=" M 359.261 43.156 C 374.875 40.221 390.98 39.894 406.671 42.458 C 443.246 48.656 476.886 71.493 495.326 103.802 C 516.331 139.297 517.477 185.354 498.84 222.082 C 491.115 237.86 479.319 251.172 466.76 263.273 C 456.34 273.235 446.443 283.863 435.848 293.574 C 417.517 275.505 399.164 257.446 380.985 239.213 C 393.937 226.131 407.096 213.266 420.092 200.227 C 428.472 191.759 433.72 180.15 434.146 168.202 C 434.724 154.639 429.367 140.879 419.535 131.474 C 409.519 121.992 395.487 116.601 381.673 117.747 C 369.79 118.314 358.322 123.705 349.942 132.107 C 318.67 163.051 287.474 194.084 256.169 225.007 C 237.762 206.915 219.332 188.846 201.186 170.493 C 201.165 170.46 201.11 170.406 201.077 170.373 C 219.409 152.369 237.62 134.245 255.929 116.219 C 269.197 103.148 282.422 90.021 295.701 76.938 C 312.898 59.665 335.572 48.35 359.261 43.156 L 359.261 43.156 Z " fill="rgb(66,133,244)"/><path d=" M 131.44 239.377 C 154.562 216.299 177.825 193.331 201.186 170.493 C 219.332 188.846 237.762 206.915 256.169 225.007 C 233.004 247.833 209.905 270.726 186.729 293.531 C 168.332 311.709 149.892 329.822 131.528 348.022 C 113.731 330.695 96.196 313.095 78.509 295.658 C 78.018 295.102 77.047 294.011 76.567 293.454 C 94.712 275.287 113.12 257.381 131.44 239.377 Z " fill="rgb(251,188,5)"/><path d=" M 256.169 362.229 C 297.829 321.278 339.238 280.066 380.985 239.213 C 399.164 257.446 417.517 275.505 435.848 293.574 C 376.01 352.878 316.073 412.094 256.169 471.333 C 214.575 430.284 173.002 389.191 131.528 348.022 C 149.892 329.822 168.332 311.709 186.729 293.531 C 209.861 316.445 233.004 339.337 256.169 362.229 Z " fill="rgb(52,168,83)"/></g></g></svg>