<?xml version="1.0" encoding="UTF-8" standalone="no"?><!-- Generator: Gravit.io --><svg xmlns="http://www.w3.org/2000/svg" xmlns:xlink="http://www.w3.org/1999/xlink" style="isolation:isolate" viewBox="0 0 512 512" width="512pt" height="512pt"><defs><clipPath id="_clipPath_v2BTRfe1DOHKUuxK5mcleIOBGq2N437q"><rect width="512" height="512"/></clipPath></defs><g clip-path="url(#_clipPath_v2BTRfe1DOHKUuxK5mcleIOBGq2N437q)"><g><path d=" M 0 452.267 C 0 452.267 247.467 59.733 247.467 59.733 C 247.467 59.733 401.067 59.733 401.067 59.733 C 401.067 59.733 401.067 114.347 401.067 114.347 C 401.067 114.347 187.733 452.267 187.733 452.267" fill="rgb(251,188,4)"/><path d=" M 401.067 452.267 C 401.067 452.267 247.467 452.267 247.467 452.267 C 247.467 452.267 247.467 59.733 247.467 59.733 C 247.467 59.733 401.067 59.733 401.067 59.733 C 401.067 59.733 401.067 452.267 401.067 452.267 Z " fill="rgb(26,115,232)"/><path d=" M 512 341.333 C 512 402.603 462.336 452.267 401.067 452.267 C 401.067 452.267 401.067 230.4 401.067 230.4 C 462.336 230.4 512 280.064 512 341.333 Z " fill="rgb(52,168,83)"/><path d=" M 401.067 452.267 C 339.797 452.267 290.133 402.603 290.133 341.333 C 290.133 280.064 339.797 230.4 401.067 230.4 C 401.067 230.4 401.067 452.267 401.067 452.267 Z " fill="rgb(13,101,45)"/><path d=" M 486.4 145.067 C 486.4 192.188 448.205 230.4 401.067 230.4 C 401.067 230.4 401.067 59.733 401.067 59.733 C 448.205 59.733 486.4 97.946 486.4 145.067 Z " fill="rgb(26,115,232)"/><path d=" M 401.067 230.4 C 353.929 230.4 315.733 192.188 315.733 145.067 C 315.733 97.946 353.929 59.733 401.067 59.733 C 401.067 59.733 401.067 230.4 401.067 230.4 Z " fill="rgb(23,78,166)"/><path d=" M 8.533 136.533 C 8.533 94.123 42.923 59.733 85.333 59.733 C 127.744 59.733 162.133 94.123 162.133 136.533 C 162.133 178.944 127.744 213.333 85.333 213.333 C 42.923 213.333 8.533 178.944 8.533 136.533 Z " fill="rgb(234,67,53)"/></g></g></svg>