<?xml version="1.0" encoding="UTF-8" standalone="no"?><!-- Generator: Gravit.io --><svg xmlns="http://www.w3.org/2000/svg" xmlns:xlink="http://www.w3.org/1999/xlink" style="isolation:isolate" viewBox="0 0 512 512" width="512pt" height="512pt"><defs><clipPath id="_clipPath_cbQZQ8zlVaMZKcFd4IfLefoTJl7PtPUY"><rect width="512" height="512"/></clipPath></defs><g clip-path="url(#_clipPath_cbQZQ8zlVaMZKcFd4IfLefoTJl7PtPUY)"><g><path d=" M 34.909 448.05 L 116.364 448.05 L 116.364 250.231 L 0 162.959 L 0 413.14 C 0 432.457 15.651 448.05 34.909 448.05 Z " fill="rgb(66,133,244)"/><path d=" M 395.636 448.05 L 477.091 448.05 C 496.407 448.05 512 432.399 512 413.14 L 512 162.959 L 395.636 250.231" fill="rgb(52,168,83)"/><path d=" M 395.636 98.959 L 395.636 250.231 L 512 162.959 L 512 116.413 C 512 73.242 462.72 48.631 428.218 74.522" fill="rgb(251,188,4)"/><path d=" M 116.364 250.231 L 116.364 98.959 L 256 203.686 L 395.636 98.959 L 395.636 250.231 L 256 354.959" fill="rgb(234,67,53)"/><path d=" M 0 116.413 L 0 162.959 L 116.364 250.231 L 116.364 98.959 L 83.782 74.522 C 49.222 48.631 0 73.242 0 116.413 Z " fill="rgb(197,34,31)"/></g></g></svg>