<?xml version="1.0" encoding="UTF-8" standalone="no"?><!-- Generator: Gravit.io --><svg xmlns="http://www.w3.org/2000/svg" xmlns:xlink="http://www.w3.org/1999/xlink" style="isolation:isolate" viewBox="0 0 512 512" width="512pt" height="512pt"><defs><clipPath id="_clipPath_CiFU8hHIXzYGyifij3KgTbhSFodo9EDd"><rect width="512" height="512"/></clipPath></defs><g clip-path="url(#_clipPath_CiFU8hHIXzYGyifij3KgTbhSFodo9EDd)"><path d=" M 38.639 218.276 C 37.641 218.276 37.392 217.777 37.891 217.029 L 43.127 210.298 C 43.625 209.55 44.871 209.052 45.868 209.052 L 134.863 209.052 C 135.86 209.052 136.109 209.8 135.611 210.548 L 131.373 217.029 C 130.875 217.777 129.628 218.525 128.88 218.525 L 38.639 218.276 L 38.639 218.276 Z " fill="rgb(0,172,215)"/><path d=" M 0.997 241.21 C 0 241.21 -0.249 240.712 0.249 239.964 L 5.484 233.233 C 5.983 232.485 7.229 231.986 8.227 231.986 L 121.9 231.986 C 122.897 231.986 123.396 232.734 123.147 233.482 L 121.152 239.465 C 120.903 240.462 119.905 240.961 118.909 240.961 L 0.997 241.21 L 0.997 241.21 Z " fill="rgb(0,172,215)"/><path d=" M 61.324 264.144 C 60.327 264.144 60.077 263.397 60.576 262.649 L 64.067 256.417 C 64.565 255.669 65.561 254.921 66.559 254.921 L 116.416 254.921 C 117.413 254.921 117.912 255.669 117.912 256.665 L 117.413 262.649 C 117.413 263.645 116.416 264.393 115.668 264.393 L 61.324 264.144 L 61.324 264.144 Z " fill="rgb(0,172,215)"/><path d=" M 320.081 213.789 C 304.376 217.777 293.657 220.769 278.201 224.757 C 274.463 225.754 274.213 226.004 270.972 222.265 C 267.233 218.026 264.491 215.285 259.256 212.792 C 243.551 205.064 228.344 207.308 214.136 216.53 C 197.184 227.5 188.459 243.702 188.708 263.894 C 188.957 283.838 202.668 300.29 222.361 303.033 C 239.313 305.276 253.523 299.293 264.74 286.58 C 266.984 283.838 268.979 280.846 271.471 277.356 C 262.496 277.356 251.279 277.356 223.359 277.356 C 218.124 277.356 216.877 274.116 218.623 269.878 C 221.863 262.15 227.847 249.188 231.336 242.706 C 232.084 241.21 233.829 238.717 237.568 238.717 C 250.281 238.717 297.147 238.717 328.308 238.717 C 327.809 245.448 327.809 252.178 326.812 258.909 C 324.069 276.858 317.339 293.31 306.371 307.769 C 288.423 331.452 264.989 346.158 235.324 350.148 C 210.895 353.388 188.209 348.652 168.267 333.694 C 149.82 319.734 139.351 301.288 136.608 278.353 C 133.367 251.181 141.344 226.752 157.797 205.313 C 175.496 182.129 198.929 167.422 227.597 162.186 C 251.029 157.949 273.465 160.692 293.657 174.402 C 306.869 183.126 316.343 195.093 322.575 209.55 C 324.069 211.794 323.073 213.041 320.081 213.789 Z " fill="rgb(0,172,215)"/><path d=" M 402.595 351.644 C 379.909 351.145 359.219 344.664 341.769 329.706 C 327.061 316.993 317.837 300.789 314.847 281.594 C 310.359 253.425 318.087 228.497 335.039 206.31 C 353.236 182.378 375.173 169.914 404.839 164.68 C 430.266 160.193 454.196 162.685 475.884 177.393 C 495.578 190.854 507.792 209.052 511.034 232.984 C 515.271 266.637 505.55 294.058 482.366 317.492 C 465.914 334.193 445.722 344.664 422.537 349.4 C 415.807 350.646 409.076 350.896 402.595 351.644 Z  M 461.924 250.932 C 461.675 247.692 461.675 245.198 461.176 242.706 C 456.69 218.026 434.004 204.066 410.323 209.55 C 387.139 214.786 372.181 229.493 366.697 252.926 C 362.211 272.37 371.683 292.064 389.632 300.041 C 403.343 306.024 417.053 305.276 430.266 298.545 C 449.959 288.325 460.678 272.37 461.924 250.932 Z " fill="rgb(0,172,215)"/></g></svg>