<?xml version="1.0" encoding="UTF-8" standalone="no"?><!-- Generator: Gravit.io --><svg xmlns="http://www.w3.org/2000/svg" xmlns:xlink="http://www.w3.org/1999/xlink" style="isolation:isolate" viewBox="0 0 512 512" width="512pt" height="512pt"><defs><clipPath id="_clipPath_MShvVs8QaRmIKWXEl9xIFpaRWbdN1zZR"><rect width="512" height="512"/></clipPath></defs><g clip-path="url(#_clipPath_MShvVs8QaRmIKWXEl9xIFpaRWbdN1zZR)"><g><path d=" M 72.906 277.17 C 73.64 292.299 88.769 285.249 95.526 280.549 C 101.989 275.995 103.898 279.814 104.486 271.001 C 104.926 265.126 105.514 259.397 105.22 253.522 C 95.379 252.641 84.803 254.991 76.725 260.866 C 72.465 263.804 64.827 273.498 72.906 277.17 Z " fill="rgb(246,210,162)"/><path d=" M 374.459 463.126 C 386.063 470.323 407.361 492.062 389.882 502.637 C 373.137 517.913 363.736 485.746 349.048 481.339 C 355.364 472.673 363.296 464.741 374.459 463.126 L 374.459 463.126 L 374.459 463.126 Z " fill="rgb(246,210,162)"/><path d=" M 166.765 487.655 C 153.104 489.712 145.466 502.05 134.01 508.366 C 123.287 514.682 119.174 506.309 118.293 504.547 C 116.677 503.812 116.824 505.281 114.18 502.637 C 104.192 486.921 124.462 475.464 135.038 467.679 C 149.726 464.741 158.98 477.52 166.765 487.655 L 166.765 487.655 L 166.765 487.655 Z " fill="rgb(246,210,162)"/><path d=" M 438.941 275.261 C 438.207 290.39 423.077 283.339 416.321 278.639 C 409.858 274.086 407.948 277.905 407.361 269.092 C 406.92 263.216 406.333 257.488 406.626 251.612 C 416.468 250.731 427.043 253.081 435.122 258.957 C 439.235 261.894 447.02 271.589 438.941 275.261 Z " fill="rgb(246,210,162)"/><path d=" M 398.842 90.774 C 451.279 72.267 410.299 0.441 364.618 32.168 C 334.653 6.463 293.379 1.763 250.048 1.763 C 207.598 5.141 167.205 12.926 139.004 37.602 C 93.47 8.226 51.461 78.73 104.926 96.503 C 89.944 154.669 106.983 214.01 104.633 273.204 C 102.429 326.376 88.475 397.615 117.999 445.353 C 143.116 486.186 197.17 500.728 241.676 502.344 C 298.52 504.4 367.408 490.446 395.023 435.364 C 421.462 382.927 414.118 317.563 410.739 261.013 C 407.361 203.875 413.677 145.856 398.842 90.774 L 398.842 90.774 Z " fill="rgb(105,215,226)"/><path d=" M 442.907 266.301 C 441.438 263.216 438.647 259.691 436.003 257.782 C 429.247 252.934 420.58 250.291 411.62 249.997 C 411.327 240.89 411.033 230.902 411.033 218.27 L 411.033 206.813 C 410.886 170.679 410.445 154.816 408.389 134.986 C 406.773 119.417 404.276 105.022 400.751 91.509 C 412.649 86.955 420.434 79.464 423.518 69.77 C 426.456 60.81 424.987 50.675 419.993 41.715 C 414.852 32.902 406.626 26.292 397.079 23.648 C 386.797 20.858 375.634 22.914 364.911 30.111 C 355.364 22.033 344.348 15.863 332.009 11.163 C 310.124 3.085 284.713 0 250.195 0 L 250.195 1.469 L 250.048 0 C 213.18 2.938 185.86 8.666 163.239 19.682 C 154.133 24.089 146.054 29.377 139.004 35.546 C 128.134 28.789 116.824 27.174 106.395 30.405 C 96.701 33.343 88.329 40.246 83.335 49.206 C 78.34 58.166 77.165 68.448 80.544 77.261 C 83.922 86.074 91.707 92.978 103.311 97.237 C 99.639 112.073 97.729 127.789 97.435 145.121 C 97.142 162.013 97.876 175.527 100.52 206.078 C 102.429 228.845 103.164 239.274 103.458 251.906 C 93.47 251.466 83.481 254.109 75.99 259.544 C 73.346 261.454 70.409 264.832 69.087 268.063 C 67.177 272.176 67.912 275.848 71.731 278.052 C 72.318 285.102 76.284 288.333 82.306 287.746 C 86.713 287.305 92.001 284.955 96.554 281.724 C 97.582 280.989 98.61 280.402 99.639 279.961 C 100.079 279.814 100.373 279.667 100.814 279.52 C 100.814 279.52 101.695 279.227 101.989 279.08 C 102.429 278.933 102.87 278.786 103.164 278.492 C 102.87 285.396 102.283 292.593 100.961 309.044 C 99.492 327.552 98.757 337.687 98.464 348.997 C 97.142 391.005 102.136 421.557 117.118 445.793 C 121.818 453.431 127.547 460.188 134.303 466.357 C 132.981 467.238 127.4 471.351 125.637 472.673 C 119.468 477.373 115.208 481.339 112.711 485.746 C 109.48 491.474 109.48 497.203 113.152 503.225 L 113.299 503.372 L 113.446 503.519 C 115.061 505.134 115.943 505.575 117.118 505.575 L 117.265 505.575 L 117.559 505.575 L 117.559 505.575 C 117.705 505.869 117.852 506.016 117.999 506.309 C 118.44 507.044 118.88 507.631 119.321 508.219 C 122.993 512.479 128.134 513.507 135.038 509.394 C 138.71 507.485 141.354 505.281 146.935 500.581 C 147.082 500.434 147.082 500.434 147.229 500.287 C 156.189 492.649 160.596 489.858 167.205 488.83 L 169.555 488.39 C 170.437 488.83 171.318 489.124 172.346 489.565 C 193.204 497.937 217.44 502.491 241.969 503.372 C 273.696 504.547 304.248 500.581 330.1 491.18 C 337.003 488.683 343.466 485.746 349.635 482.514 C 353.454 483.983 356.686 487.068 362.855 494.265 C 363.149 494.559 363.149 494.559 363.296 494.853 C 363.589 495.146 363.589 495.293 363.736 495.44 C 364.03 495.881 364.471 496.174 364.764 496.615 C 369.612 502.344 372.843 505.134 376.515 506.75 C 381.362 508.807 386.063 507.778 390.91 503.372 C 399.429 498.084 400.017 489.858 394.435 480.458 C 390.469 473.848 383.566 466.945 377.103 462.538 C 384.741 455.047 391.35 446.087 396.491 435.952 C 410.592 407.75 416.027 374.848 415.733 332.546 C 415.586 317.563 414.999 304.491 413.383 279.52 L 413.383 278.786 C 414.118 279.08 414.852 279.52 415.586 280.108 C 420.14 283.193 425.428 285.69 429.834 286.13 C 435.856 286.718 439.822 283.486 440.41 276.436 L 440.41 276.436 C 444.082 274.086 444.816 270.414 442.907 266.301 L 442.907 266.301 Z  M 396.198 26.733 C 405.011 29.083 412.649 35.252 417.349 43.478 C 422.049 51.703 423.371 60.957 420.727 69.182 C 417.937 77.849 410.886 84.752 399.87 88.865 C 397.666 80.933 395.023 73.148 392.085 65.657 C 396.345 61.985 398.401 57.432 395.023 50.969 C 391.644 44.506 385.769 43.771 379.747 45.681 C 375.928 40.687 371.668 36.28 367.261 32.168 C 376.956 25.998 386.944 24.236 396.198 26.733 L 396.198 26.733 Z  M 83.041 76.38 C 79.956 68.448 80.984 59.047 85.685 50.822 C 90.385 42.596 98.023 36.133 107.13 33.49 C 116.53 30.699 126.665 32.021 136.653 37.896 C 130.925 43.037 125.784 48.912 121.378 55.375 C 113.74 51.409 105.955 50.675 101.548 58.754 C 96.995 67.42 102.283 72.855 109.774 76.967 C 108.745 79.464 107.717 82.108 106.836 84.752 C 105.808 87.984 104.78 91.362 103.898 94.74 C 93.176 90.627 86.125 84.311 83.041 76.38 L 83.041 76.38 Z  M 100.814 276.583 C 100.667 276.583 99.786 276.877 99.786 277.023 C 99.345 277.17 98.904 277.317 98.464 277.611 C 97.289 278.052 96.113 278.786 94.938 279.667 C 90.826 282.605 85.832 284.808 82.013 285.102 C 77.606 285.543 75.109 283.633 74.668 278.345 C 77.753 277.317 79.075 276.583 80.25 274.82 L 77.9 273.058 C 77.019 274.233 76.137 274.673 73.493 275.555 L 73.493 275.555 C 73.346 275.555 73.346 275.555 73.2 275.701 C 70.849 274.38 70.409 272.323 71.731 269.385 C 72.906 266.742 75.55 263.657 77.753 262.041 C 84.803 256.9 94.204 254.403 103.605 254.991 C 103.605 258.663 103.751 262.335 103.605 265.86 C 103.605 266.301 103.605 266.595 103.458 267.035 C 103.311 269.092 103.311 269.973 103.164 271.001 L 103.164 271.001 C 102.723 275.261 102.429 275.848 100.814 276.583 L 100.814 276.583 Z  M 145.173 498.231 C 145.026 498.378 145.026 498.378 144.879 498.525 C 139.444 503.225 136.8 505.134 133.422 507.044 C 127.84 510.422 124.021 509.688 121.378 506.456 C 120.937 506.016 120.643 505.428 120.349 504.988 C 120.202 504.841 120.056 504.547 119.909 504.4 C 119.909 504.4 119.909 504.4 119.909 504.253 C 120.202 501.609 121.231 499.7 123.875 495.587 C 124.021 495.44 124.021 495.44 124.021 495.293 C 125.637 492.943 126.372 491.621 127.106 490.005 L 124.462 488.83 C 123.875 490.152 123.14 491.327 121.671 493.677 C 121.524 493.824 121.524 493.824 121.524 493.971 C 118.88 497.79 117.705 500.14 117.118 502.784 L 116.971 502.784 C 116.971 502.784 116.971 502.784 116.824 502.784 L 116.53 502.784 C 116.237 502.637 115.796 502.344 115.208 501.756 C 109.48 492.649 114.033 484.864 126.959 475.17 C 128.575 473.995 134.01 470.176 135.478 469.001 C 135.772 469.001 136.066 468.854 136.36 468.707 C 144.291 475.464 153.545 481.339 163.827 486.186 L 163.827 486.186 C 163.827 486.333 163.974 486.48 164.121 486.627 C 158.099 488.096 153.398 491.18 145.173 498.231 L 145.173 498.231 Z  M 391.791 482.221 C 396.345 489.858 396.198 496.028 390.469 500.287 C 390.029 499.406 389.735 498.378 389.147 496.909 C 389.147 496.762 389.147 496.762 389 496.615 C 386.944 491.034 385.622 488.683 383.125 486.039 L 381.069 488.096 C 383.272 490.152 384.3 492.356 386.356 497.496 C 386.356 497.643 386.356 497.643 386.503 497.79 C 387.238 499.7 387.678 500.875 388.119 501.903 C 384.3 505.134 380.922 505.722 377.396 504.106 C 374.312 502.784 371.374 499.993 366.674 494.706 C 366.38 494.412 366.086 493.971 365.793 493.531 C 365.646 493.384 365.499 493.237 365.352 492.943 C 365.058 492.649 365.058 492.649 364.911 492.356 C 359.477 486.039 356.245 482.661 352.72 480.752 C 360.945 476.051 368.29 470.764 374.899 464.594 C 381.069 469.148 387.972 475.904 391.791 482.221 L 391.791 482.221 Z  M 393.848 434.63 C 381.215 460.041 358.889 477.961 328.925 488.83 C 303.367 498.084 273.109 501.903 241.822 500.728 C 187.916 498.818 141.207 480.017 119.321 444.471 C 104.633 420.823 99.786 390.712 101.107 349.29 C 101.548 337.98 102.136 327.845 103.605 309.338 C 105.22 288.48 105.661 282.458 106.102 273.058 C 106.395 266.301 106.395 259.397 106.248 252.053 C 105.955 239.127 105.22 228.845 103.311 205.785 C 100.667 175.233 99.932 161.866 100.226 145.121 C 100.667 123.089 103.605 103.7 109.774 85.34 C 119.762 55.522 138.122 35.399 164.561 22.326 C 186.741 11.457 213.621 5.875 250.195 2.938 C 284.419 2.938 309.389 6.022 330.981 13.954 C 356.833 23.501 376.075 40.246 389.294 65.951 C 397.813 86.809 402.807 109.282 405.451 135.133 C 407.508 154.816 407.948 170.679 408.095 206.666 L 408.095 218.123 C 408.242 235.896 408.536 248.381 409.27 260.866 C 409.564 265.713 409.711 267.77 410.445 279.374 C 412.061 304.344 412.649 317.27 412.796 332.252 C 413.089 374.408 407.802 406.869 393.848 434.63 L 393.848 434.63 Z  M 438.794 273.792 L 438.794 273.792 C 438.647 273.792 438.5 273.645 438.353 273.645 C 435.709 272.764 434.828 272.176 433.947 271.148 L 431.597 272.911 C 432.919 274.673 434.241 275.408 437.178 276.436 C 436.591 281.724 434.094 283.633 429.834 283.193 C 426.015 282.899 421.021 280.549 416.908 277.758 C 415.733 276.877 414.558 276.289 413.383 275.701 C 413.236 275.701 413.089 275.555 412.942 275.555 C 412.355 267.476 412.355 265.42 412.061 261.16 C 411.914 258.516 411.767 255.872 411.62 253.228 C 419.846 253.375 427.925 255.872 434.094 260.426 C 436.297 262.041 438.941 265.126 440.116 267.77 C 441.585 270.267 441.291 272.47 438.794 273.792 L 438.794 273.792 Z " fill="rgb(0,0,0)"/><path d=" M 272.316 153.244 C 272.463 160.735 273.932 168.96 272.61 176.892 C 270.554 180.711 266.735 181.152 263.356 182.621 C 258.656 181.886 254.69 178.802 252.781 174.395 C 251.606 165.435 253.074 156.916 253.515 147.956 C 253.515 147.662 259.097 148.103 264.091 149.572 C 268.35 150.894 272.316 153.097 272.316 153.244 L 272.316 153.244 Z " fill="rgb(255,255,255)"/><path d=" M 230.748 153.831 C 226.635 169.401 236.183 194.812 251.899 173.954 C 250.724 165.141 252.046 156.622 252.487 147.956 C 252.634 147.222 230.895 152.803 230.748 153.831 L 230.748 153.831 Z " fill="rgb(255,255,255)"/><path d=" M 274.079 160.147 C 273.785 155.741 273.638 153.978 273.638 151.775 L 273.638 150.747 L 272.61 150.453 L 254.103 144.725 L 254.103 143.696 L 252.193 144.137 L 252.046 144.137 L 252.046 144.284 L 231.189 149.572 L 230.454 149.719 L 230.161 150.453 C 226.929 158.238 227.663 169.989 231.776 177.186 C 236.477 185.411 244.114 185.558 251.899 176.158 C 254.103 180.417 258.215 183.355 262.916 184.089 L 263.356 184.089 L 263.797 183.943 C 264.385 183.649 264.972 183.502 266 183.061 C 266.147 183.061 266.147 183.061 266.294 182.914 C 270.554 181.446 272.316 180.27 273.785 177.48 L 273.932 177.333 L 273.932 177.039 C 274.373 174.395 274.52 171.604 274.52 168.52 C 274.52 166.316 274.373 164.26 274.079 160.147 L 274.079 160.147 Z  M 250.577 154.713 C 250.431 157.357 250.284 158.385 250.137 159.854 C 249.843 165.288 249.843 169.401 250.284 173.514 C 243.38 182.327 237.945 182.327 234.273 175.717 C 230.748 169.548 230.014 159.119 232.658 152.216 L 251.165 147.515 C 251.018 149.425 250.871 151.334 250.577 154.713 L 250.577 154.713 Z  M 271.141 176.451 C 270.113 178.214 268.791 179.095 265.266 180.27 C 265.119 180.27 265.119 180.27 264.972 180.417 C 264.091 180.711 263.503 181.005 263.063 181.152 C 259.097 180.417 255.718 177.773 254.103 174.101 C 253.662 170.135 253.662 166.023 253.956 160.588 C 254.103 159.119 254.103 158.091 254.396 155.447 C 254.69 152.069 254.837 150.012 254.837 148.103 L 270.847 152.95 C 270.847 154.86 270.994 156.622 271.288 160.441 C 271.582 164.407 271.729 166.463 271.729 168.814 C 271.729 171.604 271.582 174.101 271.141 176.451 L 271.141 176.451 Z " fill="rgb(0,0,0)"/><path d=" M 142.33 89.249 C 155.844 141.833 240.008 128.32 236.777 75.589 C 232.958 12.428 129.405 24.62 142.33 89.249 Z " fill="rgb(255,255,255)"/><path d=" M 238.246 75.442 C 237.364 60.166 230.608 48.268 219.444 40.777 C 209.456 34.02 196.237 31.377 183.164 32.992 C 170.091 34.755 158.047 40.63 150.115 49.884 C 141.302 60.166 137.924 73.679 141.008 89.249 L 142.33 88.955 L 141.008 89.249 C 154.815 143.302 241.477 130.23 238.246 75.442 L 238.246 75.442 Z  M 143.652 88.955 C 140.715 74.12 143.946 61.488 152.172 51.94 C 159.663 43.274 170.973 37.546 183.458 35.93 C 195.943 34.314 208.428 36.811 217.829 43.274 C 228.258 50.325 234.574 61.341 235.455 75.882 C 238.539 127.145 156.725 139.483 143.652 88.955 L 143.652 88.955 Z " fill="rgb(0,0,0)"/><ellipse vector-effect="non-scaling-stroke" cx="165.538012067732" cy="80.58268326057461" rx="14.247757840084688" ry="15.422830696483487" fill="rgb(0,0,0)"/><ellipse vector-effect="non-scaling-stroke" cx="172.00091256411156" cy="84.10790172655054" rx="3.3783343275912614" ry="3.9658707336719914" fill="rgb(255,255,255)"/><path d=" M 260.365 79.418 C 270.794 139.787 369.5 123.777 355.252 62.967 C 342.473 8.326 256.84 23.455 260.365 79.418 Z " fill="rgb(255,255,255)"/><path d=" M 356.574 62.673 C 343.502 6.416 255.371 21.839 258.896 79.564 L 258.896 79.711 C 263.744 108.207 289.155 122.748 317.209 118.048 C 329.988 115.845 341.445 109.676 348.936 100.569 C 357.162 90.434 360.1 77.361 356.574 62.673 L 356.574 62.673 Z  M 346.733 98.806 C 339.683 107.326 328.96 113.201 316.769 115.257 C 290.183 119.664 266.388 106.004 261.687 79.271 C 258.456 24.924 341.592 10.382 353.93 63.26 C 357.162 77.214 354.518 89.406 346.733 98.806 L 346.733 98.806 Z " fill="rgb(0,0,0)"/><ellipse vector-effect="non-scaling-stroke" cx="284.6011527993818" cy="76.77370011854072" rx="13.953989637044288" ry="15.422830696483487" fill="rgb(0,0,0)"/><ellipse vector-effect="non-scaling-stroke" cx="291.0640532957615" cy="80.29891843705879" rx="3.2314502334439794" ry="3.9658707336719914" fill="rgb(255,255,255)"/><path d=" M 233.781 122.099 C 222.177 123.127 212.776 136.788 218.799 147.657 C 226.73 162.052 244.503 146.335 255.52 147.804 C 268.299 148.098 278.727 161.317 288.862 150.154 C 300.172 137.816 284.015 125.771 271.236 120.484 L 233.781 122.099 L 233.781 122.099 Z " fill="rgb(246,210,162)"/><path d=" M 290.331 131.941 C 286.365 126.946 279.462 122.393 271.971 119.308 L 271.677 119.162 L 271.383 119.162 L 233.781 120.63 C 220.708 121.806 211.308 136.935 217.624 148.392 C 220.121 152.798 223.499 155.001 228.052 155.295 C 231.431 155.442 234.956 154.708 240.391 152.798 C 240.831 152.651 241.419 152.504 242.153 152.211 C 249.497 149.713 252.435 148.979 255.373 149.42 L 255.52 149.42 C 259.045 149.42 261.983 150.448 267.564 152.651 C 273.733 155.148 275.643 155.883 278.727 156.176 C 282.987 156.47 286.659 155.001 290.037 151.329 C 295.766 145.013 295.472 138.257 290.331 131.941 L 290.331 131.941 Z  M 287.834 149.273 C 285.043 152.357 282.253 153.386 278.874 153.239 C 276.23 153.092 274.468 152.357 268.592 150.007 C 262.717 147.51 259.486 146.629 255.667 146.482 C 251.994 146.041 248.91 146.776 241.125 149.42 C 240.391 149.713 239.803 149.86 239.362 150.007 C 228.64 153.679 223.499 153.386 219.974 146.923 C 214.686 137.375 222.765 124.449 233.781 123.421 L 270.943 121.952 C 277.993 124.89 284.309 129.15 287.981 133.703 C 292.388 138.991 292.534 144.279 287.834 149.273 L 287.834 149.273 Z " fill="rgb(35,31,32)"/><g><path d=" M 274.174 115.783 C 269.621 99.038 231.431 101.536 232.312 121.512 C 234.221 136.347 278.58 132.381 274.174 115.783 L 274.174 115.783 Z " fill="rgb(0,0,0)"/></g></g></g></svg>