<?xml version="1.0" encoding="UTF-8" standalone="no"?><!-- Generator: Gravit.io --><svg xmlns="http://www.w3.org/2000/svg" xmlns:xlink="http://www.w3.org/1999/xlink" style="isolation:isolate" viewBox="0 0 512 512" width="512pt" height="512pt"><defs><clipPath id="_clipPath_Dk6mJj0fbptTSgUY0VHeBaYfr4uJbkSQ"><rect width="512" height="512"/></clipPath></defs><g clip-path="url(#_clipPath_Dk6mJj0fbptTSgUY0VHeBaYfr4uJbkSQ)"><g><path d=" M 175.88 379.379 C 190.692 398.254 204.173 418.137 216.225 438.883 C 226.515 458.396 230.804 471.626 238.325 495.135 C 242.936 508.124 247.105 512 256.065 512 C 265.832 512 270.262 505.405 273.685 495.206 C 280.794 473.005 286.371 456.06 295.171 440.051 C 312.439 409.141 333.894 381.674 354.978 355.275 C 360.687 347.804 397.587 304.278 414.2 269.935 C 414.2 269.935 434.619 232.208 434.619 179.52 C 434.619 130.235 414.482 96.053 414.482 96.053 L 356.508 111.578 L 321.299 204.309 L 312.59 217.096 L 310.848 219.411 L 308.532 222.311 L 304.464 226.942 L 298.655 232.752 L 267.302 258.296 L 188.919 303.553 L 175.88 379.379 Z " fill="rgb(52,168,83)"/><path d=" M 94.981 263.592 C 114.111 307.289 151.001 345.7 175.961 379.409 L 308.532 222.371 C 308.532 222.371 289.855 246.797 255.975 246.797 C 218.238 246.797 187.751 216.663 187.751 178.664 C 187.751 152.607 203.428 134.706 203.428 134.706 L 113.436 158.819 L 94.981 263.592 Z " fill="rgb(251,188,4)"/><path d=" M 310.012 8.075 C 354.041 22.271 391.728 52.074 414.522 96.023 L 308.572 222.281 C 308.572 222.281 324.249 204.057 324.249 178.161 C 324.249 139.277 291.506 110.229 256.136 110.229 C 222.689 110.229 203.478 134.615 203.478 134.615 L 203.478 55.074 L 310.012 8.075 Z " fill="rgb(66,133,244)"/><path d=" M 119.266 63.864 C 145.564 32.4 191.839 0 255.633 0 C 286.583 0 309.901 8.125 309.901 8.125 L 203.377 134.685 L 127.904 134.685 L 119.266 63.864 Z " fill="rgb(26,115,232)"/><path d=" M 94.981 263.592 C 94.981 263.592 77.381 229.127 77.381 179.198 C 77.381 132.007 95.726 90.757 119.266 63.864 L 203.438 134.696 L 94.981 263.592 Z " fill="rgb(234,67,53)"/></g></g></svg>