<?xml version="1.0" encoding="UTF-8" standalone="no"?><!-- Generator: Gravit.io --><svg xmlns="http://www.w3.org/2000/svg" xmlns:xlink="http://www.w3.org/1999/xlink" style="isolation:isolate" viewBox="0 0 512 512" width="512pt" height="512pt"><defs><clipPath id="_clipPath_937UfoBPAAEVDy4zGWl4bIZHamZAPBPv"><rect width="512" height="512"/></clipPath></defs><g clip-path="url(#_clipPath_937UfoBPAAEVDy4zGWl4bIZHamZAPBPv)"><path d=" M 407.273 512 L 104.727 512 C 85.44 512 69.818 496.378 69.818 477.091 L 69.818 34.909 C 69.818 15.622 85.44 0 104.727 0 L 314.182 0 L 442.182 128 L 442.182 477.091 C 442.182 496.378 426.56 512 407.273 512 Z " fill="rgb(71,88,181)"/><path d=" M 314.182 0 L 442.182 128 L 314.182 128 L 314.182 0 Z " fill="rgb(53,66,135)"/><path d=" M 360.727 197.818 L 151.273 197.818 L 151.273 226.909 L 360.727 226.909 L 360.727 197.818 Z " fill="rgb(255,255,255)"/><path d=" M 360.727 256 L 331.636 256 L 331.636 354.909 L 360.727 354.909 L 360.727 256 Z " fill="rgb(255,255,255)"/><path d=" M 302.545 256 L 151.273 256 L 151.273 354.909 L 302.545 354.909 L 302.545 256 Z " fill="rgb(255,255,255)"/></g></svg>