<?xml version="1.0" encoding="UTF-8" standalone="no"?><!-- Generator: Gravit.io --><svg xmlns="http://www.w3.org/2000/svg" xmlns:xlink="http://www.w3.org/1999/xlink" style="isolation:isolate" viewBox="0 0 512 512" width="512pt" height="512pt"><defs><clipPath id="_clipPath_JyWFrTPNd1DLPCMCoywYRE7mXh55cw1o"><rect width="512" height="512"/></clipPath></defs><g clip-path="url(#_clipPath_JyWFrTPNd1DLPCMCoywYRE7mXh55cw1o)"><clipPath id="_clipPath_XIFJxHg4lCgmvPR3UZ64tEbMV340xyjS"><path d=" M 484.455 124.917 L 265.825 0 L 265.825 512 L 353.169 461.315 L 353.169 317.256 L 419.134 355.439 L 418.761 256.881 L 353.169 219.409 L 353.169 162.185 L 484.76 238.213 L 484.455 124.917 L 484.455 124.917 Z " fill="rgb(255,255,255)"/></clipPath><g clip-path="url(#_clipPath_XIFJxHg4lCgmvPR3UZ64tEbMV340xyjS)"><g><linearGradient id="_lgradient_0" x1="0" y1="0.4999999999999999" x2="1" y2="0.4999999999999999" gradientTransform="matrix(536.902,0,0,514.507,7.352,-1.863)" gradientUnits="userSpaceOnUse"><stop offset="0%" stop-opacity="1" style="stop-color:rgb(255,111,0)"/><stop offset="100%" stop-opacity="1" style="stop-color:rgb(255,168,0)"/></linearGradient><rect x="7.352" y="-1.863" width="536.902" height="514.507" transform="matrix(1,0,0,1,0,0)" fill="url(#_lgradient_0)"/></g></g><clipPath id="_clipPath_IatZ0Y4tP6M2wyH4A9nCY4J3rr6m1lSY"><path d=" M 27.545 124.917 L 246.175 0 L 246.175 512 L 158.831 461.315 L 158.831 162.185 L 27.24 238.213 L 27.545 124.917 L 27.545 124.917 Z " fill="rgb(255,255,255)"/></clipPath><g clip-path="url(#_clipPath_IatZ0Y4tP6M2wyH4A9nCY4J3rr6m1lSY)"><g><linearGradient id="_lgradient_1" x1="0" y1="0.5" x2="1" y2="0.5" gradientTransform="matrix(536.902,0,0,514.507,3.727,-1.863)" gradientUnits="userSpaceOnUse"><stop offset="100%" stop-opacity="1" style="stop-color:rgb(255,111,0)"/><stop offset="100%" stop-opacity="1" style="stop-color:rgb(255,111,0)"/></linearGradient><rect x="3.727" y="-1.863" width="536.902" height="514.507" transform="matrix(1,0,0,1,0,0)" fill="url(#_lgradient_1)"/></g></g></g></svg>