<?xml version="1.0" encoding="UTF-8" standalone="no"?><!-- Generator: Gravit.io --><svg xmlns="http://www.w3.org/2000/svg" xmlns:xlink="http://www.w3.org/1999/xlink" style="isolation:isolate" viewBox="0 0 512 512" width="512pt" height="512pt"><defs><clipPath id="_clipPath_cCKylteRzePOrDnrfdUsyRZGqHaRMNj1"><rect width="512" height="512"/></clipPath></defs><g clip-path="url(#_clipPath_cCKylteRzePOrDnrfdUsyRZGqHaRMNj1)"><g><path d=" M 284.149 389.122 C 284.149 452.745 232.576 504.326 168.953 504.326 C 105.322 504.326 53.749 452.745 53.749 389.122 C 53.749 325.499 105.322 273.918 168.953 273.918 C 232.576 273.918 284.149 325.499 284.149 389.122 Z " fill="rgb(255,102,0)"/><path d=" M 512 227.831 C 512 291.446 460.428 343.035 396.804 343.035 C 333.173 343.035 281.6 291.446 281.6 227.831 C 281.6 164.208 333.173 112.619 396.804 112.619 C 460.428 112.619 512 164.208 512 227.831 Z " fill="rgb(255,204,0)"/><path d=" M 230.4 225.286 C 230.4 288.901 178.827 340.49 115.196 340.49 C 51.581 340.49 0 288.901 0 225.286 C 0 161.663 51.581 110.074 115.196 110.074 C 178.827 110.074 230.4 161.663 230.4 225.286 Z " fill="rgb(0,137,204)"/><path d=" M 460.796 389.122 C 460.796 452.745 409.224 504.326 345.584 504.326 C 281.969 504.326 230.388 452.745 230.388 389.122 C 230.388 325.499 281.969 273.918 345.584 273.918 C 409.224 273.918 460.796 325.499 460.796 389.122 Z " fill="rgb(0,153,57)"/><path d=" M 371.2 122.878 C 371.2 186.501 319.619 238.082 255.996 238.082 C 192.373 238.082 140.792 186.501 140.792 122.878 C 140.792 59.255 192.373 7.674 255.996 7.674 C 319.619 7.674 371.2 59.255 371.2 122.878 Z " fill="rgb(191,0,0)"/><path d=" M 281.604 227.831 C 281.604 230.255 281.815 232.628 281.967 235.018 C 333.066 223.229 371.203 177.543 371.203 122.862 C 371.203 120.439 370.992 118.057 370.84 115.668 C 319.74 127.465 281.604 173.151 281.604 227.831 Z " fill="rgb(252,0,7)"/><path d=" M 296.811 284.874 C 316.664 319.583 353.974 343.034 396.823 343.034 C 414.286 343.034 430.779 339.031 445.617 332.072 C 425.771 297.364 388.462 273.913 345.605 273.913 C 328.141 273.913 311.648 277.916 296.811 284.874 Z " fill="rgb(28,211,6)"/><path d=" M 230.4 389.122 C 230.4 417.268 240.516 443.025 257.288 463.031 C 274.042 443.025 284.159 417.268 284.159 389.122 C 284.159 360.975 274.042 335.219 257.288 315.213 C 240.516 335.219 230.4 360.975 230.4 389.122 Z " fill="rgb(15,117,4)"/><path d=" M 69.58 331.052 C 83.573 337.099 98.976 340.485 115.19 340.485 C 157.617 340.485 194.58 317.49 214.577 283.347 C 200.584 277.301 185.172 273.923 168.967 273.923 C 126.54 273.923 89.569 296.918 69.58 331.052 Z " fill="rgb(12,94,135)"/><path d=" M 141.295 113.147 C 141.025 116.356 140.797 119.581 140.797 122.866 C 140.797 177.504 178.875 223.149 229.915 234.988 C 230.177 231.779 230.405 228.553 230.405 225.277 C 230.405 170.639 192.336 124.978 141.295 113.147 Z " fill="rgb(107,0,1)"/><path d=" M 152.054 374.856 L 134.032 374.856 C 118.122 374.856 105.185 361.96 105.185 346.093 L 105.185 182.973 C 105.185 167.105 118.122 154.201 134.032 154.201 L 360.007 154.201 C 375.917 154.201 388.846 167.105 388.846 182.973 L 388.846 346.093 C 388.846 361.96 375.917 374.856 360.007 374.856 L 283.024 374.856 L 128.569 450.572 L 152.054 374.856 Z " fill="rgb(255,255,255)"/></g></g></svg>