<?xml version="1.0" encoding="UTF-8" standalone="no"?><!-- Generator: Gravit.io --><svg xmlns="http://www.w3.org/2000/svg" xmlns:xlink="http://www.w3.org/1999/xlink" style="isolation:isolate" viewBox="0 0 512 512" width="512pt" height="512pt"><defs><clipPath id="_clipPath_7mBthnU4MYMCA6Le0PEd2iQUDstBZTKV"><rect width="512" height="512"/></clipPath></defs><g clip-path="url(#_clipPath_7mBthnU4MYMCA6Le0PEd2iQUDstBZTKV)"><g><path d=" M 500.701 132.863 C 494.725 110.778 477.472 93.525 455.387 87.549 C 415.655 76.713 255.741 76.713 255.741 76.713 C 255.741 76.713 95.827 77.041 56.095 87.877 C 34.01 93.854 16.757 111.106 10.781 133.192 C -1.237 203.79 -5.9 311.362 11.109 379.137 C 17.086 401.222 34.338 418.475 56.424 424.451 C 96.156 435.287 256.069 435.287 256.069 435.287 C 256.069 435.287 415.983 435.287 455.715 424.451 C 477.801 418.475 495.053 401.222 501.029 379.137 C 513.704 308.44 517.612 200.933 500.701 132.863 Z " fill="rgb(255,0,0)"/><path d=" M 204.844 332.837 L 337.504 256 L 204.844 179.163 L 204.844 332.837 Z " fill="rgb(255,255,255)"/></g></g></svg>