<?xml version="1.0" encoding="UTF-8" standalone="no"?><!-- Generator: Gravit.io --><svg xmlns="http://www.w3.org/2000/svg" xmlns:xlink="http://www.w3.org/1999/xlink" style="isolation:isolate" viewBox="0 0 512 512" width="512pt" height="512pt"><defs><clipPath id="_clipPath_FMIpcTaP2PSjjF3dnu7DOOpHQqMNbTwd"><rect width="512" height="512"/></clipPath></defs><g clip-path="url(#_clipPath_FMIpcTaP2PSjjF3dnu7DOOpHQqMNbTwd)"><g><path d=" M 504.337 317.937 C 470.142 455.095 331.223 538.568 194.048 504.365 C 56.93 470.169 -26.543 331.242 7.669 194.092 C 41.848 56.917 180.767 -26.564 317.902 7.632 C 455.068 41.827 538.533 180.77 504.337 317.937 L 504.337 317.937 Z " fill="rgb(247,147,26)"/><path d=" M 368.883 219.526 C 373.98 185.459 348.041 167.145 312.573 154.927 L 324.078 108.778 L 295.987 101.778 L 284.786 146.711 C 277.401 144.87 269.816 143.134 262.28 141.414 L 273.561 96.185 L 245.486 89.184 L 233.973 135.317 C 227.86 133.925 221.859 132.549 216.035 131.101 L 216.067 130.957 L 177.327 121.284 L 169.854 151.287 C 169.854 151.287 190.696 156.064 190.256 156.36 C 201.633 159.2 203.689 166.729 203.345 172.697 L 190.24 225.271 C 191.024 225.471 192.04 225.759 193.16 226.207 C 192.224 225.975 191.224 225.719 190.192 225.471 L 171.822 299.119 C 170.43 302.575 166.901 307.76 158.949 305.791 C 159.229 306.2 138.53 300.695 138.53 300.695 L 124.585 332.85 L 161.141 341.963 C 167.942 343.668 174.606 345.452 181.167 347.132 L 169.542 393.809 L 197.601 400.81 L 209.114 354.629 C 216.779 356.709 224.22 358.629 231.5 360.437 L 220.027 406.402 L 248.118 413.403 L 259.743 366.814 C 307.644 375.879 343.664 372.223 358.826 328.898 C 371.043 294.014 358.218 273.892 333.015 260.771 C 351.369 256.538 365.195 244.465 368.883 219.526 L 368.883 219.526 Z  M 304.7 309.528 C 296.019 344.412 237.285 325.554 218.243 320.825 L 233.669 258.986 C 252.711 263.739 313.773 273.148 304.7 309.528 Z  M 313.389 219.022 C 305.468 250.754 256.583 234.632 240.725 230.679 L 254.711 174.593 C 270.569 178.546 321.638 185.923 313.389 219.022 Z " fill="rgb(255,255,255)"/></g></g></svg>