<?xml version="1.0" encoding="UTF-8" standalone="no"?><!-- Generator: Gravit.io --><svg xmlns="http://www.w3.org/2000/svg" xmlns:xlink="http://www.w3.org/1999/xlink" style="isolation:isolate" viewBox="0 0 512 512" width="512pt" height="512pt"><defs><clipPath id="_clipPath_BovaG7OROkzr47olSKBbCp20C0ZzxbAe"><rect width="512" height="512"/></clipPath></defs><g clip-path="url(#_clipPath_BovaG7OROkzr47olSKBbCp20C0ZzxbAe)"><rect x="154.09" y="-5.918" width="21.703" height="418.769" transform="matrix(-0.866,-0.5,0.5,-0.866,206.049,462.145)" fill="rgb(229,53,171)"/><rect x="46.545" y="350.398" width="418.778" height="21.704" transform="matrix(1,0,0,1,0,0)" fill="rgb(229,53,171)"/><rect x="44.055" y="402.812" width="241.874" height="21.703" transform="matrix(-0.866,-0.5,0.5,-0.866,101.041,854.402)" fill="rgb(229,53,171)"/><rect x="226.019" y="87.611" width="241.874" height="21.703" transform="matrix(-0.866,-0.5,0.5,-0.866,598.194,357.216)" fill="rgb(229,53,171)"/><rect x="154.198" y="-22.557" width="21.703" height="241.874" transform="matrix(-0.5,-0.866,0.866,-0.5,162.377,290.508)" fill="rgb(229,53,171)"/><rect x="137.721" y="192.619" width="418.769" height="21.703" transform="matrix(-0.5,-0.866,0.866,-0.5,344.452,605.808)" fill="rgb(229,53,171)"/><rect x="63.15" y="135.06" width="21.704" height="241.879" transform="matrix(1,0,0,1,0,0)" fill="rgb(229,53,171)"/><rect x="427.146" y="135.06" width="21.704" height="241.879" transform="matrix(1,0,0,1,0,0)" fill="rgb(229,53,171)"/><rect x="337.476" y="308.36" width="18.958" height="210.365" transform="matrix(-0.5,-0.866,0.866,-0.5,162.301,920.789)" fill="rgb(229,53,171)"/><path d=" M 477.614 384 C 465.062 405.835 437.083 413.287 415.248 400.735 C 393.414 388.184 385.961 360.204 398.513 338.37 C 411.064 316.535 439.044 309.083 460.878 321.634 C 482.844 334.317 490.296 362.165 477.614 384 Z " fill="rgb(229,53,171)"/><path d=" M 113.356 173.63 C 100.805 195.465 72.825 202.917 50.991 190.366 C 29.156 177.814 21.704 149.835 34.255 128 C 46.807 106.165 74.787 98.713 96.621 111.265 C 118.456 123.947 125.908 151.796 113.356 173.63 Z " fill="rgb(229,53,171)"/><path d=" M 34.386 384 C 21.835 362.165 29.287 334.317 51.122 321.634 C 72.956 309.083 100.805 316.535 113.487 338.37 C 126.039 360.204 118.586 388.053 96.752 400.735 C 74.787 413.287 46.938 405.835 34.386 384 Z " fill="rgb(229,53,171)"/><path d=" M 398.644 173.63 C 386.092 151.796 393.544 123.947 415.379 111.265 C 437.213 98.713 465.062 106.165 477.745 128 C 490.296 149.835 482.844 177.683 461.009 190.366 C 439.175 202.917 411.195 195.465 398.644 173.63 Z " fill="rgb(229,53,171)"/><path d=" M 256 512 C 230.766 512 210.37 491.604 210.37 466.37 C 210.37 441.136 230.766 420.74 256 420.74 C 281.234 420.74 301.63 441.136 301.63 466.37 C 301.63 491.473 281.234 512 256 512 Z " fill="rgb(229,53,171)"/><path d=" M 256 91.26 C 230.766 91.26 210.37 70.864 210.37 45.63 C 210.37 20.396 230.766 0 256 0 C 281.234 0 301.63 20.396 301.63 45.63 C 301.63 70.864 281.234 91.26 256 91.26 Z " fill="rgb(229,53,171)"/></g></svg>