<svg height="2000" viewBox="0 0 2000 2000" width="2000" xmlns="http://www.w3.org/2000/svg" xmlns:xlink="http://www.w3.org/1999/xlink"><mask id="a" height="2000" maskUnits="userSpaceOnUse" width="2000" x="0" y="0"><path d="m0 .02h2000v1999.98h-2000z" fill="#fff" fill-rule="evenodd"/></mask><path d="m280.82 923.51 307.36-730.68 873.19 100.59 178.83 539.28-89.42 746.05q-192.78 206.78-245.89 206.77t-804.73-146.7l-219.34-542.07z" fill="#f9f9f9" fill-rule="evenodd"/><g mask="url(#a)"><path d="m1419 1579.36h-212.87v-366.53a106.32 106.32 0 0 0 -106.34-106.41h-306c-117.52 0-212.75-95.31-212.79-212.79v-473h212.83v366.62a106.36 106.36 0 0 0 106.38 106.38h306a212.89 212.89 0 0 1 212.79 212.79zm-617.84 0h-212.83v-357.43c117.53 0 212.79 95.22 212.79 212.75zm397.67-1158.72h212.84v357.56c-117.57 0-212.79-95.31-212.84-212.79zm-198.83-420.64c-552.29 0-1000 447.76-1000 1000s447.71 1000 1000 1000 1000-447.71 1000-1000-447.71-1000-1000-1000z" fill="#005ffa" fill-rule="evenodd"/></g></svg>