<svg enable-background="new 0 0 2005 1812" viewBox="0 0 2005 1812" xmlns="http://www.w3.org/2000/svg"><path d="m655.8 1774h1140.5l166.2-294h-1140.6z" fill="#5569ff"/><path d="m1760.2 1122.1h-331.5l-166.3 294.1 331.6.1z" fill="#5569ff"/><path d="m1760 1058.4-570.3-1009.4h-331l570.5 1009.4z" fill="#5c00e9"/><path d="m30.9 1447.8 165.7 293.2 570.3-1009.1-165.7-293.1z" fill="#00bfe9"/><path d="m601.2 1741 165.7-293.1-165.7-293.1-165.7 292.9z" fill="#00bfe9"/><path d="m656.3 406.7 166.1 294h331.4l-166.1-294z" fill="#5c00e9"/><g fill="#243269"><path d="m1962.4 1416.3-147.6-261.3-147.7 261.3z"/><path d="m1208.1 1383.1 165.7-293.1-165.7-293.2-165.7 293.2z"/><path d="m656 1122.1 166.2 294.1h35.8 295.6l-166.2-294.1z"/><path d="m821.8 764.4-166.1 294h331.4l166.1-294z"/><path d="m251.3 1774h295.2l-147.6-261.3z"/><path d="m803.5 80.9-148.1 262h295.9z"/></g></svg>