<?xml version="1.0" encoding="UTF-8" standalone="no"?><!-- Generator: Gravit.io --><svg xmlns="http://www.w3.org/2000/svg" xmlns:xlink="http://www.w3.org/1999/xlink" style="isolation:isolate" viewBox="0 0 512 512" width="512pt" height="512pt"><defs><clipPath id="_clipPath_gZHhVdcjhCVFx6XocO9gaNF7DMIW7MCQ"><rect width="512" height="512"/></clipPath></defs><g clip-path="url(#_clipPath_gZHhVdcjhCVFx6XocO9gaNF7DMIW7MCQ)"><path d=" M 459.58 150.7 C 459.88 155.24 459.88 159.796 459.88 164.385 C 459.88 304.339 354.223 465.721 161.015 465.721 L 161.015 465.62 C 103.922 465.721 48.047 449.232 0 418.157 C 8.294 419.158 16.639 419.676 25 419.693 C 72.296 419.726 118.241 403.721 155.457 374.265 C 110.514 373.397 71.095 343.858 57.327 300.717 C 73.064 303.788 89.303 303.154 104.74 298.898 C 55.741 288.901 20.477 245.51 20.477 195.093 C 20.477 194.625 20.477 194.192 20.477 193.741 C 35.08 201.952 51.435 206.508 68.158 207.009 C 21.996 175.9 7.777 114.001 35.648 65.603 C 88.985 131.758 167.657 171.979 252.137 176.234 C 243.675 139.469 255.224 100.917 282.527 75.049 C 324.834 34.962 391.372 37.015 431.142 79.655 C 454.657 74.982 477.22 66.271 497.848 53.938 C 490.004 78.454 473.599 99.282 451.669 112.499 C 472.497 110.046 492.824 104.405 512 95.844 C 497.898 117.155 480.124 135.697 459.58 150.7 Z " fill="rgb(29,155,240)"/></g></svg>